<svg width="25" height="24" viewBox="0 0 25 24" fill="none" xmlns="http://www.w3.org/2000/svg">
<path d="M12.0109 22.5C9.22363 22.5 6.55048 21.3938 4.57955 19.4246C2.60862 17.4555 1.50137 14.7848 1.50137 12C1.50137 9.21523 2.60862 6.54451 4.57955 4.57538C6.55048 2.60625 9.22363 1.5 12.0109 1.5C14.7983 1.5 17.4714 2.60625 19.4423 4.57538C21.4133 6.54451 22.5205 9.21523 22.5205 12C22.5205 14.7848 21.4133 17.4555 19.4423 19.4246C17.4714 21.3938 14.7983 22.5 12.0109 22.5ZM12.0109 24C15.1964 24 18.2515 22.7357 20.504 20.4853C22.7564 18.2348 24.0219 15.1826 24.0219 12C24.0219 8.8174 22.7564 5.76516 20.504 3.51472C18.2515 1.26428 15.1964 0 12.0109 0C8.82544 0 5.77041 1.26428 3.51792 3.51472C1.26543 5.76516 0 8.8174 0 12C0 15.1826 1.26543 18.2348 3.51792 20.4853C5.77041 22.7357 8.82544 24 12.0109 24V24Z" fill="#6A2A41"/>
<path d="M6.97542 6.96888C7.04516 6.89903 7.12799 6.84362 7.2192 6.80581C7.3104 6.768 7.40817 6.74854 7.50691 6.74854C7.60565 6.74854 7.70342 6.768 7.79462 6.80581C7.88582 6.84362 7.96866 6.89903 8.03839 6.96888L12.011 10.9394L15.9836 6.96888C16.0534 6.89914 16.1363 6.84383 16.2275 6.80609C16.3187 6.76835 16.4164 6.74893 16.5151 6.74893C16.6138 6.74893 16.7116 6.76835 16.8027 6.80609C16.8939 6.84383 16.9768 6.89914 17.0466 6.96888C17.1164 7.03861 17.1718 7.12139 17.2095 7.2125C17.2473 7.30361 17.2667 7.40126 17.2667 7.49988C17.2667 7.59849 17.2473 7.69614 17.2095 7.78725C17.1718 7.87836 17.1164 7.96114 17.0466 8.03088L13.0725 11.9999L17.0466 15.9689C17.1164 16.0386 17.1718 16.1214 17.2095 16.2125C17.2473 16.3036 17.2667 16.4013 17.2667 16.4999C17.2667 16.5985 17.2473 16.6961 17.2095 16.7873C17.1718 16.8784 17.1164 16.9611 17.0466 17.0309C16.9768 17.1006 16.8939 17.1559 16.8027 17.1937C16.7116 17.2314 16.6138 17.2508 16.5151 17.2508C16.4164 17.2508 16.3187 17.2314 16.2275 17.1937C16.1363 17.1559 16.0534 17.1006 15.9836 17.0309L12.011 13.0604L8.03839 17.0309C7.9686 17.1006 7.88574 17.1559 7.79455 17.1937C7.70335 17.2314 7.60561 17.2508 7.50691 17.2508C7.4082 17.2508 7.31046 17.2314 7.21927 17.1937C7.12808 17.1559 7.04522 17.1006 6.97542 17.0309C6.90563 16.9611 6.85026 16.8784 6.81249 16.7873C6.77472 16.6961 6.75528 16.5985 6.75528 16.4999C6.75528 16.4013 6.77472 16.3036 6.81249 16.2125C6.85026 16.1214 6.90563 16.0386 6.97542 15.9689L10.9495 11.9999L6.97542 8.03088C6.90552 7.96121 6.85005 7.87844 6.81221 7.78733C6.77436 7.69621 6.75488 7.59853 6.75488 7.49988C6.75488 7.40122 6.77436 7.30354 6.81221 7.21243C6.85005 7.12131 6.90552 7.03854 6.97542 6.96888Z" fill="#6A2A41"/>
</svg>
