<svg width="16" height="16" viewBox="0 0 16 16" fill="none" xmlns="http://www.w3.org/2000/svg">
<g opacity="0.3">
<path fill-rule="evenodd" clip-rule="evenodd" d="M10.0002 12.0667C10.0002 12.2435 9.92992 12.4131 9.8049 12.5381C9.67988 12.6631 9.51031 12.7334 9.3335 12.7334H6.66683C6.49002 12.7334 6.32045 12.6631 6.19543 12.5381C6.0704 12.4131 6.00016 12.2435 6.00016 12.0667C6.00016 11.8899 6.0704 11.7203 6.19543 11.5953C6.32045 11.4703 6.49002 11.4 6.66683 11.4H9.3335C9.51031 11.4 9.67988 11.4703 9.8049 11.5953C9.92992 11.7203 10.0002 11.8899 10.0002 12.0667ZM12.6668 8.06669C12.6668 8.2435 12.5966 8.41307 12.4716 8.5381C12.3465 8.66312 12.177 8.73336 12.0002 8.73336H4.00016C3.82335 8.73336 3.65378 8.66312 3.52876 8.5381C3.40373 8.41307 3.3335 8.2435 3.3335 8.06669C3.3335 7.88988 3.40373 7.72031 3.52876 7.59529C3.65378 7.47026 3.82335 7.40002 4.00016 7.40002H12.0002C12.177 7.40002 12.3465 7.47026 12.4716 7.59529C12.5966 7.72031 12.6668 7.88988 12.6668 8.06669ZM14.6668 4.06669C14.6668 4.2435 14.5966 4.41307 14.4716 4.5381C14.3465 4.66312 14.177 4.73336 14.0002 4.73336H2.00016C1.82335 4.73336 1.65378 4.66312 1.52876 4.5381C1.40373 4.41307 1.3335 4.2435 1.3335 4.06669C1.3335 3.88988 1.40373 3.72031 1.52876 3.59529C1.65378 3.47026 1.82335 3.40002 2.00016 3.40002H14.0002C14.177 3.40002 14.3465 3.47026 14.4716 3.59529C14.5966 3.72031 14.6668 3.88988 14.6668 4.06669Z" fill="black"/>
</g>
</svg>
