<svg width="18" height="18" viewBox="0 0 18 18" fill="none" xmlns="http://www.w3.org/2000/svg">
<g clip-path="url(#clip0_1310_4304)">
<path d="M17.5796 9.16838C17.5796 8.43093 17.5197 7.89279 17.3902 7.33472H8.96924V10.6632H13.9122C13.8125 11.4904 13.2744 12.7361 12.0785 13.5732L12.0617 13.6846L14.7243 15.7472L14.9088 15.7657C16.6029 14.201 17.5796 11.899 17.5796 9.16838Z" fill="#4285F4"/>
<path d="M8.96895 17.9382C11.3906 17.9382 13.4235 17.1409 14.9085 15.7657L12.0782 13.5732C11.3208 14.1014 10.3043 14.4701 8.96895 14.4701C6.59714 14.4701 4.58409 12.9055 3.8665 10.743L3.76131 10.7519L0.992749 12.8945L0.956543 12.9952C2.43144 15.9251 5.46101 17.9382 8.96895 17.9382Z" fill="#34A853"/>
<path d="M3.86663 10.743C3.67729 10.1849 3.56771 9.58692 3.56771 8.96908C3.56771 8.35117 3.67729 7.75325 3.85667 7.19518L3.85166 7.07633L1.0484 4.89929L0.956679 4.94292C0.348801 6.15874 0 7.52406 0 8.96908C0 10.4141 0.348801 11.7793 0.956679 12.9952L3.86663 10.743Z" fill="#FBBC05"/>
<path d="M8.96895 3.46802C10.6531 3.46802 11.7892 4.19551 12.437 4.80346L14.9682 2.33196C13.4136 0.886947 11.3906 0 8.96895 0C5.46101 0 2.43144 2.01305 0.956543 4.94292L3.85654 7.19519C4.58409 5.03265 6.59714 3.46802 8.96895 3.46802Z" fill="#EB4335"/>
</g>
<defs>
<clipPath id="clip0_1310_4304">
<rect width="18" height="18" fill="white"/>
</clipPath>
</defs>
</svg>
