<svg width="21" height="20" viewBox="0 0 21 20" fill="none" xmlns="http://www.w3.org/2000/svg">
<path fill-rule="evenodd" clip-rule="evenodd" d="M15.4165 3.33341C15.5717 3.48955 15.6588 3.70076 15.6588 3.92091C15.6588 4.14107 15.5717 4.35228 15.4165 4.50841L9.93312 10.0001L15.4998 15.5501C15.655 15.7062 15.7421 15.9174 15.7421 16.1376C15.7421 16.3577 15.655 16.5689 15.4998 16.7251C15.4223 16.8032 15.3301 16.8652 15.2286 16.9075C15.1271 16.9498 15.0181 16.9716 14.9081 16.9716C14.7981 16.9716 14.6892 16.9498 14.5876 16.9075C14.4861 16.8652 14.3939 16.8032 14.3165 16.7251L8.15812 10.5917C8.08001 10.5143 8.01802 10.4221 7.97571 10.3206C7.9334 10.219 7.91162 10.1101 7.91162 10.0001C7.91162 9.89007 7.9334 9.78115 7.97571 9.6796C8.01802 9.57805 8.08001 9.48588 8.15812 9.40841L14.2331 3.33341C14.3106 3.25531 14.4028 3.19331 14.5043 3.151C14.6059 3.1087 14.7148 3.08691 14.8248 3.08691C14.9348 3.08691 15.0437 3.1087 15.1453 3.151C15.2468 3.19331 15.339 3.25531 15.4165 3.33341Z" fill="black"/>
</svg>
