<svg width="21" height="20" viewBox="0 0 21 20" fill="none" xmlns="http://www.w3.org/2000/svg">
<path fill-rule="evenodd" clip-rule="evenodd" d="M8.36664 3.33339L14.4416 9.40839C14.5198 9.48586 14.5817 9.57803 14.6241 9.67958C14.6664 9.78113 14.6881 9.89005 14.6881 10.0001C14.6881 10.1101 14.6664 10.219 14.6241 10.3205C14.5817 10.4221 14.5198 10.5143 14.4416 10.5917L8.30831 16.7251C8.23084 16.8032 8.13867 16.8652 8.03712 16.9075C7.93557 16.9498 7.82665 16.9716 7.71664 16.9716C7.60663 16.9716 7.49771 16.9498 7.39616 16.9075C7.29461 16.8652 7.20245 16.8032 7.12498 16.7251H7.16664C7.01143 16.5689 6.92432 16.3577 6.92432 16.1376C6.92432 15.9174 7.01143 15.7062 7.16664 15.5501L12.675 10.0001L7.16664 4.50839C7.01143 4.35226 6.92432 4.14105 6.92432 3.92089C6.92432 3.70074 7.01143 3.48953 7.16664 3.33339C7.24438 3.25274 7.33758 3.18859 7.44067 3.14477C7.54376 3.10095 7.65463 3.07837 7.76664 3.07837C7.87866 3.07837 7.98953 3.10095 8.09262 3.14477C8.19571 3.18859 8.28891 3.25274 8.36664 3.33339Z" fill="black"/>
</svg>
