<svg width="155" height="352" viewBox="0 0 155 352" fill="none" xmlns="http://www.w3.org/2000/svg">
<path fill-rule="evenodd" clip-rule="evenodd" d="M52.0432 6.61433C52.2171 9.5421 51.3127 15.9832 46.304 18.3254C41.2953 20.6676 28.5651 24.3762 22.8261 25.9376C19 26.5232 10.6174 33.9012 7.69566 58.7287C4.77392 83.5562 3.34783 117.089 3 130.752C5.6087 133.094 13.8522 136.725 25.9565 132.509C27.6957 114.552 31.0696 77.8178 30.6522 74.5387L37.4348 127.824C37.4348 130.166 36.913 136.373 34.8261 142.463C34.2957 144.011 33.5065 146.091 32.577 148.541C28.9343 158.142 23.1357 173.427 22.3044 184.623C22.1851 186.23 21.9771 188.311 21.7211 190.873C19.7374 210.726 14.8663 259.477 25.9565 340.38C34.5975 344.26 55.2252 351.762 69 350.937C82.7748 351.762 103.403 344.26 112.043 340.38C123.134 259.477 118.263 210.726 116.279 190.873C116.023 188.311 115.815 186.23 115.696 184.623C114.864 173.427 109.066 158.142 105.423 148.541C104.493 146.091 103.704 144.011 103.174 142.463C101.087 136.373 100.565 130.166 100.565 127.824L107.348 74.5387C106.93 77.8178 110.304 114.552 112.043 132.509C124.148 136.725 132.391 133.094 135 130.752C134.652 117.089 133.226 83.5562 130.304 58.7287C127.383 33.9012 119 26.5232 115.174 25.9376C109.435 24.3762 96.7047 20.6676 91.696 18.3254C86.6873 15.9832 85.7829 9.5421 85.9568 6.61433C84.7254 0.682993 74.3064 0.589923 69 1.30781C63.6936 0.589923 53.2746 0.682993 52.0432 6.61433Z" fill="#F1ECEE"/>
<path d="M52.0432 6.61433L51.5536 6.51269C51.5447 6.55584 51.5414 6.59999 51.5441 6.64398L52.0432 6.61433ZM22.8261 25.9376L22.9017 26.4319C22.9205 26.429 22.9391 26.4251 22.9574 26.4201L22.8261 25.9376ZM7.69566 58.7287L8.19223 58.7871L7.69566 58.7287ZM3 130.752L2.50016 130.739C2.49644 130.886 2.55703 131.026 2.66596 131.124L3 130.752ZM25.9565 132.509L26.121 132.981C26.3053 132.917 26.4354 132.751 26.4542 132.557L25.9565 132.509ZM31.1482 74.4755C31.1133 74.2016 30.863 74.0078 30.589 74.0427C30.3151 74.0775 30.1213 74.3279 30.1562 74.6018L31.1482 74.4755ZM37.4348 127.824H37.9348C37.9348 127.803 37.9334 127.782 37.9308 127.761L37.4348 127.824ZM34.8261 142.463L34.3531 142.301L34.8261 142.463ZM32.577 148.541L33.0444 148.718L32.577 148.541ZM22.3044 184.623L22.803 184.66L22.3044 184.623ZM21.7211 190.873L21.2235 190.824L21.7211 190.873ZM25.9565 340.38L25.4612 340.448C25.4846 340.619 25.5944 340.766 25.7517 340.837L25.9565 340.38ZM69 350.937L69.0299 350.438C69.01 350.437 68.99 350.437 68.9701 350.438L69 350.937ZM112.043 340.38L112.248 340.837C112.406 340.766 112.515 340.619 112.539 340.448L112.043 340.38ZM116.279 190.873L116.776 190.824L116.279 190.873ZM115.696 184.623L115.197 184.66L115.696 184.623ZM105.423 148.541L105.891 148.364L105.423 148.541ZM103.174 142.463L103.647 142.301L103.174 142.463ZM100.565 127.824L100.069 127.761C100.067 127.782 100.065 127.803 100.065 127.824H100.565ZM107.844 74.6018C107.879 74.3279 107.685 74.0775 107.411 74.0427C107.137 74.0078 106.887 74.2016 106.852 74.4755L107.844 74.6018ZM112.043 132.509L111.546 132.557C111.565 132.751 111.695 132.917 111.879 132.981L112.043 132.509ZM135 130.752L135.334 131.124C135.443 131.026 135.504 130.886 135.5 130.739L135 130.752ZM130.304 58.7287L130.801 58.6703L130.304 58.7287ZM115.174 25.9376L115.043 26.4201C115.061 26.4251 115.08 26.429 115.098 26.4319L115.174 25.9376ZM85.9568 6.61433L86.456 6.64398C86.4586 6.59999 86.4554 6.55584 86.4464 6.51269L85.9568 6.61433ZM69 1.30781L68.933 1.8033C68.9775 1.80932 69.0225 1.80932 69.067 1.8033L69 1.30781ZM46.5158 18.7783C49.1791 17.5329 50.7283 15.2067 51.5866 12.8613C52.444 10.5187 52.6327 8.10664 52.5423 6.58468L51.5441 6.64398C51.6276 8.0498 51.4511 10.3221 50.6475 12.5176C49.845 14.7103 48.4376 16.7757 46.0922 17.8725L46.5158 18.7783ZM22.9574 26.4201C28.6839 24.862 41.4601 21.1426 46.5158 18.7783L46.0922 17.8725C41.1306 20.1927 28.4463 23.8903 22.6948 25.4552L22.9574 26.4201ZM8.19223 58.7871C9.64779 46.4185 12.4592 38.4392 15.3533 33.495C18.2606 28.5282 21.2069 26.6913 22.9017 26.4319L22.7504 25.4434C20.6192 25.7696 17.4612 27.9144 14.4902 32.9898C11.506 38.088 8.66526 46.2114 7.19908 58.6703L8.19223 58.7871ZM3.49984 130.765C3.84754 117.107 5.27317 83.5919 8.19223 58.7871L7.19908 58.6703C4.27467 83.5205 2.84812 117.071 2.50016 130.739L3.49984 130.765ZM25.7921 132.036C13.8393 136.2 5.79188 132.587 3.33404 130.38L2.66596 131.124C5.42552 133.602 13.865 137.25 26.121 132.981L25.7921 132.036ZM30.1562 74.6018C30.2019 74.9613 30.1982 75.8478 30.142 77.214C30.0866 78.5608 29.9826 80.3297 29.8403 82.4207C29.5558 86.602 29.1191 92.0589 28.6149 97.977C27.6064 109.812 26.3283 123.483 25.4589 132.46L26.4542 132.557C27.3239 123.577 28.6023 109.902 29.6112 98.0619C30.1157 92.1419 30.5529 86.6783 30.838 82.4886C30.9805 80.3941 31.0852 78.6149 31.1412 77.2551C31.1963 75.9146 31.2068 74.9358 31.1482 74.4755L30.1562 74.6018ZM37.9308 127.761L31.1482 74.4755L30.1562 74.6018L36.9388 127.887L37.9308 127.761ZM35.2991 142.625C37.4073 136.473 37.9348 130.21 37.9348 127.824H36.9348C36.9348 130.123 36.4188 136.273 34.3531 142.301L35.2991 142.625ZM33.0444 148.718C33.9728 146.271 34.7654 144.182 35.2991 142.625L34.3531 142.301C33.826 143.839 33.0403 145.91 32.1095 148.364L33.0444 148.718ZM22.803 184.66C23.6277 173.552 29.3927 158.344 33.0444 148.718L32.1095 148.364C28.4759 157.941 22.6436 173.301 21.8057 184.586L22.803 184.66ZM22.2186 190.923C22.4744 188.363 22.6831 186.274 22.803 184.66L21.8057 184.586C21.687 186.185 21.4799 188.258 21.2235 190.824L22.2186 190.923ZM26.4519 340.313C15.3688 259.461 20.2373 210.752 22.2186 190.923L21.2235 190.824C19.2375 210.7 14.3638 259.493 25.4612 340.448L26.4519 340.313ZM68.9701 350.438C62.1685 350.845 53.6334 349.195 45.6895 346.942C37.7558 344.692 30.4614 341.855 26.1613 339.924L25.7517 340.837C30.0925 342.785 37.4325 345.639 45.4166 347.904C53.3905 350.166 62.0567 351.854 69.0299 351.436L68.9701 350.438ZM68.9701 351.436C75.9433 351.854 84.6095 350.166 92.5834 347.904C100.567 345.639 107.907 342.785 112.248 340.837L111.839 339.924C107.539 341.855 100.244 344.692 92.3105 346.942C84.3666 349.195 75.8315 350.845 69.0299 350.438L68.9701 351.436ZM112.539 340.448C123.636 259.493 118.762 210.7 116.776 190.824L115.781 190.923C117.763 210.752 122.631 259.461 111.548 340.313L112.539 340.448ZM116.776 190.824C116.52 188.258 116.313 186.185 116.194 184.586L115.197 184.66C115.317 186.274 115.526 188.363 115.781 190.923L116.776 190.824ZM116.194 184.586C115.356 173.301 109.524 157.941 105.891 148.364L104.956 148.718C108.607 158.344 114.372 173.552 115.197 184.66L116.194 184.586ZM105.891 148.364C104.96 145.91 104.174 143.839 103.647 142.301L102.701 142.625C103.235 144.182 104.027 146.271 104.956 148.718L105.891 148.364ZM103.647 142.301C101.581 136.273 101.065 130.123 101.065 127.824H100.065C100.065 130.21 100.593 136.473 102.701 142.625L103.647 142.301ZM101.061 127.887L107.844 74.6018L106.852 74.4755L100.069 127.761L101.061 127.887ZM106.852 74.4755C106.793 74.9358 106.804 75.9146 106.859 77.2551C106.915 78.6149 107.02 80.3941 107.162 82.4886C107.447 86.6783 107.884 92.1419 108.389 98.0619C109.398 109.902 110.676 123.577 111.546 132.557L112.541 132.46C111.672 123.483 110.394 109.812 109.385 97.977C108.881 92.0589 108.444 86.602 108.16 82.4207C108.017 80.3297 107.913 78.5608 107.858 77.214C107.802 75.8478 107.798 74.9613 107.844 74.6018L106.852 74.4755ZM111.879 132.981C124.135 137.25 132.574 133.602 135.334 131.124L134.666 130.38C132.208 132.587 124.161 136.2 112.208 132.036L111.879 132.981ZM135.5 130.739C135.152 117.071 133.725 83.5205 130.801 58.6703L129.808 58.7871C132.727 83.5919 134.152 117.107 134.5 130.765L135.5 130.739ZM130.801 58.6703C129.335 46.2114 126.494 38.088 123.51 32.9898C120.539 27.9144 117.381 25.7696 115.25 25.4434L115.098 26.4319C116.793 26.6913 119.739 28.5282 122.647 33.495C125.541 38.4392 128.352 46.4185 129.808 58.7871L130.801 58.6703ZM115.305 25.4552C109.554 23.8903 96.8694 20.1927 91.9078 17.8725L91.4842 18.7783C96.5399 21.1426 109.316 24.862 115.043 26.4201L115.305 25.4552ZM91.9078 17.8725C89.5624 16.7757 88.155 14.7103 87.3525 12.5176C86.5489 10.3221 86.3724 8.0498 86.456 6.64398L85.4577 6.58468C85.3673 8.10664 85.556 10.5187 86.4134 12.8613C87.2717 15.2067 88.8209 17.5329 91.4842 18.7783L91.9078 17.8725ZM86.4464 6.51269C85.7639 3.22519 82.5559 1.65806 79.1033 0.977062C75.6093 0.287916 71.6189 0.448958 68.933 0.812324L69.067 1.8033C71.6875 1.44878 75.5598 1.29741 78.9098 1.95816C82.3011 2.62706 84.9184 4.07214 85.4673 6.71597L86.4464 6.51269ZM52.5327 6.71597C53.0816 4.07214 55.6989 2.62706 59.0902 1.95816C62.4402 1.29741 66.3125 1.44878 68.933 1.8033L69.067 0.812324C66.3811 0.448958 62.3907 0.287916 58.8967 0.977062C55.4441 1.65806 52.2361 3.22519 51.5536 6.51269L52.5327 6.71597Z" fill="#6A2A41"/>
<path d="M25.9561 131.935C22.13 129.007 12.1821 124.557 2.99953 130.178" stroke="#6A2A41" stroke-width="0.6" stroke-linejoin="round"/>
<path d="M22.3047 26.1787C25.2612 30.0824 31.0699 46.3218 30.6525 75.3653" stroke="#6A2A41" stroke-width="0.6" stroke-linejoin="round"/>
<path d="M115.717 25.5933C112.76 29.497 106.952 45.7363 107.369 74.7799" stroke="#6A2A41" stroke-width="0.6" stroke-linejoin="round"/>
<path d="M39.5215 20.9087C44.0432 23.368 57.0519 33.5567 68.7389 52.5286" stroke="#6A2A41" stroke-width="0.6" stroke-linejoin="round"/>
<path d="M96.3916 20.3232C92.0373 22.7423 79.9935 33.8678 68.7394 52.5287" stroke="#6A2A41" stroke-width="0.6" stroke-linecap="round"/>
<path d="M112.044 132.164C115.87 129.236 125.818 124.786 135 130.407" stroke="#6A2A41" stroke-width="0.6" stroke-linejoin="round"/>
<path d="M37.4346 128.066C47.5215 123.576 74.2694 117.291 100.565 128.066" stroke="#6A2A41" stroke-width="0.6" stroke-linejoin="round"/>
<path d="M15.621 119.257C15.5838 119.725 15.467 120.117 15.2706 120.433C15.0747 120.743 14.8238 121.004 14.5181 121.215L13.9855 120.547C14.2404 120.369 14.4383 120.168 14.5792 119.944C14.7205 119.715 14.8032 119.448 14.8274 119.145C14.8557 118.789 14.7974 118.514 14.6523 118.321C14.5072 118.127 14.299 118.02 14.0279 117.998C13.8099 117.981 13.632 118.031 13.4943 118.148C13.3565 118.266 13.2428 118.484 13.1532 118.803L13.0261 119.291C12.882 119.825 12.6715 120.218 12.3947 120.469C12.1179 120.719 11.7562 120.827 11.3096 120.791C11.0651 120.772 10.848 120.709 10.6585 120.603C10.4641 120.491 10.307 120.348 10.1872 120.172C10.0625 119.991 9.97251 119.778 9.91713 119.533C9.86175 119.288 9.84591 119.016 9.86961 118.719C9.90305 118.299 10.0065 117.94 10.1799 117.644C10.348 117.347 10.5789 117.1 10.8727 116.905L11.3808 117.579C11.1833 117.708 11.0205 117.871 10.8923 118.07C10.7642 118.268 10.6878 118.522 10.6633 118.83C10.6379 119.149 10.682 119.401 10.7956 119.587C10.9093 119.772 11.0883 119.875 11.3329 119.894C11.5668 119.913 11.748 119.855 11.8764 119.721C11.9995 119.586 12.1023 119.37 12.1849 119.071L12.3279 118.585C12.4787 118.036 12.6919 117.643 12.9674 117.408C13.2433 117.168 13.6046 117.066 14.0511 117.101C14.3117 117.122 14.5446 117.186 14.7501 117.293C14.9556 117.401 15.1284 117.548 15.2686 117.736C15.4039 117.918 15.5042 118.137 15.5694 118.394C15.6292 118.65 15.6464 118.938 15.621 119.257ZM15.8375 115.328C15.8138 115.626 15.7216 115.843 15.5609 115.98C15.3953 116.112 15.1769 116.167 14.9058 116.145L9.8657 115.744L9.9349 114.874L15.1265 115.288L15.1722 114.714L15.8819 114.77L15.8375 115.328ZM16.1733 112.32C16.1496 112.618 16.0779 112.88 15.9583 113.106C15.8386 113.332 15.6792 113.519 15.48 113.669C15.2755 113.819 15.0367 113.928 14.7637 113.998C14.4858 114.061 14.182 114.08 13.8524 114.053C13.5228 114.027 13.2285 113.961 12.9694 113.855C12.7055 113.743 12.487 113.597 12.314 113.417C12.1358 113.237 12.0054 113.026 11.923 112.784C11.8407 112.542 11.8113 112.273 11.835 111.975C11.8591 111.672 11.9335 111.41 12.058 111.19C12.183 110.965 12.3473 110.782 12.5509 110.643C12.7493 110.504 12.9764 110.407 13.2322 110.353C13.4884 110.293 13.7601 110.274 14.0471 110.297L14.3741 110.323L14.1475 113.17L14.283 113.181C14.602 113.206 14.8726 113.134 15.0947 112.965C15.312 112.789 15.4346 112.526 15.4625 112.175C15.4829 111.92 15.4442 111.7 15.3465 111.516C15.2488 111.332 15.1092 111.171 14.9275 111.033L15.4705 110.563C15.7135 110.737 15.9004 110.977 16.0313 111.282C16.1568 111.586 16.2042 111.932 16.1733 112.32ZM12.5129 112.029C12.501 112.178 12.5166 112.318 12.5596 112.45C12.603 112.576 12.669 112.689 12.7575 112.787C12.8464 112.879 12.9554 112.955 13.0845 113.013C13.2136 113.072 13.3579 113.107 13.5174 113.12L13.5733 113.124L13.7269 111.195L13.6472 111.188C13.3282 111.163 13.0664 111.225 12.8619 111.374C12.6521 111.524 12.5357 111.742 12.5129 112.029ZM16.5261 107.889C16.5024 108.187 16.4307 108.448 16.3111 108.674C16.1914 108.9 16.032 109.088 15.8328 109.238C15.6283 109.388 15.3895 109.497 15.1165 109.566C14.8386 109.63 14.5348 109.648 14.2052 109.622C13.8756 109.596 13.5812 109.53 13.3222 109.423C13.0582 109.312 12.8398 109.166 12.6668 108.986C12.4886 108.806 12.3582 108.595 12.2758 108.353C12.1935 108.111 12.1641 107.841 12.1878 107.544C12.2119 107.24 12.2863 106.979 12.4108 106.759C12.5358 106.533 12.7001 106.351 12.9037 106.212C13.1021 106.073 13.3292 105.976 13.585 105.921C13.8412 105.861 14.1129 105.843 14.3999 105.866L14.7269 105.892L14.5002 108.739L14.6358 108.75C14.9548 108.775 15.2254 108.703 15.4475 108.533C15.6648 108.358 15.7874 108.095 15.8153 107.744C15.8357 107.489 15.797 107.269 15.6993 107.085C15.6016 106.9 15.462 106.74 15.2803 106.602L15.8233 106.132C16.0663 106.306 16.2532 106.546 16.3841 106.85C16.5096 107.155 16.557 107.501 16.5261 107.889ZM12.8657 107.598C12.8538 107.746 12.8694 107.887 12.9124 108.019C12.9558 108.145 13.0218 108.257 13.1103 108.355C13.1992 108.448 13.3082 108.524 13.4373 108.582C13.5664 108.64 13.7107 108.676 13.8702 108.689L13.9261 108.693L14.0797 106.763L14 106.757C13.681 106.731 13.4192 106.794 13.2147 106.943C13.0049 107.092 12.8885 107.31 12.8657 107.598ZM16.7198 104.246L12.4606 105.327L12.5291 104.466L14.4693 103.986L15.9544 103.679L15.9582 103.631L14.5404 103.093L12.7018 102.297L12.7679 101.467L16.8011 103.225L16.7198 104.246ZM17.1932 99.5092C17.1695 99.8069 17.0979 100.069 16.9782 100.295C16.8586 100.52 16.6992 100.708 16.5 100.858C16.2955 101.008 16.0567 101.117 15.7837 101.187C15.5057 101.25 15.202 101.269 14.8724 101.242C14.5427 101.216 14.2484 101.15 13.9893 101.044C13.7254 100.932 13.5069 100.786 13.334 100.606C13.1557 100.426 13.0254 100.215 12.943 99.9733C12.8606 99.7314 12.8313 99.4615 12.855 99.1638C12.8791 98.8608 12.9534 98.5992 13.0779 98.379C13.2029 98.1536 13.3672 97.9714 13.5709 97.8324C13.7692 97.6931 13.9963 97.5961 14.2521 97.5416C14.5083 97.4817 14.78 97.4632 15.0671 97.4861L15.3941 97.5121L15.1674 100.359L15.303 100.37C15.622 100.395 15.8925 100.323 16.1147 100.154C16.332 99.9783 16.4546 99.7152 16.4825 99.3643C16.5028 99.1091 16.4641 98.8894 16.3664 98.705C16.2688 98.5207 16.1291 98.3598 15.9474 98.2223L16.4905 97.7519C16.7334 97.9264 16.9203 98.166 17.0512 98.4706C17.1768 98.7749 17.2241 99.1211 17.1932 99.5092ZM13.5328 99.2178C13.521 99.3666 13.5365 99.507 13.5796 99.6388C13.623 99.7653 13.6889 99.8776 13.7774 99.9756C13.8664 100.068 13.9754 100.144 14.1045 100.202C14.2336 100.261 14.3779 100.296 14.5374 100.309L14.5932 100.313L14.7469 98.3835L14.6671 98.3771C14.3481 98.3517 14.0864 98.4138 13.8819 98.5634C13.672 98.7126 13.5557 98.9307 13.5328 99.2178ZM17.5413 93.9273C17.5176 94.225 17.4254 94.4424 17.2647 94.5794C17.0991 94.7106 16.8807 94.7655 16.6096 94.7439L11.5695 94.3426L11.6387 93.4734L16.8303 93.8867L16.876 93.3125L17.5858 93.369L17.5413 93.9273ZM17.8771 90.9192C17.8534 91.2169 17.7818 91.4787 17.6621 91.7046C17.5425 91.9305 17.3831 92.1184 17.1839 92.2684C16.9793 92.418 16.7406 92.5274 16.4676 92.5966C16.1896 92.6601 15.8859 92.6787 15.5562 92.6525C15.2266 92.6262 14.9323 92.56 14.6732 92.4538C14.4093 92.3418 14.1908 92.196 14.0179 92.0164C13.8396 91.8363 13.7093 91.6253 13.6269 91.3833C13.5445 91.1414 13.5151 90.8715 13.5389 90.5738C13.563 90.2708 13.6373 90.0092 13.7618 89.789C13.8868 89.5636 14.0511 89.3814 14.2548 89.2424C14.4531 89.103 14.6802 89.0061 14.936 88.9516C15.1922 88.8917 15.4639 88.8732 15.751 88.8961L16.0779 88.9221L15.8513 91.7691L15.9869 91.7799C16.3058 91.8053 16.5764 91.7332 16.7986 91.5636C17.0158 91.3883 17.1384 91.1252 17.1664 90.7743C17.1867 90.5191 17.148 90.2994 17.0503 90.115C16.9527 89.9307 16.813 89.7698 16.6313 89.6323L17.1744 89.1619C17.4173 89.3364 17.6042 89.576 17.7351 89.8806C17.8607 90.1849 17.908 90.5311 17.8771 90.9192ZM14.2167 90.6278C14.2049 90.7766 14.2204 90.917 14.2634 91.0488C14.3069 91.1753 14.3728 91.2876 14.4613 91.3856C14.5503 91.4782 14.6593 91.5538 14.7884 91.6122C14.9175 91.6707 15.0618 91.7062 15.2213 91.7189L15.2771 91.7234L15.4307 89.7935L15.351 89.7871C15.032 89.7617 14.7703 89.8238 14.5657 89.9734C14.3559 90.1225 14.2396 90.3407 14.2167 90.6278ZM18.0047 88.1071L13.8578 87.777L13.927 86.9077L14.6129 86.9623L14.616 86.9225C14.3999 86.8143 14.2246 86.6639 14.0902 86.4713C13.9561 86.2734 13.9018 86.0149 13.9272 85.6959C13.9611 85.2706 14.1282 84.9522 14.4286 84.7407C14.7241 84.5235 15.1297 84.4354 15.6454 84.4764L18.2771 84.686L18.2079 85.5552L15.6878 85.3546C15.0392 85.3029 14.6942 85.5376 14.6527 86.0586C14.6438 86.1703 14.6509 86.2832 14.6739 86.3974C14.692 86.5058 14.7269 86.6049 14.7786 86.6946C14.8303 86.7844 14.8993 86.8594 14.9854 86.9198C15.072 86.9748 15.1764 87.0072 15.2987 87.0169L18.0739 87.2379L18.0047 88.1071ZM19.0533 79.8758C19.4839 79.91 19.7951 80.1007 19.9868 80.4477C20.1786 80.7946 20.2448 81.3403 20.1855 82.0846C20.1585 82.4248 20.1115 82.7127 20.0446 82.9481C19.9834 83.1787 19.9042 83.3676 19.8068 83.515C19.7099 83.6571 19.5976 83.7579 19.4698 83.8172C19.342 83.8766 19.1984 83.9 19.0389 83.8873C18.8103 83.8691 18.637 83.7937 18.5192 83.6613C18.4017 83.5236 18.328 83.3411 18.2979 83.114L18.2102 83.107C18.0842 83.4127 17.859 83.5526 17.5347 83.5268C17.3221 83.5098 17.1656 83.4251 17.0654 83.2727C16.9599 83.1199 16.8912 82.9405 16.8595 82.7347L16.8276 82.7321C16.6911 82.9674 16.514 83.1432 16.296 83.2596C16.0732 83.3703 15.8209 83.4144 15.5391 83.392C15.1138 83.3581 14.7821 83.1899 14.544 82.8874C14.3064 82.5796 14.2087 82.1598 14.2511 81.6282C14.2743 81.3358 14.3368 81.0893 14.4383 80.8887L14.3267 80.8798C14.1406 80.865 14.0004 80.811 13.9062 80.7179C13.8071 80.6191 13.7649 80.4766 13.7797 80.2905L13.8305 79.6526L14.5323 79.7084L14.465 80.5538L14.6325 80.5671C14.7696 80.3907 14.9405 80.2599 15.1452 80.1745C15.3447 80.0888 15.564 80.0554 15.8033 80.0745C16.2233 80.1079 16.5521 80.2785 16.7897 80.5864C17.0221 80.8938 17.1171 81.3133 17.0748 81.8449C17.0587 82.047 17.023 82.226 16.9678 82.3822C16.9965 82.4914 17.0423 82.5887 17.1051 82.674C17.1625 82.7588 17.2444 82.8054 17.3507 82.8139C17.4624 82.8228 17.5461 82.7786 17.602 82.6814C17.6579 82.5842 17.6933 82.4426 17.7081 82.2565L17.7894 81.2357C17.83 80.7254 17.9631 80.3641 18.1886 80.152C18.4089 79.9395 18.6971 79.8474 19.0533 79.8758ZM19.0842 80.6968C18.9407 80.6854 18.8219 80.7321 18.728 80.837C18.6344 80.9365 18.5762 81.1299 18.5534 81.4169L18.4416 82.8205C18.5381 83.0208 18.6899 83.1292 18.8973 83.1457C19.0674 83.1592 19.2083 83.1036 19.3199 82.9787C19.4372 82.8489 19.5088 82.6219 19.5346 82.2976L19.5778 81.7553C19.6315 81.0801 19.467 80.7273 19.0842 80.6968ZM16.4447 81.7948C16.4651 81.5396 16.4249 81.3384 16.3243 81.1913C16.2187 81.0385 16.0463 80.9525 15.8071 80.9335L15.6476 80.9208C15.4084 80.9017 15.2272 80.9595 15.1041 81.0942C14.9762 81.2231 14.902 81.4152 14.8817 81.6703C14.8614 81.9255 14.904 82.1296 15.0095 82.2824C15.1102 82.4295 15.2801 82.5126 15.5193 82.5317L15.6788 82.5444C15.9181 82.5634 16.1017 82.5085 16.2297 82.3796C16.3527 82.2449 16.4244 82.05 16.4447 81.7948ZM18.8054 78.0495C18.7813 78.3525 18.686 78.575 18.5196 78.7169C18.3478 78.8584 18.1184 78.9177 17.8313 78.8948L15.2953 78.6929L15.2439 79.3389L14.5341 79.2824L14.5621 78.9315C14.5735 78.7879 14.5494 78.687 14.4898 78.6288C14.4307 78.5652 14.3294 78.5277 14.1858 78.5163L13.4601 78.4585L13.5223 77.677L14.6547 77.7671L14.724 76.8979L15.4337 76.9544L15.3645 77.8237L18.0919 78.0408L18.156 77.2353L18.8658 77.2918L18.8054 78.0495ZM13.0446 75.8153L13.1138 74.9461L15.5541 75.1404L15.5572 75.1005C15.3411 74.9923 15.1658 74.8419 15.0314 74.6493C14.8973 74.4514 14.843 74.1929 14.8684 73.8739C14.9023 73.4486 15.0694 73.1302 15.3698 72.9187C15.6653 72.7015 16.0709 72.6134 16.5866 72.6545L19.2183 72.864L19.1491 73.7332L16.6211 73.532C15.9778 73.4808 15.6354 73.7157 15.5939 74.2367C15.585 74.3483 15.5921 74.4612 15.6151 74.5754C15.6332 74.6839 15.6681 74.783 15.7198 74.8727C15.7715 74.9624 15.8405 75.0374 15.9266 75.0978C16.0132 75.1528 16.1149 75.185 16.2319 75.1943L19.0151 75.4159L18.9459 76.2852L13.0446 75.8153Z" fill="#121212"/>
<path d="M3.216 253.558L8 253.558L8 254.462L3.216 254.462L3.216 256.126L2.416 256.126L2.416 251.894L3.216 251.894L3.216 253.558ZM8.096 249.968C8.096 250.256 8.04533 250.52 7.944 250.76C7.84267 250.995 7.69867 251.195 7.512 251.36C7.32 251.525 7.09067 251.653 6.824 251.744C6.552 251.835 6.25067 251.88 5.92 251.88C5.58933 251.88 5.29067 251.835 5.024 251.744C4.752 251.653 4.52267 251.525 4.336 251.36C4.144 251.195 3.99733 250.995 3.896 250.76C3.79467 250.52 3.744 250.256 3.744 249.968C3.744 249.68 3.79467 249.419 3.896 249.184C3.99733 248.944 4.144 248.741 4.336 248.576C4.52267 248.411 4.752 248.283 5.024 248.192C5.29067 248.101 5.58933 248.056 5.92 248.056C6.25067 248.056 6.552 248.101 6.824 248.192C7.09067 248.283 7.32 248.411 7.512 248.576C7.69867 248.741 7.84267 248.944 7.944 249.184C8.04533 249.419 8.096 249.68 8.096 249.968ZM7.376 249.968C7.376 249.669 7.28533 249.429 7.104 249.248C6.91733 249.067 6.64 248.976 6.272 248.976L5.568 248.976C5.2 248.976 4.92533 249.067 4.744 249.248C4.55733 249.429 4.464 249.669 4.464 249.968C4.464 250.267 4.55733 250.507 4.744 250.688C4.92533 250.869 5.2 250.96 5.568 250.96L6.272 250.96C6.64 250.96 6.91733 250.869 7.104 250.688C7.28533 250.507 7.376 250.267 7.376 249.968ZM3.84 247.084L3.84 246.212L4.528 246.212L4.528 246.172C4.27733 246.082 4.08533 245.935 3.952 245.732C3.81333 245.524 3.744 245.282 3.744 245.004C3.744 244.476 3.936 244.068 4.32 243.78C4.69867 243.492 5.232 243.348 5.92 243.348C6.608 243.348 7.144 243.492 7.528 243.78C7.90667 244.068 8.096 244.476 8.096 245.004C8.096 245.282 8.02667 245.524 7.888 245.732C7.74933 245.935 7.55733 246.082 7.312 246.172L7.312 246.212L9.6 246.212L9.6 247.084L3.84 247.084ZM7.344 245.268C7.344 244.964 7.248 244.722 7.056 244.54C6.85867 244.359 6.6 244.268 6.28 244.268L5.56 244.268C5.24 244.268 4.984 244.359 4.792 244.54C4.59467 244.722 4.496 244.964 4.496 245.268C4.496 245.535 4.56267 245.759 4.696 245.94C4.824 246.122 4.99467 246.212 5.208 246.212L6.632 246.212C6.84533 246.212 7.01867 246.122 7.152 245.94C7.28 245.759 7.344 245.535 7.344 245.268ZM8 239.571C8 239.87 7.92533 240.094 7.776 240.243C7.62133 240.387 7.408 240.459 7.136 240.459L2.08 240.459L2.08 239.587L7.288 239.587L7.288 239.011L8 239.011L8 239.571ZM8.096 236.546C8.096 236.845 8.04533 237.112 7.944 237.346C7.84267 237.581 7.69867 237.781 7.512 237.946C7.32 238.112 7.09067 238.24 6.824 238.33C6.552 238.416 6.25067 238.458 5.92 238.458C5.58933 238.458 5.29067 238.416 5.024 238.33C4.752 238.24 4.52267 238.112 4.336 237.946C4.144 237.781 3.99733 237.581 3.896 237.346C3.79467 237.112 3.744 236.845 3.744 236.546C3.744 236.242 3.79733 235.976 3.904 235.746C4.01067 235.512 4.16 235.317 4.352 235.162C4.53867 235.008 4.75733 234.893 5.008 234.818C5.25867 234.738 5.528 234.698 5.816 234.698L6.144 234.698L6.144 237.554L6.28 237.554C6.6 237.554 6.864 237.461 7.072 237.274C7.27467 237.082 7.376 236.81 7.376 236.458C7.376 236.202 7.32 235.986 7.208 235.81C7.096 235.634 6.944 235.485 6.752 235.362L7.256 234.85C7.512 235.005 7.71733 235.229 7.872 235.522C8.02133 235.816 8.096 236.157 8.096 236.546ZM4.424 236.546C4.424 236.696 4.45067 236.834 4.504 236.962C4.55733 237.085 4.632 237.192 4.728 237.282C4.824 237.368 4.93867 237.434 5.072 237.482C5.20533 237.53 5.352 237.554 5.512 237.554L5.568 237.554L5.568 235.618L5.488 235.618C5.168 235.618 4.912 235.701 4.72 235.866C4.52267 236.032 4.424 236.258 4.424 236.546ZM8 233.733L3.84 233.733L3.84 232.861L4.528 232.861L4.528 232.821C4.304 232.73 4.11733 232.594 3.968 232.413C3.81867 232.226 3.744 231.973 3.744 231.653C3.744 231.226 3.88533 230.896 4.168 230.661C4.44533 230.421 4.84267 230.301 5.36 230.301L8 230.301L8 231.173L5.472 231.173C4.82133 231.173 4.496 231.434 4.496 231.957C4.496 232.069 4.512 232.181 4.544 232.293C4.57067 232.4 4.61333 232.496 4.672 232.581C4.73067 232.666 4.80533 232.736 4.896 232.789C4.98667 232.837 5.09333 232.861 5.216 232.861L8 232.861L8 233.733ZM8.392 225.444C8.824 225.444 9.14933 225.61 9.368 225.94C9.58666 226.271 9.696 226.81 9.696 227.556C9.696 227.898 9.672 228.188 9.624 228.428C9.58133 228.663 9.51733 228.858 9.432 229.012C9.34666 229.162 9.24266 229.271 9.12 229.34C8.99733 229.41 8.856 229.444 8.696 229.444C8.46667 229.444 8.288 229.383 8.16 229.26C8.032 229.132 7.944 228.956 7.896 228.732L7.808 228.732C7.70667 229.047 7.49333 229.204 7.168 229.204C6.95467 229.204 6.792 229.132 6.68 228.988C6.56267 228.844 6.48 228.671 6.432 228.468L6.4 228.468C6.28266 228.714 6.12 228.903 5.912 229.036C5.69866 229.164 5.45066 229.228 5.168 229.228C4.74133 229.228 4.39733 229.087 4.136 228.804C3.87467 228.516 3.744 228.106 3.744 227.572C3.744 227.279 3.78667 227.028 3.872 226.82L3.76 226.82C3.57333 226.82 3.42933 226.778 3.328 226.692C3.22133 226.602 3.168 226.463 3.168 226.276L3.168 225.636L3.872 225.636L3.872 226.484L4.04 226.484C4.16266 226.298 4.32266 226.154 4.52 226.052C4.712 225.951 4.928 225.9 5.168 225.9C5.58933 225.9 5.93066 226.044 6.192 226.332C6.448 226.62 6.576 227.031 6.576 227.564C6.576 227.767 6.55467 227.948 6.512 228.108C6.54933 228.215 6.60266 228.308 6.672 228.388C6.736 228.468 6.82133 228.508 6.928 228.508C7.04 228.508 7.12 228.458 7.168 228.356C7.216 228.255 7.24 228.111 7.24 227.924L7.24 226.9C7.24 226.388 7.344 226.018 7.552 225.788C7.75466 225.559 8.03466 225.444 8.392 225.444ZM8.488 226.26C8.344 226.26 8.22933 226.316 8.144 226.428C8.05866 226.535 8.016 226.732 8.016 227.02L8.016 228.428C8.128 228.62 8.288 228.716 8.496 228.716C8.66666 228.716 8.80266 228.65 8.904 228.516C9.01066 228.378 9.064 228.146 9.064 227.82L9.064 227.276C9.064 226.599 8.872 226.26 8.488 226.26ZM5.944 227.564C5.944 227.308 5.888 227.111 5.776 226.972C5.65866 226.828 5.48 226.756 5.24 226.756L5.08 226.756C4.84 226.756 4.664 226.828 4.552 226.972C4.43467 227.111 4.376 227.308 4.376 227.564C4.376 227.82 4.43467 228.02 4.552 228.164C4.664 228.303 4.84 228.372 5.08 228.372L5.24 228.372C5.48 228.372 5.65866 228.303 5.776 228.164C5.888 228.02 5.944 227.82 5.944 227.564ZM8 223.643C8 223.947 7.92266 224.177 7.768 224.331C7.608 224.486 7.384 224.563 7.096 224.563L4.552 224.563L4.552 225.211L3.84 225.211L3.84 224.859C3.84 224.715 3.808 224.617 3.744 224.563C3.68 224.505 3.576 224.475 3.432 224.475L2.704 224.475L2.704 223.691L3.84 223.691L3.84 222.819L4.552 222.819L4.552 223.691L7.288 223.691L7.288 222.883L8 222.883L8 223.643ZM2.08 221.874L2.08 221.002L4.528 221.002L4.528 220.962C4.304 220.871 4.11733 220.735 3.968 220.554C3.81866 220.367 3.744 220.114 3.744 219.794C3.744 219.367 3.88533 219.036 4.168 218.802C4.44533 218.562 4.84266 218.442 5.36 218.442L8 218.442L8 219.314L5.464 219.314C4.81866 219.314 4.496 219.575 4.496 220.098C4.496 220.21 4.512 220.322 4.544 220.434C4.57066 220.54 4.61333 220.636 4.672 220.722C4.73066 220.807 4.80533 220.876 4.896 220.93C4.98666 220.978 5.09066 221.002 5.208 221.002L8 221.002L8 221.874L2.08 221.874Z" fill="#121212"/>
<path d="M61.784 67.096C61.0533 67.096 60.48 66.8507 60.064 66.36C59.648 65.864 59.44 65.1467 59.44 64.208C59.44 63.7387 59.4933 63.3253 59.6 62.968C59.7067 62.6107 59.8613 62.3093 60.064 62.064C60.2667 61.8187 60.512 61.6347 60.8 61.512C61.0933 61.384 61.4213 61.32 61.784 61.32C62.2693 61.32 62.6747 61.4267 63 61.64C63.3307 61.8533 63.5893 62.168 63.776 62.584L63.016 63C62.92 62.7333 62.7707 62.5227 62.568 62.368C62.3707 62.208 62.1093 62.128 61.784 62.128C61.352 62.128 61.0133 62.2747 60.768 62.568C60.5227 62.8613 60.4 63.2667 60.4 63.784V64.632C60.4 65.1493 60.5227 65.5547 60.768 65.848C61.0133 66.1413 61.352 66.288 61.784 66.288C62.12 66.288 62.392 66.2027 62.6 66.032C62.8133 65.856 62.9707 65.632 63.072 65.36L63.8 65.8C63.6133 66.2053 63.352 66.5227 63.016 66.752C62.68 66.9813 62.2693 67.096 61.784 67.096ZM64.6943 61.08H65.5663V63.528H65.6063C65.697 63.304 65.833 63.1173 66.0143 62.968C66.201 62.8187 66.4543 62.744 66.7743 62.744C67.201 62.744 67.5316 62.8853 67.7663 63.168C68.0063 63.4453 68.1263 63.8427 68.1263 64.36V67H67.2543V64.464C67.2543 63.8187 66.993 63.496 66.4703 63.496C66.3583 63.496 66.2463 63.512 66.1343 63.544C66.0276 63.5707 65.9316 63.6133 65.8463 63.672C65.761 63.7307 65.6916 63.8053 65.6383 63.896C65.5903 63.9867 65.5663 64.0907 65.5663 64.208V67H64.6943V61.08ZM70.9669 67.096C70.6683 67.096 70.4016 67.0453 70.1669 66.944C69.9323 66.8427 69.7323 66.6987 69.5669 66.512C69.4016 66.32 69.2736 66.0907 69.1829 65.824C69.0976 65.552 69.0549 65.2507 69.0549 64.92C69.0549 64.5893 69.0976 64.2907 69.1829 64.024C69.2736 63.752 69.4016 63.5227 69.5669 63.336C69.7323 63.144 69.9323 62.9973 70.1669 62.896C70.4016 62.7947 70.6683 62.744 70.9669 62.744C71.2709 62.744 71.5376 62.7973 71.7669 62.904C72.0016 63.0107 72.1963 63.16 72.3509 63.352C72.5056 63.5387 72.6203 63.7573 72.6949 64.008C72.7749 64.2587 72.8149 64.528 72.8149 64.816V65.144H69.9589V65.28C69.9589 65.6 70.0523 65.864 70.2389 66.072C70.4309 66.2747 70.7029 66.376 71.0549 66.376C71.3109 66.376 71.5269 66.32 71.7029 66.208C71.8789 66.096 72.0283 65.944 72.1509 65.752L72.6629 66.256C72.5083 66.512 72.2843 66.7173 71.9909 66.872C71.6976 67.0213 71.3563 67.096 70.9669 67.096ZM70.9669 63.424C70.8176 63.424 70.6789 63.4507 70.5509 63.504C70.4283 63.5573 70.3216 63.632 70.2309 63.728C70.1456 63.824 70.0789 63.9387 70.0309 64.072C69.9829 64.2053 69.9589 64.352 69.9589 64.512V64.568H71.8949V64.488C71.8949 64.168 71.8123 63.912 71.6469 63.72C71.4816 63.5227 71.2549 63.424 70.9669 63.424ZM75.1002 67.096C74.7056 67.096 74.3749 67.0267 74.1082 66.888C73.8416 66.7493 73.6096 66.5573 73.4122 66.312L73.9722 65.8C74.1269 65.9867 74.2976 66.1333 74.4842 66.24C74.6762 66.3413 74.8976 66.392 75.1482 66.392C75.4042 66.392 75.5936 66.344 75.7162 66.248C75.8442 66.1467 75.9082 66.008 75.9082 65.832C75.9082 65.6987 75.8629 65.5867 75.7722 65.496C75.6869 65.4 75.5349 65.3387 75.3162 65.312L74.9322 65.264C74.5056 65.2107 74.1696 65.088 73.9242 64.896C73.6842 64.6987 73.5642 64.408 73.5642 64.024C73.5642 63.8213 73.6016 63.6427 73.6762 63.488C73.7509 63.328 73.8549 63.1947 73.9882 63.088C74.1269 62.976 74.2896 62.8907 74.4762 62.832C74.6682 62.7733 74.8789 62.744 75.1082 62.744C75.4816 62.744 75.7856 62.8027 76.0202 62.92C76.2602 63.0373 76.4736 63.2 76.6602 63.408L76.1242 63.92C76.0176 63.792 75.8762 63.6827 75.7002 63.592C75.5296 63.496 75.3322 63.448 75.1082 63.448C74.8682 63.448 74.6896 63.496 74.5722 63.592C74.4602 63.688 74.4042 63.8133 74.4042 63.968C74.4042 64.128 74.4549 64.248 74.5562 64.328C74.6576 64.408 74.8202 64.4667 75.0442 64.504L75.4282 64.552C75.8869 64.6213 76.2202 64.7573 76.4282 64.96C76.6416 65.1573 76.7482 65.424 76.7482 65.76C76.7482 65.9627 76.7082 66.1467 76.6282 66.312C76.5536 66.472 76.4442 66.6107 76.3002 66.728C76.1562 66.8453 75.9829 66.936 75.7802 67C75.5776 67.064 75.3509 67.096 75.1002 67.096ZM78.8307 67C78.5267 67 78.2974 66.9227 78.1427 66.768C77.988 66.608 77.9107 66.384 77.9107 66.096V63.552H77.2627V62.84H77.6147C77.7587 62.84 77.8574 62.808 77.9107 62.744C77.9694 62.68 77.9987 62.576 77.9987 62.432V61.704H78.7827V62.84H79.6547V63.552H78.7827V66.288H79.5907V67H78.8307Z" fill="#121212"/>
<path d="M62.192 25.912L61.576 24.728H61.552V29H60.688V23.416H61.696L63.52 26.504L64.136 27.688H64.16V23.416H65.024V29H64.016L62.192 25.912ZM67.9669 29.096C67.6683 29.096 67.4016 29.0453 67.1669 28.944C66.9323 28.8427 66.7323 28.6987 66.5669 28.512C66.4016 28.32 66.2736 28.0907 66.1829 27.824C66.0976 27.552 66.0549 27.2507 66.0549 26.92C66.0549 26.5893 66.0976 26.2907 66.1829 26.024C66.2736 25.752 66.4016 25.5227 66.5669 25.336C66.7323 25.144 66.9323 24.9973 67.1669 24.896C67.4016 24.7947 67.6683 24.744 67.9669 24.744C68.2709 24.744 68.5376 24.7973 68.7669 24.904C69.0016 25.0107 69.1963 25.16 69.3509 25.352C69.5056 25.5387 69.6203 25.7573 69.6949 26.008C69.7749 26.2587 69.8149 26.528 69.8149 26.816V27.144H66.9589V27.28C66.9589 27.6 67.0523 27.864 67.2389 28.072C67.4309 28.2747 67.7029 28.376 68.0549 28.376C68.3109 28.376 68.5269 28.32 68.7029 28.208C68.8789 28.096 69.0283 27.944 69.1509 27.752L69.6629 28.256C69.5083 28.512 69.2843 28.7173 68.9909 28.872C68.6976 29.0213 68.3563 29.096 67.9669 29.096ZM67.9669 25.424C67.8176 25.424 67.6789 25.4507 67.5509 25.504C67.4283 25.5573 67.3216 25.632 67.2309 25.728C67.1456 25.824 67.0789 25.9387 67.0309 26.072C66.9829 26.2053 66.9589 26.352 66.9589 26.512V26.568H68.8949V26.488C68.8949 26.168 68.8123 25.912 68.6469 25.72C68.4816 25.5227 68.2549 25.424 67.9669 25.424ZM72.3882 29.096C72.0896 29.096 71.8229 29.0453 71.5882 28.944C71.3536 28.8427 71.1562 28.6987 70.9962 28.512C70.8362 28.32 70.7136 28.0907 70.6282 27.824C70.5429 27.552 70.5002 27.2507 70.5002 26.92C70.5002 26.5893 70.5429 26.2907 70.6282 26.024C70.7136 25.752 70.8362 25.5227 70.9962 25.336C71.1562 25.144 71.3536 24.9973 71.5882 24.896C71.8229 24.7947 72.0896 24.744 72.3882 24.744C72.8042 24.744 73.1456 24.8373 73.4122 25.024C73.6789 25.2107 73.8736 25.4587 73.9962 25.768L73.2762 26.104C73.2176 25.912 73.1136 25.76 72.9642 25.648C72.8202 25.5307 72.6282 25.472 72.3882 25.472C72.0682 25.472 71.8256 25.5733 71.6602 25.776C71.5002 25.9733 71.4202 26.232 71.4202 26.552V27.296C71.4202 27.616 71.5002 27.8773 71.6602 28.08C71.8256 28.2773 72.0682 28.376 72.3882 28.376C72.6442 28.376 72.8469 28.3147 72.9962 28.192C73.1509 28.064 73.2736 27.896 73.3642 27.688L74.0282 28.04C73.8896 28.3813 73.6816 28.6427 73.4042 28.824C73.1269 29.0053 72.7882 29.096 72.3882 29.096ZM74.8584 23.08H75.7304V26.712H75.7704L76.3464 25.968L77.3464 24.84H78.3624L76.9064 26.448L78.5384 29H77.4984L76.3064 27.016L75.7304 27.64V29H74.8584V23.08Z" fill="#121212"/>
<path d="M59.512 118L58.192 112.416H59.112L59.68 115.104L60.072 116.96H60.096L60.544 115.104L61.208 112.416H62.216L62.872 115.104L63.312 116.952H63.336L63.744 115.104L64.328 112.416H65.216L63.84 118H62.824L62.112 115.112L61.696 113.416H61.68L61.256 115.112L60.528 118H59.512ZM68.9298 118C68.7005 118 68.5245 117.936 68.4018 117.808C68.2791 117.675 68.2045 117.507 68.1778 117.304H68.1378C68.0578 117.565 67.9111 117.763 67.6978 117.896C67.4845 118.029 67.2258 118.096 66.9218 118.096C66.4898 118.096 66.1565 117.984 65.9218 117.76C65.6925 117.536 65.5778 117.235 65.5778 116.856C65.5778 116.44 65.7271 116.128 66.0258 115.92C66.3298 115.712 66.7725 115.608 67.3538 115.608H68.1058V115.256C68.1058 115 68.0365 114.803 67.8978 114.664C67.7591 114.525 67.5431 114.456 67.2498 114.456C67.0045 114.456 66.8045 114.509 66.6498 114.616C66.4951 114.723 66.3645 114.859 66.2578 115.024L65.7378 114.552C65.8765 114.317 66.0711 114.125 66.3218 113.976C66.5725 113.821 66.9005 113.744 67.3058 113.744C67.8445 113.744 68.2578 113.869 68.5458 114.12C68.8338 114.371 68.9778 114.731 68.9778 115.2V117.288H69.4178V118H68.9298ZM67.1698 117.432C67.4418 117.432 67.6658 117.373 67.8418 117.256C68.0178 117.133 68.1058 116.971 68.1058 116.768V116.168H67.3698C66.7671 116.168 66.4658 116.355 66.4658 116.728V116.872C66.4658 117.059 66.5271 117.2 66.6498 117.296C66.7778 117.387 66.9511 117.432 67.1698 117.432ZM70.7124 113.096C70.5311 113.096 70.3978 113.053 70.3124 112.968C70.2324 112.883 70.1924 112.773 70.1924 112.64V112.504C70.1924 112.371 70.2324 112.261 70.3124 112.176C70.3978 112.091 70.5311 112.048 70.7124 112.048C70.8938 112.048 71.0244 112.091 71.1044 112.176C71.1844 112.261 71.2244 112.371 71.2244 112.504V112.64C71.2244 112.773 71.1844 112.883 71.1044 112.968C71.0244 113.053 70.8938 113.096 70.7124 113.096ZM70.2724 113.84H71.1444V118H70.2724V113.84ZM73.7096 118.096C73.315 118.096 72.9843 118.027 72.7176 117.888C72.451 117.749 72.219 117.557 72.0216 117.312L72.5816 116.8C72.7363 116.987 72.907 117.133 73.0936 117.24C73.2856 117.341 73.507 117.392 73.7576 117.392C74.0136 117.392 74.203 117.344 74.3256 117.248C74.4536 117.147 74.5176 117.008 74.5176 116.832C74.5176 116.699 74.4723 116.587 74.3816 116.496C74.2963 116.4 74.1443 116.339 73.9256 116.312L73.5416 116.264C73.115 116.211 72.779 116.088 72.5336 115.896C72.2936 115.699 72.1736 115.408 72.1736 115.024C72.1736 114.821 72.211 114.643 72.2856 114.488C72.3603 114.328 72.4643 114.195 72.5976 114.088C72.7363 113.976 72.899 113.891 73.0856 113.832C73.2776 113.773 73.4883 113.744 73.7176 113.744C74.091 113.744 74.395 113.803 74.6296 113.92C74.8696 114.037 75.083 114.2 75.2696 114.408L74.7336 114.92C74.627 114.792 74.4856 114.683 74.3096 114.592C74.139 114.496 73.9416 114.448 73.7176 114.448C73.4776 114.448 73.299 114.496 73.1816 114.592C73.0696 114.688 73.0136 114.813 73.0136 114.968C73.0136 115.128 73.0643 115.248 73.1656 115.328C73.267 115.408 73.4296 115.467 73.6536 115.504L74.0376 115.552C74.4963 115.621 74.8296 115.757 75.0376 115.96C75.251 116.157 75.3576 116.424 75.3576 116.76C75.3576 116.963 75.3176 117.147 75.2376 117.312C75.163 117.472 75.0536 117.611 74.9096 117.728C74.7656 117.845 74.5923 117.936 74.3896 118C74.187 118.064 73.9603 118.096 73.7096 118.096ZM77.4401 118C77.1361 118 76.9067 117.923 76.7521 117.768C76.5974 117.608 76.5201 117.384 76.5201 117.096V114.552H75.8721V113.84H76.2241C76.3681 113.84 76.4667 113.808 76.5201 113.744C76.5787 113.68 76.6081 113.576 76.6081 113.432V112.704H77.3921V113.84H78.2641V114.552H77.3921V117.288H78.2001V118H77.4401Z" fill="#121212"/>
<path d="M67.12 155.568H64.592V158H63.688V152.416H64.592V154.768H67.12V152.416H68.024V158H67.12V155.568ZM69.7749 153.096C69.5936 153.096 69.4603 153.053 69.3749 152.968C69.2949 152.883 69.2549 152.773 69.2549 152.64V152.504C69.2549 152.371 69.2949 152.261 69.3749 152.176C69.4603 152.091 69.5936 152.048 69.7749 152.048C69.9563 152.048 70.0869 152.091 70.1669 152.176C70.2469 152.261 70.2869 152.371 70.2869 152.504V152.64C70.2869 152.773 70.2469 152.883 70.1669 152.968C70.0869 153.053 69.9563 153.096 69.7749 153.096ZM69.3349 153.84H70.2069V158H69.3349V153.84ZM71.4521 153.84H72.3241V154.528H72.3641C72.4548 154.277 72.6015 154.085 72.8041 153.952C73.0121 153.813 73.2548 153.744 73.5321 153.744C74.0601 153.744 74.4681 153.936 74.7561 154.32C75.0441 154.699 75.1881 155.232 75.1881 155.92C75.1881 156.608 75.0441 157.144 74.7561 157.528C74.4681 157.907 74.0601 158.096 73.5321 158.096C73.2548 158.096 73.0121 158.027 72.8041 157.888C72.6015 157.749 72.4548 157.557 72.3641 157.312H72.3241V159.6H71.4521V153.84ZM73.2681 157.344C73.5721 157.344 73.8148 157.248 73.9961 157.056C74.1775 156.859 74.2681 156.6 74.2681 156.28V155.56C74.2681 155.24 74.1775 154.984 73.9961 154.792C73.8148 154.595 73.5721 154.496 73.2681 154.496C73.0015 154.496 72.7775 154.563 72.5961 154.696C72.4148 154.824 72.3241 154.995 72.3241 155.208V156.632C72.3241 156.845 72.4148 157.019 72.5961 157.152C72.7775 157.28 73.0015 157.344 73.2681 157.344Z" fill="#121212"/>
<path d="M109.36 142.096C108.891 142.096 108.491 142.011 108.16 141.84C107.835 141.669 107.555 141.44 107.32 141.152L107.944 140.568C108.141 140.808 108.357 140.989 108.592 141.112C108.832 141.235 109.104 141.296 109.408 141.296C109.765 141.296 110.035 141.216 110.216 141.056C110.397 140.896 110.488 140.68 110.488 140.408C110.488 140.189 110.424 140.016 110.296 139.888C110.168 139.76 109.941 139.664 109.616 139.6L109.12 139.512C108.576 139.411 108.168 139.232 107.896 138.976C107.624 138.72 107.488 138.368 107.488 137.92C107.488 137.675 107.533 137.453 107.624 137.256C107.72 137.053 107.851 136.885 108.016 136.752C108.187 136.613 108.392 136.507 108.632 136.432C108.872 136.357 109.141 136.32 109.44 136.32C109.861 136.32 110.227 136.395 110.536 136.544C110.845 136.688 111.109 136.899 111.328 137.176L110.696 137.736C110.552 137.549 110.376 137.4 110.168 137.288C109.96 137.176 109.701 137.12 109.392 137.12C109.072 137.12 108.824 137.184 108.648 137.312C108.472 137.44 108.384 137.627 108.384 137.872C108.384 138.107 108.456 138.283 108.6 138.4C108.744 138.512 108.968 138.597 109.272 138.656L109.768 138.76C110.328 138.867 110.736 139.048 110.992 139.304C111.253 139.56 111.384 139.912 111.384 140.36C111.384 140.621 111.339 140.859 111.248 141.072C111.157 141.285 111.024 141.469 110.848 141.624C110.677 141.773 110.467 141.891 110.216 141.976C109.965 142.056 109.68 142.096 109.36 142.096ZM113.293 142C112.995 142 112.771 141.925 112.621 141.776C112.477 141.621 112.405 141.408 112.405 141.136V136.08H113.277V141.288H113.853V142H113.293ZM116.318 142.096C116.02 142.096 115.753 142.045 115.518 141.944C115.284 141.843 115.084 141.699 114.918 141.512C114.753 141.32 114.625 141.091 114.534 140.824C114.449 140.552 114.406 140.251 114.406 139.92C114.406 139.589 114.449 139.291 114.534 139.024C114.625 138.752 114.753 138.523 114.918 138.336C115.084 138.144 115.284 137.997 115.518 137.896C115.753 137.795 116.02 137.744 116.318 137.744C116.622 137.744 116.889 137.797 117.118 137.904C117.353 138.011 117.548 138.16 117.702 138.352C117.857 138.539 117.972 138.757 118.046 139.008C118.126 139.259 118.166 139.528 118.166 139.816V140.144H115.31V140.28C115.31 140.6 115.404 140.864 115.59 141.072C115.782 141.275 116.054 141.376 116.406 141.376C116.662 141.376 116.878 141.32 117.054 141.208C117.23 141.096 117.38 140.944 117.502 140.752L118.014 141.256C117.86 141.512 117.636 141.717 117.342 141.872C117.049 142.021 116.708 142.096 116.318 142.096ZM116.318 138.424C116.169 138.424 116.03 138.451 115.902 138.504C115.78 138.557 115.673 138.632 115.582 138.728C115.497 138.824 115.43 138.939 115.382 139.072C115.334 139.205 115.31 139.352 115.31 139.512V139.568H117.246V139.488C117.246 139.168 117.164 138.912 116.998 138.72C116.833 138.523 116.606 138.424 116.318 138.424ZM120.764 142.096C120.465 142.096 120.198 142.045 119.964 141.944C119.729 141.843 119.529 141.699 119.364 141.512C119.198 141.32 119.07 141.091 118.98 140.824C118.894 140.552 118.852 140.251 118.852 139.92C118.852 139.589 118.894 139.291 118.98 139.024C119.07 138.752 119.198 138.523 119.364 138.336C119.529 138.144 119.729 137.997 119.964 137.896C120.198 137.795 120.465 137.744 120.764 137.744C121.068 137.744 121.334 137.797 121.564 137.904C121.798 138.011 121.993 138.16 122.148 138.352C122.302 138.539 122.417 138.757 122.492 139.008C122.572 139.259 122.612 139.528 122.612 139.816V140.144H119.756V140.28C119.756 140.6 119.849 140.864 120.036 141.072C120.228 141.275 120.5 141.376 120.852 141.376C121.108 141.376 121.324 141.32 121.5 141.208C121.676 141.096 121.825 140.944 121.948 140.752L122.46 141.256C122.305 141.512 122.081 141.717 121.788 141.872C121.494 142.021 121.153 142.096 120.764 142.096ZM120.764 138.424C120.614 138.424 120.476 138.451 120.348 138.504C120.225 138.557 120.118 138.632 120.028 138.728C119.942 138.824 119.876 138.939 119.828 139.072C119.78 139.205 119.756 139.352 119.756 139.512V139.568H121.692V139.488C121.692 139.168 121.609 138.912 121.444 138.72C121.278 138.523 121.052 138.424 120.764 138.424ZM124.411 142L122.995 137.84H123.859L124.491 139.736L124.915 141.192H124.963L125.387 139.736L126.035 137.84H126.867L125.435 142H124.411ZM129.17 142.096C128.871 142.096 128.605 142.045 128.37 141.944C128.135 141.843 127.935 141.699 127.77 141.512C127.605 141.32 127.477 141.091 127.386 140.824C127.301 140.552 127.258 140.251 127.258 139.92C127.258 139.589 127.301 139.291 127.386 139.024C127.477 138.752 127.605 138.523 127.77 138.336C127.935 138.144 128.135 137.997 128.37 137.896C128.605 137.795 128.871 137.744 129.17 137.744C129.474 137.744 129.741 137.797 129.97 137.904C130.205 138.011 130.399 138.16 130.554 138.352C130.709 138.539 130.823 138.757 130.898 139.008C130.978 139.259 131.018 139.528 131.018 139.816V140.144H128.162V140.28C128.162 140.6 128.255 140.864 128.442 141.072C128.634 141.275 128.906 141.376 129.258 141.376C129.514 141.376 129.73 141.32 129.906 141.208C130.082 141.096 130.231 140.944 130.354 140.752L130.866 141.256C130.711 141.512 130.487 141.717 130.194 141.872C129.901 142.021 129.559 142.096 129.17 142.096ZM129.17 138.424C129.021 138.424 128.882 138.451 128.754 138.504C128.631 138.557 128.525 138.632 128.434 138.728C128.349 138.824 128.282 138.939 128.234 139.072C128.186 139.205 128.162 139.352 128.162 139.512V139.568H130.098V139.488C130.098 139.168 130.015 138.912 129.85 138.72C129.685 138.523 129.458 138.424 129.17 138.424ZM133.874 142V137.84H134.746V138.64H134.786C134.845 138.427 134.967 138.24 135.154 138.08C135.341 137.92 135.599 137.84 135.93 137.84H136.162V138.68H135.818C135.471 138.68 135.205 138.736 135.018 138.848C134.837 138.96 134.746 139.125 134.746 139.344V142H133.874ZM138.529 142.096C138.241 142.096 137.977 142.045 137.737 141.944C137.503 141.843 137.303 141.699 137.137 141.512C136.972 141.32 136.844 141.091 136.753 140.824C136.663 140.552 136.617 140.251 136.617 139.92C136.617 139.589 136.663 139.291 136.753 139.024C136.844 138.752 136.972 138.523 137.137 138.336C137.303 138.144 137.503 137.997 137.737 137.896C137.977 137.795 138.241 137.744 138.529 137.744C138.817 137.744 139.079 137.795 139.313 137.896C139.553 137.997 139.756 138.144 139.921 138.336C140.087 138.523 140.215 138.752 140.305 139.024C140.396 139.291 140.441 139.589 140.441 139.92C140.441 140.251 140.396 140.552 140.305 140.824C140.215 141.091 140.087 141.32 139.921 141.512C139.756 141.699 139.553 141.843 139.313 141.944C139.079 142.045 138.817 142.096 138.529 142.096ZM138.529 141.376C138.828 141.376 139.068 141.285 139.249 141.104C139.431 140.917 139.521 140.64 139.521 140.272V139.568C139.521 139.2 139.431 138.925 139.249 138.744C139.068 138.557 138.828 138.464 138.529 138.464C138.231 138.464 137.991 138.557 137.809 138.744C137.628 138.925 137.537 139.2 137.537 139.568V140.272C137.537 140.64 137.628 140.917 137.809 141.104C137.991 141.285 138.231 141.376 138.529 141.376ZM143.933 141.312H143.901C143.864 141.413 143.813 141.512 143.749 141.608C143.69 141.704 143.613 141.789 143.517 141.864C143.426 141.933 143.314 141.989 143.181 142.032C143.053 142.075 142.904 142.096 142.733 142.096C142.301 142.096 141.965 141.957 141.725 141.68C141.49 141.403 141.373 141.005 141.373 140.488V137.84H142.245V140.376C142.245 141.021 142.512 141.344 143.045 141.344C143.157 141.344 143.266 141.331 143.373 141.304C143.48 141.272 143.573 141.227 143.653 141.168C143.738 141.109 143.805 141.035 143.853 140.944C143.906 140.853 143.933 140.747 143.933 140.624V137.84H144.805V142H143.933V141.312ZM146.054 142V137.84H146.926V138.528H146.966C147.056 138.304 147.192 138.117 147.374 137.968C147.56 137.819 147.814 137.744 148.134 137.744C148.56 137.744 148.891 137.885 149.126 138.168C149.366 138.445 149.486 138.843 149.486 139.36V142H148.614V139.472C148.614 138.821 148.352 138.496 147.83 138.496C147.718 138.496 147.606 138.512 147.494 138.544C147.387 138.571 147.291 138.613 147.206 138.672C147.12 138.731 147.051 138.805 146.998 138.896C146.95 138.987 146.926 139.093 146.926 139.216V142H146.054ZM153.31 141.312H153.27C153.18 141.557 153.03 141.749 152.822 141.888C152.62 142.027 152.38 142.096 152.102 142.096C151.574 142.096 151.166 141.907 150.878 141.528C150.59 141.144 150.446 140.608 150.446 139.92C150.446 139.232 150.59 138.699 150.878 138.32C151.166 137.936 151.574 137.744 152.102 137.744C152.38 137.744 152.62 137.813 152.822 137.952C153.03 138.085 153.18 138.277 153.27 138.528H153.31V136.08H154.182V142H153.31V141.312ZM152.366 141.344C152.633 141.344 152.857 141.28 153.038 141.152C153.22 141.019 153.31 140.845 153.31 140.632V139.208C153.31 138.995 153.22 138.824 153.038 138.696C152.857 138.563 152.633 138.496 152.366 138.496C152.062 138.496 151.82 138.595 151.638 138.792C151.457 138.984 151.366 139.24 151.366 139.56V140.28C151.366 140.6 151.457 140.859 151.638 141.056C151.82 141.248 152.062 141.344 152.366 141.344Z" fill="#121212"/>
<path d="M104.36 18.096C103.891 18.096 103.491 18.0107 103.16 17.84C102.835 17.6693 102.555 17.44 102.32 17.152L102.944 16.568C103.141 16.808 103.357 16.9893 103.592 17.112C103.832 17.2347 104.104 17.296 104.408 17.296C104.765 17.296 105.035 17.216 105.216 17.056C105.397 16.896 105.488 16.68 105.488 16.408C105.488 16.1893 105.424 16.016 105.296 15.888C105.168 15.76 104.941 15.664 104.616 15.6L104.12 15.512C103.576 15.4107 103.168 15.232 102.896 14.976C102.624 14.72 102.488 14.368 102.488 13.92C102.488 13.6747 102.533 13.4533 102.624 13.256C102.72 13.0533 102.851 12.8853 103.016 12.752C103.187 12.6133 103.392 12.5067 103.632 12.432C103.872 12.3573 104.141 12.32 104.44 12.32C104.861 12.32 105.227 12.3947 105.536 12.544C105.845 12.688 106.109 12.8987 106.328 13.176L105.696 13.736C105.552 13.5493 105.376 13.4 105.168 13.288C104.96 13.176 104.701 13.12 104.392 13.12C104.072 13.12 103.824 13.184 103.648 13.312C103.472 13.44 103.384 13.6267 103.384 13.872C103.384 14.1067 103.456 14.2827 103.6 14.4C103.744 14.512 103.968 14.5973 104.272 14.656L104.768 14.76C105.328 14.8667 105.736 15.048 105.992 15.304C106.253 15.56 106.384 15.912 106.384 16.36C106.384 16.6213 106.339 16.8587 106.248 17.072C106.157 17.2853 106.024 17.4693 105.848 17.624C105.677 17.7733 105.467 17.8907 105.216 17.976C104.965 18.056 104.68 18.096 104.36 18.096ZM107.405 12.08H108.277V14.528H108.317C108.408 14.304 108.544 14.1173 108.725 13.968C108.912 13.8187 109.165 13.744 109.485 13.744C109.912 13.744 110.243 13.8853 110.477 14.168C110.717 14.4453 110.837 14.8427 110.837 15.36V18H109.965V15.464C109.965 14.8187 109.704 14.496 109.181 14.496C109.069 14.496 108.957 14.512 108.845 14.544C108.739 14.5707 108.643 14.6133 108.557 14.672C108.472 14.7307 108.403 14.8053 108.349 14.896C108.301 14.9867 108.277 15.0907 108.277 15.208V18H107.405V12.08ZM113.678 18.096C113.39 18.096 113.126 18.0453 112.886 17.944C112.651 17.8427 112.451 17.6987 112.286 17.512C112.121 17.32 111.993 17.0907 111.902 16.824C111.811 16.552 111.766 16.2507 111.766 15.92C111.766 15.5893 111.811 15.2907 111.902 15.024C111.993 14.752 112.121 14.5227 112.286 14.336C112.451 14.144 112.651 13.9973 112.886 13.896C113.126 13.7947 113.39 13.744 113.678 13.744C113.966 13.744 114.227 13.7947 114.462 13.896C114.702 13.9973 114.905 14.144 115.07 14.336C115.235 14.5227 115.363 14.752 115.454 15.024C115.545 15.2907 115.59 15.5893 115.59 15.92C115.59 16.2507 115.545 16.552 115.454 16.824C115.363 17.0907 115.235 17.32 115.07 17.512C114.905 17.6987 114.702 17.8427 114.462 17.944C114.227 18.0453 113.966 18.096 113.678 18.096ZM113.678 17.376C113.977 17.376 114.217 17.2853 114.398 17.104C114.579 16.9173 114.67 16.64 114.67 16.272V15.568C114.67 15.2 114.579 14.9253 114.398 14.744C114.217 14.5573 113.977 14.464 113.678 14.464C113.379 14.464 113.139 14.5573 112.958 14.744C112.777 14.9253 112.686 15.2 112.686 15.568V16.272C112.686 16.64 112.777 16.9173 112.958 17.104C113.139 17.2853 113.379 17.376 113.678 17.376ZM119.081 17.312H119.049C119.012 17.4133 118.961 17.512 118.897 17.608C118.839 17.704 118.761 17.7893 118.665 17.864C118.575 17.9333 118.463 17.9893 118.329 18.032C118.201 18.0747 118.052 18.096 117.881 18.096C117.449 18.096 117.113 17.9573 116.873 17.68C116.639 17.4027 116.521 17.0053 116.521 16.488V13.84H117.393V16.376C117.393 17.0213 117.66 17.344 118.193 17.344C118.305 17.344 118.415 17.3307 118.521 17.304C118.628 17.272 118.721 17.2267 118.801 17.168C118.887 17.1093 118.953 17.0347 119.001 16.944C119.055 16.8533 119.081 16.7467 119.081 16.624V13.84H119.953V18H119.081V17.312ZM122.09 18C121.791 18 121.567 17.9253 121.418 17.776C121.274 17.6213 121.202 17.408 121.202 17.136V12.08H122.074V17.288H122.65V18H122.09ZM126.099 17.312H126.059C125.969 17.5573 125.819 17.7493 125.611 17.888C125.409 18.0267 125.169 18.096 124.891 18.096C124.363 18.096 123.955 17.9067 123.667 17.528C123.379 17.144 123.235 16.608 123.235 15.92C123.235 15.232 123.379 14.6987 123.667 14.32C123.955 13.936 124.363 13.744 124.891 13.744C125.169 13.744 125.409 13.8133 125.611 13.952C125.819 14.0853 125.969 14.2773 126.059 14.528H126.099V12.08H126.971V18H126.099V17.312ZM125.155 17.344C125.422 17.344 125.646 17.28 125.827 17.152C126.009 17.0187 126.099 16.8453 126.099 16.632V15.208C126.099 14.9947 126.009 14.824 125.827 14.696C125.646 14.5627 125.422 14.496 125.155 14.496C124.851 14.496 124.609 14.5947 124.427 14.792C124.246 14.984 124.155 15.24 124.155 15.56V16.28C124.155 16.6 124.246 16.8587 124.427 17.056C124.609 17.248 124.851 17.344 125.155 17.344ZM129.85 18.096C129.551 18.096 129.284 18.0453 129.05 17.944C128.815 17.8427 128.615 17.6987 128.45 17.512C128.284 17.32 128.156 17.0907 128.066 16.824C127.98 16.552 127.938 16.2507 127.938 15.92C127.938 15.5893 127.98 15.2907 128.066 15.024C128.156 14.752 128.284 14.5227 128.45 14.336C128.615 14.144 128.815 13.9973 129.05 13.896C129.284 13.7947 129.551 13.744 129.85 13.744C130.154 13.744 130.42 13.7973 130.65 13.904C130.884 14.0107 131.079 14.16 131.234 14.352C131.388 14.5387 131.503 14.7573 131.578 15.008C131.658 15.2587 131.698 15.528 131.698 15.816V16.144H128.842V16.28C128.842 16.6 128.935 16.864 129.122 17.072C129.314 17.2747 129.586 17.376 129.938 17.376C130.194 17.376 130.41 17.32 130.586 17.208C130.762 17.096 130.911 16.944 131.034 16.752L131.546 17.256C131.391 17.512 131.167 17.7173 130.874 17.872C130.58 18.0213 130.239 18.096 129.85 18.096ZM129.85 14.424C129.7 14.424 129.562 14.4507 129.434 14.504C129.311 14.5573 129.204 14.632 129.114 14.728C129.028 14.824 128.962 14.9387 128.914 15.072C128.866 15.2053 128.842 15.352 128.842 15.512V15.568H130.778V15.488C130.778 15.168 130.695 14.912 130.53 14.72C130.364 14.5227 130.138 14.424 129.85 14.424ZM132.663 18V13.84H133.535V14.64H133.575C133.634 14.4267 133.756 14.24 133.943 14.08C134.13 13.92 134.388 13.84 134.719 13.84H134.951V14.68H134.607C134.26 14.68 133.994 14.736 133.807 14.848C133.626 14.96 133.535 15.1253 133.535 15.344V18H132.663Z" fill="#121212"/>
</svg>
