<svg width="16" height="16" viewBox="0 0 16 16" fill="none" xmlns="http://www.w3.org/2000/svg">
<g opacity="0.3">
<path fill-rule="evenodd" clip-rule="evenodd" d="M11.8398 9.62661C11.9541 9.74989 12.0177 9.91181 12.0177 10.0799C12.0177 10.2481 11.9541 10.41 11.8398 10.5333L8.46646 13.9066C8.34184 14.0288 8.17429 14.0972 7.99979 14.0972C7.82529 14.0972 7.65774 14.0288 7.53313 13.9066L4.15979 10.5333C4.04546 10.41 3.98193 10.2481 3.98193 10.0799C3.98193 9.91181 4.04546 9.74989 4.15979 9.62661C4.28307 9.51228 4.44499 9.44875 4.61313 9.44875C4.78126 9.44875 4.94318 9.51228 5.06646 9.62661L7.99979 12.5599L10.9331 9.62661C11.0564 9.51228 11.2183 9.44875 11.3865 9.44875C11.5546 9.44875 11.7165 9.51228 11.8398 9.62661ZM8.46646 1.50661L11.8398 4.87995C11.9541 5.00322 12.0177 5.16515 12.0177 5.33328C12.0177 5.50141 11.9541 5.66333 11.8398 5.78661C11.7165 5.90094 11.5546 5.96447 11.3865 5.96447C11.2183 5.96447 11.0564 5.90094 10.9331 5.78661L7.99979 2.84661L5.06646 5.78661C4.94318 5.90094 4.78126 5.96447 4.61313 5.96447C4.44499 5.96447 4.28307 5.90094 4.15979 5.78661C4.04546 5.66333 3.98193 5.50141 3.98193 5.33328C3.98193 5.16515 4.04546 5.00322 4.15979 4.87995L7.53313 1.50661C7.65774 1.38446 7.82529 1.31604 7.99979 1.31604C8.17429 1.31604 8.34184 1.38446 8.46646 1.50661Z" fill="black"/>
</g>
</svg>
