<svg width="92" height="40" viewBox="0 0 92 40" fill="none" xmlns="http://www.w3.org/2000/svg">
<g clip-path="url(#clip0_1310_3741)">
<path d="M0.0374639 29.7385C0 29.5101 0 29.3039 0 29.0829C0 22.0589 0.0224783 15.0166 0.0224783 7.99263C0.0224783 7.90423 0.0224783 7.8453 0.0374639 7.74586C0.295964 5.46961 2.04927 3.94107 4.42074 3.94107C17.5518 3.94107 30.6829 3.94107 43.814 3.94107C44.005 3.94107 44.1249 3.94107 44.3535 3.9337C44.7993 3.9337 45.0728 3.9337 45.4249 3.9337C45.8108 3.94107 46.3803 3.9337 46.5901 3.93738C46.7586 4.48987 46.8223 5.04236 46.5114 5.57274C46.1405 5.59116 45.8145 5.54328 45.4774 5.55064C45.0765 5.55064 44.9566 5.55064 44.4509 5.55064C44.316 5.54328 44.1811 5.53591 44.05 5.53223C30.8552 5.22652 17.6567 5.53959 4.46195 5.52118C2.98962 5.52118 1.95936 6.44935 1.7121 7.52854C1.65216 7.79005 1.65965 8.05525 1.65965 8.31676C1.65965 15.2744 1.68213 22.232 1.64092 29.1897C1.63342 30.6814 2.74235 32 4.5069 31.9963C14.0677 31.9668 23.6285 31.9816 33.1892 31.9816C37.3477 31.9816 41.51 31.9816 45.6684 31.9779C45.8333 32.5157 45.7209 32.7072 45.7321 33.6022C45.5373 33.5912 45.3462 33.5691 45.1514 33.5691C31.6157 33.5691 18.0801 33.5654 4.54437 33.5691C2.61498 33.5691 1.21758 32.7735 0.382131 31.0571C0.179826 30.6446 0.0524494 29.8527 0.0412102 29.7422L0.0374639 29.7385Z" fill="#C95F84"/>
<path d="M46.3127 31.9742C60.0844 31.9742 73.8524 31.9779 87.6241 31.9742C89.2763 31.9742 90.3777 30.8766 90.3777 29.2523C90.3777 22.2615 90.3777 15.2744 90.3777 8.28361C90.3777 6.60405 89.28 5.52855 87.5679 5.52855C77.0593 5.52855 66.5544 5.52855 56.0458 5.52855C55.836 5.52855 55.63 5.54696 55.4239 5.4733C55.0343 5.33334 54.8545 5.04973 54.8695 4.6593C54.8844 4.27993 55.1991 3.98527 55.5963 3.94475C55.7012 3.9337 55.8061 3.93739 55.911 3.93739C66.4795 3.93739 77.0443 3.93739 87.6129 3.93739C89.7183 3.93739 91.3705 5.17864 91.865 7.11602C91.9624 7.50276 91.9961 7.89687 91.9961 8.29835C91.9961 15.2597 91.9961 22.2173 91.9961 29.1786C91.9961 31.7827 90.1941 33.5617 87.5454 33.5617C73.9835 33.5617 60.4216 33.5617 46.8634 33.5617C46.6686 33.5617 46.4776 33.5764 46.2827 33.5875C46.2153 33.6022 46.1479 33.5727 46.1479 33.5101C46.1591 32.9945 46.058 32.4641 46.309 31.9705L46.3127 31.9742Z" fill="#C95F84"/>
<path d="M56.2707 16.5341C56.2707 16.7256 56.2894 16.9208 56.2632 17.105C56.2407 17.2597 56.4093 17.5175 56.0609 17.5359C55.7836 17.5506 55.5101 17.5764 55.4764 17.186C55.4127 16.3867 54.847 16.0994 54.1577 15.9926C53.4047 15.8785 52.7266 16.0589 52.232 16.674C51.4078 17.6906 51.4341 19.9006 52.2695 20.9134C52.9963 21.7974 54.4012 21.9816 55.5401 21.3444C55.645 21.2855 55.7462 21.2228 55.8398 21.1529C56.0234 21.0166 56.2931 20.8471 56.4055 21.0681C56.5104 21.2634 56.5704 21.6022 56.2744 21.8195C55.0044 22.7551 53.6145 23.0755 52.0972 22.5525C50.7335 22.0847 49.9992 21.0645 49.8306 19.6943C49.6283 18.0774 50.0067 16.6483 51.4978 15.698C52.4456 15.0939 53.5021 15.0755 54.5698 15.1971C55.0119 15.2449 55.4502 15.3665 55.8923 15.4217C56.1882 15.4586 56.3081 15.5764 56.2744 15.8748C56.2519 16.0921 56.2707 16.3168 56.2707 16.5341V16.5341Z" fill="#C95F84"/>
<path d="M44.582 17.8784C45.0728 17.3112 45.5748 16.9981 46.2529 16.9797C47.433 16.9466 48.1598 17.5838 48.1823 18.744C48.201 19.6538 48.2048 20.5672 48.1823 21.477C48.171 21.86 48.2685 22.0884 48.6693 22.1657C48.8154 22.1952 49.0065 22.2357 48.9765 22.4678C48.9428 22.733 48.733 22.6335 48.5906 22.6372C47.9612 22.6482 47.3356 22.6446 46.7062 22.6372C46.5901 22.6372 46.4252 22.7109 46.3953 22.4935C46.369 22.3094 46.4515 22.2136 46.62 22.1842C47.0958 22.0994 47.1595 21.7937 47.1408 21.3775C47.1071 20.5267 47.1333 19.6722 47.1108 18.8214C47.0958 18.2541 46.8523 17.9374 46.4102 17.8121C45.8146 17.6464 44.9042 17.849 44.6494 18.1915C44.5595 18.3131 44.5858 18.4457 44.5858 18.5709C44.5858 19.5543 44.597 20.5414 44.5783 21.5249C44.5708 21.8453 44.642 22.0589 44.9866 22.1436C45.144 22.1842 45.3051 22.2541 45.2676 22.4714C45.2226 22.7293 45.0128 22.6261 44.8742 22.6298C44.2448 22.6409 43.6192 22.6372 42.9898 22.6298C42.8624 22.6298 42.7126 22.6703 42.7013 22.4567C42.6938 22.2946 42.7538 22.2063 42.9186 22.1915C43.4843 22.1326 43.5443 21.779 43.5368 21.2965C43.5105 19.547 43.5143 17.7974 43.5368 16.0479C43.5405 15.6685 43.4506 15.4291 43.0647 15.3296C42.9636 15.3039 42.8737 15.2449 42.7763 15.2081C42.6414 15.1528 42.6264 15.046 42.6339 14.9208C42.6451 14.7624 42.7688 14.7919 42.8662 14.7845C43.342 14.7551 43.8215 14.744 44.2973 14.7035C44.5558 14.6814 44.5895 14.7919 44.5895 15.0092C44.5783 15.919 44.5858 16.8324 44.5858 17.8674L44.582 17.8784Z" fill="#121212"/>
<path d="M17.8404 21.3039C17.8404 21.1123 17.8329 20.9208 17.8404 20.7293C17.8479 20.5746 17.7467 20.361 18.0651 20.3683C18.3049 20.372 18.4922 20.372 18.5297 20.6777C18.5896 21.1713 18.6458 21.6427 19.2265 21.8969C19.9346 22.2026 20.6277 22.2947 21.3507 22.0184C21.8003 21.8453 22.0738 21.5101 22.1337 21.0276C22.1899 20.5414 21.9839 20.1694 21.5905 19.8932C21.1821 19.6096 20.6989 19.488 20.238 19.326C19.8447 19.186 19.4401 19.0792 19.0729 18.8803C17.7092 18.1326 17.653 16.3941 18.9643 15.5543C19.7735 15.035 20.6726 15.0645 21.5643 15.1934C22.7818 15.3665 22.7818 15.3886 22.7818 16.593C22.7818 16.7403 22.7818 16.8877 22.7818 17.035C22.7818 17.1786 22.8156 17.3517 22.5758 17.326C22.4035 17.3075 22.1599 17.418 22.1375 17.105C22.1337 17.0313 22.0925 16.9613 22.0925 16.8913C22.085 16.2836 21.7366 15.9411 21.1634 15.8269C20.4853 15.6943 19.8072 15.6832 19.2752 16.2099C18.8144 16.663 18.983 17.477 19.5937 17.8895C19.9308 18.1179 20.328 18.2099 20.7026 18.3425C21.2196 18.5267 21.7516 18.6814 22.2274 18.9613C23.4862 19.6943 23.5648 21.4033 22.3735 22.2468C21.4856 22.8729 20.4778 22.8913 19.4513 22.7366C19.0692 22.6777 18.702 22.5451 18.3199 22.4825C17.9565 22.4236 17.8141 22.2431 17.8591 21.8858C17.8816 21.698 17.8628 21.5028 17.8628 21.3112H17.8404V21.3039Z" fill="#121212"/>
<path d="M70.5293 19.9079C70.5293 19.407 70.5031 18.9061 70.5368 18.4088C70.5631 18.0295 70.4207 17.9005 70.0573 17.9595C69.7051 18.0147 69.5778 17.8785 69.6077 17.5249C69.6265 17.3186 69.7126 17.2523 69.8962 17.2081C70.5294 17.0534 70.6118 16.9429 70.6417 16.3057C70.6592 15.8932 70.884 15.6611 71.3161 15.6096C71.883 15.5433 72.1665 15.7901 72.1665 16.3499C72.1665 16.8656 72.4325 17.1234 72.9645 17.1234C73.2193 17.1234 73.474 17.1344 73.7288 17.1234C73.9985 17.1087 74.1896 17.1234 74.1521 17.4843C74.1221 17.7643 74.1521 18.0037 73.7325 17.9668C73.3167 17.93 72.8971 17.9668 72.4775 17.9558C72.2527 17.9484 72.1628 18.0074 72.1665 18.2468C72.1778 19.1418 72.1665 20.0405 72.174 20.9355C72.1778 21.3812 72.5674 21.7422 73.0919 21.779C73.3429 21.7974 73.5976 21.768 73.8524 21.7606C73.961 21.7606 74.1146 21.6685 74.1484 21.8453C74.1783 21.9926 74.212 22.1547 74.0435 22.2799C73.3429 22.7993 71.7919 22.8692 71.0426 22.4052C70.7167 22.2026 70.5294 21.93 70.5368 21.5359C70.5481 20.9908 70.5368 20.4494 70.5368 19.9042L70.5293 19.9079Z" fill="#C95F84"/>
<path d="M66.3597 18.1805C66.6257 17.8785 66.8093 17.6501 67.0153 17.4438C67.3075 17.1455 67.6747 16.9982 68.098 16.9834C68.9335 16.954 69.1096 17.1123 69.1096 17.9263V18.1915C69.1096 18.9724 69.1096 18.965 68.3303 18.9503C68.1243 18.9503 68.0006 18.8987 67.9294 18.6961C67.8021 18.3315 67.5173 18.21 67.1464 18.2836C66.7081 18.372 66.4309 18.6667 66.4309 19.0497C66.4309 19.8453 66.4496 20.6372 66.4234 21.4328C66.4122 21.8011 66.5545 21.9779 66.8992 22.0479C67.0153 22.07 67.1277 22.1216 67.2439 22.1437C67.4499 22.1805 67.5098 22.2984 67.4911 22.4899C67.4686 22.7035 67.3113 22.6483 67.1877 22.6483C66.2136 22.6519 65.2433 22.6483 64.2692 22.6483C64.1418 22.6483 63.9845 22.6814 63.9733 22.4751C63.9658 22.3205 63.9733 22.1694 64.1681 22.1363C64.79 22.0258 64.8312 21.6059 64.8087 21.0902C64.7712 20.2542 64.7825 19.4144 64.8087 18.5746C64.8199 18.221 64.6926 18.0221 64.3629 17.919C64.2355 17.8785 64.1119 17.8232 63.9957 17.7606C63.8609 17.6906 63.9133 17.5543 63.9096 17.4438C63.9058 17.2965 64.0182 17.2965 64.1231 17.2855C64.79 17.2081 65.4568 17.1271 66.1237 17.0424C66.3073 17.0166 66.3635 17.0902 66.3597 17.256C66.3522 17.5322 66.3597 17.8085 66.3597 18.1842V18.1805Z" fill="#C95F84"/>
<path d="M46.3129 31.9742C46.3129 32.512 46.2792 32.6298 46.2829 33.5912C46.2267 34.9245 46.1593 36.2578 46.1256 37.5912C46.0881 38.3904 46.0394 38.9724 45.942 40.0037C45.8708 37.8674 45.7959 35.7348 45.7247 33.5985C45.706 33.0718 45.6835 32.5156 45.661 31.9742C45.6236 30.6225 45.5898 29.2744 45.5449 27.9226C45.5112 26.9098 45.4475 25.8969 45.44 24.884C45.4362 24.512 45.2602 24.4641 44.9529 24.4346C43.9339 24.3352 42.9187 24.2099 41.9109 24.0295H50.033C49.5086 24.1694 49.0328 24.1768 48.5607 24.2505C47.9725 24.3462 47.3769 24.3867 46.7812 24.4309C46.6051 24.4457 46.5601 24.5046 46.5564 24.6667C46.4777 27.105 46.3916 29.5396 46.3091 31.9779L46.3129 31.9742Z" fill="#121212"/>
<path d="M33.2754 19.8195C33.2754 19.2449 33.2567 18.6703 33.2829 18.0994C33.2979 17.7827 33.1967 17.6722 32.8858 17.7238C32.8146 17.7348 32.7359 17.7238 32.661 17.7238C32.5186 17.7201 32.3538 17.7716 32.365 17.5249C32.3725 17.3407 32.3988 17.2376 32.6198 17.1934C33.2567 17.0645 33.3354 16.9613 33.3803 16.3131C33.429 15.6354 33.4328 15.6464 34.0659 15.5433C34.2907 15.5064 34.3207 15.5838 34.3169 15.768C34.3094 16.1068 34.3319 16.4457 34.3094 16.7845C34.2944 17.046 34.3619 17.1529 34.6503 17.1344C35.0962 17.1087 35.5495 17.1344 35.9953 17.1271C36.1789 17.1271 36.325 17.1308 36.2838 17.3849C36.2538 17.5764 36.2763 17.7532 35.9728 17.7348C35.527 17.7053 35.0737 17.7422 34.6279 17.7201C34.3656 17.709 34.3019 17.7937 34.3057 18.0405C34.3207 19.0276 34.3094 20.011 34.3132 20.9982C34.3132 21.6317 34.5642 21.8969 35.2048 21.9632C35.4783 21.9926 35.7405 21.9263 35.999 21.8563C36.1039 21.8269 36.2426 21.709 36.3025 21.8711C36.3475 21.9926 36.3699 22.1436 36.2201 22.2689C35.6694 22.7366 34.4256 22.8619 33.7999 22.4899C33.459 22.2873 33.2604 22 33.2679 21.5838C33.2792 20.9945 33.2679 20.4052 33.2679 19.8195H33.2754Z" fill="#121212"/>
<path d="M24.9996 19.8269C24.9996 19.2523 24.9809 18.6777 25.0071 18.1068C25.0221 17.7937 24.9247 17.6759 24.61 17.7238C24.5238 17.7385 24.4302 17.7238 24.3402 17.7238C24.1979 17.7274 24.0705 17.7274 24.0817 17.5285C24.0892 17.3775 24.0817 17.256 24.2878 17.2007C25.0596 16.9871 25.0708 16.965 25.1083 16.14C25.1195 15.8895 25.0895 15.6501 25.4679 15.6022C26.0224 15.5322 26.0186 15.5065 26.0186 16.081C26.0186 16.7809 26.372 17.1308 27.0789 17.1308C27.2587 17.1308 27.4385 17.1271 27.6183 17.1308C27.7982 17.1344 28.0042 17.0571 28.0042 17.3886C28.0042 17.7017 27.8656 17.7422 27.6034 17.7311C27.2137 17.7127 26.8241 17.7495 26.4382 17.7201C26.1123 17.698 25.9999 17.7753 26.0111 18.1216C26.0374 19.0755 26.0186 20.0332 26.0224 20.9871C26.0224 21.6169 26.2734 21.8895 26.914 21.9595C27.1875 21.989 27.4498 21.9263 27.7083 21.86C27.8169 21.8306 27.948 21.7127 28.0192 21.8637C28.0754 21.9853 28.0866 22.14 27.948 22.2652C27.4123 22.7477 26.1048 22.8656 25.4904 22.4715C25.1719 22.2652 24.9921 21.9853 24.9996 21.5912C25.0146 21.0018 24.9996 20.4162 24.9996 19.8269V19.8269Z" fill="#121212"/>
<path d="M38.2281 19.6906C38.2094 19.9853 38.2281 20.2762 38.303 20.5635C38.5765 21.698 39.5881 22.2505 40.7007 21.8527C40.963 21.7569 41.1953 21.5875 41.45 21.4659C41.5811 21.4033 41.7235 21.1492 41.8434 21.3296C41.9445 21.4807 41.9783 21.768 41.7685 21.9337C40.9368 22.5893 40.0151 22.954 38.9399 22.6556C37.9734 22.3867 37.4039 21.7201 37.1941 20.7735C36.9356 19.5985 37.1754 18.5414 38.1232 17.7311C39.0673 16.9245 40.1463 16.7956 41.3039 17.2265C41.6149 17.3407 41.8284 18.1215 41.6223 18.3794C41.5287 18.4972 41.4088 18.4309 41.3076 18.3683C41.0641 18.2247 40.8319 18.0626 40.5808 17.9374C39.337 17.3223 38.3705 17.849 38.2356 19.2081C38.2206 19.3665 38.2356 19.5322 38.2356 19.6943L38.2281 19.6906Z" fill="#121212"/>
<path d="M30.769 19.5433C30.769 20.2026 30.7952 20.8656 30.7577 21.5249C30.7353 21.9227 30.8964 22.0884 31.2635 22.14C31.3946 22.1584 31.5258 22.1989 31.6531 22.2394C31.7917 22.2836 31.7505 22.4015 31.7543 22.4972C31.7543 22.6114 31.6756 22.6409 31.5782 22.6409C30.6828 22.6409 29.7874 22.6409 28.8883 22.6409C28.7871 22.6409 28.7197 22.5967 28.716 22.4862C28.716 22.3978 28.7085 22.3057 28.8021 22.2541C28.8396 22.2357 28.8883 22.2357 28.9295 22.221C29.4615 22.0344 29.7275 21.6685 29.7275 21.1234C29.7275 20.2873 29.7013 19.4475 29.7387 18.6114C29.7612 18.1584 29.5964 17.9227 29.1618 17.8453C29.0906 17.8306 29.0194 17.8085 28.9482 17.7827C28.8134 17.7385 28.7085 17.6759 28.7272 17.5028C28.7459 17.3444 28.8546 17.3186 28.9745 17.3002C29.4765 17.2339 29.9822 17.1786 30.4805 17.1013C30.739 17.0608 30.7727 17.1713 30.769 17.3849C30.7577 18.1031 30.7652 18.825 30.7652 19.5433H30.769Z" fill="#121212"/>
<path d="M30.1623 14.7035C30.6306 14.6998 30.9265 14.9282 30.9415 15.3112C30.9602 15.7164 30.6118 16.0479 30.1623 16.0442C29.7352 16.0442 29.4205 15.768 29.4092 15.3923C29.398 14.9834 29.6977 14.7072 30.1585 14.7035H30.1623Z" fill="#121212"/>
<path d="M63.5575 21.9116C63.5238 21.6943 63.3514 21.8085 63.239 21.8269C62.6509 21.9226 62.486 21.7827 62.4823 21.186C62.4823 20.3462 62.4935 19.5101 62.4823 18.6703C62.471 17.8158 62.0627 17.3112 61.2122 17.0866C60.3656 16.8619 59.5189 16.9466 58.6834 17.1344C57.7019 17.3517 57.7056 17.3665 57.7731 18.361C57.7993 18.7366 57.9341 18.8029 58.2751 18.5967C58.6422 18.3757 58.9906 18.1105 59.3728 17.919C60.3131 17.4438 60.8226 17.7753 60.8601 18.8029C60.8751 19.2081 60.7589 19.2854 60.3693 19.2376C59.5264 19.1344 58.7284 19.3002 58.0278 19.7937C57.3872 20.2431 57.1511 21.0129 57.4097 21.709C57.6682 22.3941 58.3163 22.7919 59.1068 22.7477C59.8298 22.7072 60.4292 22.4236 60.9125 21.7606C60.9537 22.2468 61.1411 22.5267 61.5232 22.6519C62.2013 22.8766 62.8157 22.6777 63.4189 22.3831C63.6287 22.2799 63.5837 22.081 63.5575 21.9153V21.9116ZM60.0771 21.7643C59.6238 21.8969 59.2079 21.6796 59.073 21.3186C58.9082 20.8803 59.0656 20.3904 59.4552 20.1584C59.8261 19.9374 60.2457 19.9226 60.6653 19.9042C60.8039 19.8969 60.8488 19.9668 60.8488 20.0921C60.8488 20.2836 60.8488 20.4751 60.8488 20.663C60.9238 21.5028 60.7065 21.5838 60.0808 21.7643H60.0771Z" fill="#C95F84"/>
<path d="M44.5745 13.3223C43.7728 13.3923 43.3869 13.4107 42.1881 13.5948C42.1993 13.5948 42.1281 13.6059 42.0981 13.6206H49.6696C49.6359 13.5985 49.5722 13.5801 49.5272 13.5764C48.8341 13.488 48.1448 13.3923 47.448 13.326C47.2269 13.3039 47.1782 13.2376 47.1895 13.0387C47.2269 12.4383 47.2494 11.8379 47.2794 11.2412C47.3731 9.34069 47.463 7.44014 47.5566 5.5359C47.8001 5.0092 47.6465 4.4604 47.639 3.92633C47.6203 2.96869 47.5866 2.01841 47.2007 1.12338C46.9647 0.574579 46.6612 -0.00737356 45.9757 -7.08044e-06C45.2901 0.0073594 45.0016 0.592995 44.7618 1.1418C44.3759 2.02209 44.3722 3.00552 44.331 3.92633C44.331 3.92633 44.5258 3.94843 45.3575 3.92633C45.335 3.51749 45.3687 3.13075 45.395 2.72559C45.4249 2.2394 45.5411 1.33701 45.9944 1.31859C46.2716 1.33701 46.3803 2.18784 46.4627 2.77716C46.5151 3.14916 46.5451 3.33333 46.5713 3.93369C46.5863 4.46776 46.5863 4.95395 46.5039 5.52485C46.4177 6.08102 46.3503 7.09392 46.0094 7.06445C45.867 7.04972 45.7396 6.64456 45.6797 6.42357C45.601 6.13259 45.571 6.01104 45.4774 5.54327C45.1365 5.54327 44.7468 5.54327 44.4022 5.54327C44.4808 7.27439 44.6045 9.0092 44.6831 10.7403C44.7169 11.5028 44.7468 12.2652 44.7768 13.0313C44.7843 13.1749 44.8143 13.3039 44.5745 13.326V13.3223Z" fill="#121212"/>
<path d="M47.5603 5.53591C47.6015 4.9871 47.6315 4.45672 47.6427 3.92633C48.8828 3.93001 50.1191 3.9337 51.3591 3.93738C51.9923 3.93738 52.3407 4.20994 52.3557 4.69613C52.3707 5.2081 51.9998 5.52117 51.3704 5.52486C50.1003 5.53222 48.8341 5.53222 47.564 5.53222L47.5603 5.53591Z" fill="#C95F84"/>
</g>
<defs>
<clipPath id="clip0_1310_3741">
<rect width="92" height="40" fill="white"/>
</clipPath>
</defs>
</svg>
