<svg width="32" height="32" viewBox="0 0 32 32" fill="none" xmlns="http://www.w3.org/2000/svg">
<path d="M18.6663 6.66691C18.9778 6.6663 19.2797 6.7748 19.5196 6.97357C19.6546 7.0855 19.7662 7.22297 19.848 7.3781C19.9298 7.53323 19.9802 7.70297 19.9963 7.87761C20.0124 8.05225 19.9939 8.22834 19.9418 8.39581C19.8898 8.56329 19.8052 8.71884 19.6929 8.85357L13.7196 16.0002L19.4796 23.1602C19.5904 23.2966 19.6731 23.4536 19.723 23.622C19.7729 23.7905 19.789 23.9671 19.7704 24.1418C19.7518 24.3165 19.6989 24.4858 19.6147 24.64C19.5304 24.7942 19.4166 24.9302 19.2796 25.0402C19.1417 25.1616 18.9801 25.2532 18.8051 25.3092C18.6301 25.3652 18.4454 25.3844 18.2626 25.3656C18.0798 25.3468 17.9028 25.2904 17.7429 25.2C17.5829 25.1096 17.4433 24.9871 17.3329 24.8402L10.8929 16.8402C10.6968 16.6017 10.5896 16.3024 10.5896 15.9936C10.5896 15.6847 10.6968 15.3855 10.8929 15.1469L17.5596 7.14691C17.6934 6.98555 17.8633 6.858 18.0555 6.7746C18.2478 6.6912 18.4571 6.6543 18.6663 6.66691Z" fill="white"/>
</svg>
