<svg width="124" height="194" viewBox="0 0 124 194" fill="none" xmlns="http://www.w3.org/2000/svg">
<g style="mix-blend-mode:multiply">
<path d="M98.9743 192.035C98.8113 194.353 76.5213 194.666 49.1931 192.731C21.8585 190.801 -0.162031 187.349 0.00089833 185.025C0.163828 182.707 22.4538 182.394 49.7821 184.33C77.1104 186.266 99.1372 189.717 98.968 192.035H98.9743Z" fill="#E8E5E5"/>
</g>
<path d="M123 103.499L101.374 101.808L81.3404 162.26L15.8177 157.129L4.64453 110.058L96.4427 116.604" stroke="#C4C4C4" stroke-width="3" stroke-linejoin="round"/>
<path d="M81.3397 162.26L82.0917 162.317C85.814 162.611 88.753 163.914 88.0072 173.442C87.7127 177.163 84.4604 179.951 80.7318 179.657L15.748 174.564" stroke="#C4C4C4" stroke-width="3" stroke-linejoin="round"/>
<path d="M68.5702 184.637C68.3008 188.064 70.8638 191.064 74.2916 191.334C77.7193 191.603 80.721 189.041 80.9905 185.614C81.2599 182.187 78.6969 179.187 75.2691 178.917C71.8413 178.648 68.8397 181.21 68.5702 184.637Z" fill="#C4C4C4"/>
<path d="M18.2558 180.69C17.9863 184.117 20.5493 187.117 23.9771 187.387C27.4049 187.656 30.4065 185.094 30.676 181.667C30.9455 178.241 28.3825 175.24 24.9547 174.971C21.5269 174.701 18.5252 177.263 18.2558 180.69Z" fill="#C4C4C4"/>
<path d="M77.2485 115.533L71.7402 161.076" stroke="#C4C4C4" stroke-width="3" stroke-linejoin="round"/>
<path d="M63.8635 114.481L59.3203 160.105" stroke="#C4C4C4" stroke-width="3" stroke-linejoin="round"/>
<path d="M50.4848 113.435L46.9004 159.134" stroke="#C4C4C4" stroke-width="3" stroke-linejoin="round"/>
<path d="M37.0999 112.389L34.4805 158.157" stroke="#C4C4C4" stroke-width="3" stroke-linejoin="round"/>
<path d="M22.7557 111.261L22.0664 157.186" stroke="#C4C4C4" stroke-width="3" stroke-linejoin="round"/>
<path d="M91.4985 130.217L7.89062 123.665" stroke="#C4C4C4" stroke-width="3" stroke-linejoin="round"/>
<path d="M85.5462 147.087L12.748 141.38" stroke="#C4C4C4" stroke-width="3" stroke-linejoin="round"/>
<path d="M78.0872 25.9917C86.3799 34.1792 112.843 49.8902 54.5185 57.1925C18.1896 61.741 31.0074 85.738 56.4826 78.4357C99.7495 70.4695 101.059 93.2062 73.5045 95.0319C43.4465 97.0234 12.0215 107.645 56.4826 110.964" stroke="#C4C4C4" stroke-width="2" stroke-dasharray="4 4"/>
<g clip-path="url(#clip0_1897_10140)">
<path d="M71.625 9.33761C72.5192 9.22761 73.4206 9.47617 74.132 10.0289C74.8434 10.5816 75.3068 11.3936 75.4209 12.287C75.5309 13.181 75.2823 14.0821 74.7294 14.7933C74.1765 15.5044 73.3643 15.9677 72.4705 16.0817L71.7701 16.0244C75.039 18.5644 74.2937 20.8498 74.1701 22.1144C73.065 22.4302 70.979 23.8601 67.6743 21.2924L67.9027 21.9568C68.0127 22.8508 67.7641 23.7519 67.2112 24.4631C66.6583 25.1742 65.8461 25.6375 64.9524 25.7515C64.0581 25.8615 63.1567 25.613 62.4453 25.0602C61.7339 24.5075 61.2705 23.6956 61.1564 22.8021C61.1564 22.8021 61.2661 21.4264 61.4531 20.0249C59.7788 19.9886 58.1606 19.4143 56.8381 18.387C56.5344 18.151 56.2605 17.8952 56.0005 17.6216C57.7282 18.6035 59.7635 18.8955 61.6977 18.4389C61.8502 17.5978 62.2406 16.2111 62.5212 15.6844L62.4032 15.8362C61.6396 16.8183 60.2109 16.9973 59.2285 16.2339C58.246 15.4706 58.0669 14.0424 58.8305 13.0602L58.384 12.7133C58.1339 12.5189 58.0901 12.1698 58.2845 11.9198C58.4789 11.6698 58.8281 11.6261 59.0782 11.8204L59.5247 12.1674L60.9131 10.3816L60.4666 10.0346C60.2165 9.84033 60.1727 9.49122 60.3671 9.24122C60.5615 8.99121 60.9107 8.94745 61.1608 9.14177L61.6073 9.48876C62.371 8.5066 63.7996 8.32759 64.7821 9.09096C65.7645 9.85434 65.9436 11.2825 65.18 12.2647L65.062 12.4164C65.4964 12.0235 66.8425 11.2505 67.5359 10.9299C67.5011 8.94347 66.7157 7.04381 65.3375 5.61246C65.6669 5.79682 65.9825 5.99905 66.2862 6.235C67.6617 7.30373 68.5759 8.74454 69.013 10.3015C70.3254 9.77445 71.625 9.33761 71.625 9.33761ZM61.8571 14.6957C62.2042 14.2493 62.1494 13.4906 61.6582 13.1089C61.1669 12.7272 60.4526 12.8167 60.0708 13.3078C59.689 13.7989 59.7785 14.5129 60.2698 14.8946C60.761 15.2763 61.4753 15.1868 61.8571 14.6957ZM62.1534 10.6292C61.7716 11.1202 61.8611 11.8343 62.3524 12.216C62.8436 12.5977 63.5579 12.5082 63.9397 12.0171C64.3215 11.526 64.232 10.812 63.7408 10.4303C63.2495 10.0486 62.5352 10.1381 62.1534 10.6292ZM65.6746 16.6593C65.6895 16.8427 65.7749 17.0093 65.9267 17.1273C66.0442 17.2044 66.1862 17.235 66.3251 17.2131C66.4639 17.1913 66.5896 17.1185 66.6777 17.009L67.3719 16.1162C67.4563 16.0038 67.4958 15.864 67.4827 15.7241C67.4697 15.5843 67.405 15.4542 67.3012 15.3594C67.1673 15.2553 66.9936 15.2207 66.7853 15.2307C66.6648 15.2591 66.5571 15.3264 66.4788 15.4222L65.7846 16.3151C65.7013 16.4222 65.6765 16.5462 65.6746 16.6593ZM69.753 15.8178C69.6458 15.7345 69.4612 15.6771 69.2817 15.7238C69.1552 15.7494 69.0414 15.8178 68.9593 15.9173L66.8767 18.5959C66.7934 18.703 66.7686 18.827 66.7687 18.956C66.7816 19.1236 66.8601 19.2991 66.9762 19.3893C67.2263 19.5836 67.5755 19.5399 67.7699 19.2899L69.8525 16.6112C70.0468 16.3612 70.0031 16.0121 69.753 15.8178ZM69.5562 20.6778L71.6388 17.9992C71.8332 17.7492 71.7894 17.4001 71.5393 17.2058C71.2892 17.0115 70.94 17.0552 70.7456 17.3052L68.663 19.9838C68.4686 20.2338 68.5124 20.5829 68.7625 20.7773C69.0126 20.9716 69.3618 20.9278 69.5562 20.6778ZM72.0367 21.1729L72.7309 20.28C72.9253 20.03 72.8815 19.6809 72.6314 19.4866C72.3813 19.2923 72.0321 19.336 71.8377 19.586L71.1435 20.4789C70.9492 20.7289 70.9929 21.078 71.243 21.2723C71.4931 21.4667 71.8423 21.4229 72.0367 21.1729Z" fill="#C4C4C4"/>
</g>
<defs>
<clipPath id="clip0_1897_10140">
<rect width="22.6198" height="22.6216" fill="white" transform="matrix(0.613799 -0.789462 0.789654 0.613552 50.2578 17.8574)"/>
</clipPath>
</defs>
</svg>
