<svg width="18" height="18" viewBox="0 0 18 18" fill="none" xmlns="http://www.w3.org/2000/svg">
<path fill-rule="evenodd" clip-rule="evenodd" d="M17.0066 18C17.5552 18 18 17.5552 18 17.0066V0.993424C18 0.444647 17.5551 0 17.0066 0H0.993432C0.44465 0 0 0.444714 0 0.993424V17.0065C0 17.5552 0.44465 17.9999 0.993432 17.9999H17.0066V18ZM12.4197 18V11.0294H14.7594L15.1097 8.31287H12.4197V6.57845C12.4197 5.79194 12.638 5.25598 13.7659 5.25598L15.2044 5.2553V2.82563C14.9556 2.79258 14.1017 2.7186 13.1083 2.7186C11.0342 2.7186 9.6143 3.98456 9.6143 6.30949V8.31287H7.26858V11.0294H9.6143V17.9999H12.4197V18Z" fill="#0F2E68"/>
</svg>
