<svg width="108" height="99" viewBox="0 0 108 99" fill="none" xmlns="http://www.w3.org/2000/svg">
<path d="M75.1664 56.0134H99.7822V54.7915H75.1664V56.0134Z" fill="#A9A094"/>
<path d="M80.0731 73.2094C80.0731 73.2094 85.2913 72.85 85.6872 74.2876C86.1191 75.761 85.6872 80.6845 85.6872 80.6845H83.0601L80.0731 73.2094Z" fill="#F9E6CF"/>
<path d="M88.0984 77.1988C88.1344 75.1503 86.7309 74.5753 85.7232 74.3237V79.6785C85.7232 79.6425 88.0625 79.93 88.0984 77.1988Z" fill="#5E2E1E"/>
<line y1="-0.5" x2="1.39457" y2="-0.5" transform="matrix(-0.707116 -0.707097 -0.707116 0.707097 11.0322 98.1807)" stroke="black"/>
<path d="M72.5877 98.3658C67.3207 98.3658 63.0509 94.102 63.0509 88.8423C63.0509 83.5827 67.3207 79.3188 72.5877 79.3188C77.8547 79.3188 82.1245 83.5827 82.1245 88.8423C82.1245 94.102 77.8547 98.3658 72.5877 98.3658Z" fill="#5E2E1E"/>
<path d="M72.5875 94.988C69.1888 94.988 66.4335 92.2366 66.4335 88.8426C66.4335 85.4486 69.1888 82.6973 72.5875 82.6973C75.9862 82.6973 78.7415 85.4486 78.7415 88.8426C78.7415 92.2366 75.9862 94.988 72.5875 94.988Z" fill="#F9E6CF"/>
<path d="M11.9119 98.3658C6.64485 98.3658 2.37506 94.102 2.37506 88.8423C2.37506 83.5827 6.64485 79.3188 11.9119 79.3188C17.1789 79.3188 21.4487 83.5827 21.4487 88.8423C21.4487 94.102 17.1789 98.3658 11.9119 98.3658Z" fill="#5E2E1E"/>
<path d="M11.912 94.988C8.51322 94.988 5.75801 92.2366 5.75801 88.8426C5.75801 85.4486 8.51322 82.6973 11.912 82.6973C15.3107 82.6973 18.0659 85.4486 18.0659 88.8426C18.0659 92.2366 15.3107 94.988 11.912 94.988Z" fill="#F9E6CF"/>
<path d="M72.2637 90.9628C71.091 90.9628 70.1404 90.0135 70.1404 88.8425C70.1404 87.6715 71.091 86.7222 72.2637 86.7222C73.4363 86.7222 74.387 87.6715 74.387 88.8425C74.387 90.0135 73.4363 90.9628 72.2637 90.9628Z" fill="#5E2E1E"/>
<path d="M12.0557 90.9628C10.883 90.9628 9.93239 90.0135 9.93239 88.8425C9.93239 87.6715 10.883 86.7222 12.0557 86.7222C13.2283 86.7222 14.179 87.6715 14.179 88.8425C14.179 90.0135 13.2283 90.9628 12.0557 90.9628Z" fill="#5E2E1E"/>
<path d="M106.128 66.9562V68.8609C106.128 68.8609 106.632 69.6875 105.157 69.6875C103.681 69.6875 85.8672 69.6875 85.8672 69.6875L79.3534 72.9937L77.9498 71.664L81.5127 69.4359L75.2148 69.364V55.6358H79.8932H106.092V66.9562H106.128Z" fill="#525E30"/>
<path d="M-0.000225067 82.0501L23.6079 89.7767L21.9525 87.1892L13.2793 73.5688C13.2793 73.5688 2.19503 74.2516 1.22335 80.5766C1.22335 80.5766 1.11541 80.5407 0.971457 80.5048C0.791515 80.4688 0.503607 80.5048 0.359655 80.7923C0.0717506 81.2954 -0.000225067 82.0501 -0.000225067 82.0501Z" fill="#A01D1F"/>
<path d="M13.2074 40.6858V51.1796L18.4617 43.3811C18.4617 43.3811 17.2741 39.967 13.2074 40.6858Z" fill="#851416"/>
<path d="M10.5443 45.5734C10.3644 43.4172 11.516 41.9078 12.5237 41.7281V49.3828C12.5237 49.3469 10.8322 49.2031 10.5443 45.5734Z" fill="#FCD673"/>
<path d="M-0.000225067 82.05L23.6079 89.7766L21.9525 87.1891L0.971457 80.5047C0.791515 80.4687 0.503607 80.5047 0.359653 80.7922C0.0717487 81.2953 -0.000225067 82.05 -0.000225067 82.05Z" fill="#FCD673"/>
<path d="M19.0015 86.0394L15.2947 84.8894C15.2947 84.8894 12.5956 76.5878 8.45695 74.5034C8.45695 74.5034 13.0994 73.3534 14.359 73.6409L19.0015 86.0394Z" fill="#851416"/>
<path d="M12.0918 73.9643C12.0918 73.9643 17.418 88.4113 25.2274 90.9988H59.2001C59.2001 90.9988 60.3157 91.1066 60.3157 89.4894L85.7592 89.0222H87.1988C87.1988 89.0222 88.0985 88.8785 87.1988 86.3628C87.0188 85.8237 86.7669 84.9253 86.407 83.7394C85.0395 79.355 81.8366 71.5205 72.4797 67.8189L74.0272 65.3752L49.8432 66.2017C49.8432 66.2017 56.0691 72.2752 55.8172 77.1987C55.5293 82.0862 48.3317 85.1769 48.3317 85.1769L29.474 84.8534H28.8262C28.8262 84.8534 25.5513 81.9065 25.4074 79.6424C25.2634 77.4143 25.4074 59.2658 25.4074 59.2658C25.4074 59.2658 26.631 51.8626 29.0062 46.4001C29.8699 44.3875 30.9135 42.6266 32.0652 41.5844L32.8209 41.4406C32.8209 41.4406 32.641 43.525 34.5843 43.525C36.5277 43.525 36.9235 41.6563 36.0238 40.7578C35.1241 39.8594 32.8929 36.1219 32.8929 36.1219L33.3607 33.8218C33.3607 33.8218 33.7566 34.7562 34.3324 34.7203C34.9082 34.6843 36.4557 34.6844 36.2398 31.0546C36.2758 29.1859 34.7283 28.2874 34.7283 28.2874C34.7283 28.2874 32.8209 28.1437 32.7849 30.8749C32.7489 33.6062 31.7413 36.625 31.7413 36.625L29.8699 36.589C29.8699 36.589 31.2374 34.289 31.2374 32.3843C31.2374 30.4796 31.4534 27.7484 30.1578 26.7421C28.8622 25.6999 28.0345 28.539 28.0345 28.539C28.0345 28.539 27.1708 33.1031 30.1218 32.3843C30.1218 32.3843 30.3377 33.6781 29.474 35.1156C28.6103 36.589 25.6233 39.1766 25.6233 39.1766C25.6233 39.1766 23.0682 36.9484 20.693 39.3922C18.3177 41.836 17.454 43.1657 17.454 43.1657C17.454 43.1657 12.6316 49.9219 11.444 55.672C10.2564 61.3501 12.0918 73.9643 12.0918 73.9643Z" fill="#A01D1F"/>
<path d="M26.1271 85.0327C30.2657 88.6624 42.0698 89.4531 42.0698 89.4531H60.3157L85.7592 88.9859H87.1988C87.1988 88.9859 88.0985 88.8421 87.1988 86.3265C87.0188 85.7874 86.7669 84.889 86.407 83.703C84.6076 80.4327 82.3404 76.6952 80.505 74.8623C76.8342 71.1607 72.9835 70.0826 71.364 69.867C69.7446 69.6514 61.0355 68.2498 58.8042 74.2873C56.6089 80.3249 57.4727 85.2124 57.4727 85.2124C57.4727 85.2124 57.6886 86.2546 56.2131 86.3265C54.7376 86.3983 32.6769 86.1108 32.6769 86.1108C32.6769 86.1108 30.4816 85.7874 29.438 84.853H28.7902C28.7902 84.853 25.5153 81.9061 25.3713 79.642C25.2274 77.4139 25.3713 59.2654 25.3713 59.2654C25.3713 59.2654 26.5949 51.8622 28.9701 46.3997C28.5743 44.5309 27.7106 41.2965 26.343 40.1465C26.379 40.3262 27.4227 43.8121 26.7029 46.759C25.9472 49.7778 24.0398 61.7091 23.6799 64.081C23.32 66.417 21.9885 81.4389 26.1271 85.0327Z" fill="#851416"/>
<path d="M85.7231 89.022C85.7231 89.022 85.6512 77.9891 73.9191 72.9938C62.187 67.9984 60.0637 77.5938 60.0637 77.5938L60.3156 89.4892L85.7231 89.022Z" fill="#A01D1F"/>
<path d="M81.9446 82.6971C81.9446 82.6971 78.8496 72.8502 66.8296 73.2455C64.5264 73.2455 61.0716 77.8814 61.6114 79.319C64.6703 82.5893 77.9139 79.858 81.9446 82.6971Z" fill="#B67579"/>
<path d="M72.8035 54.7736C72.8035 54.7736 76.5822 54.2704 76.5102 57.6486C76.4382 60.9908 76.5102 67.244 76.5102 67.244C76.5102 67.244 57.7245 65.1596 52.1823 67.6752C46.6402 70.1909 47.8997 62.2846 47.8997 62.2846C47.8997 62.2846 47.9717 60.2721 49.6272 59.8408C51.2826 59.4095 72.8035 54.7736 72.8035 54.7736Z" fill="#851416"/>
<path d="M99.0266 54.2042H107.366V69.84H99.0266V54.2042Z" fill="#939E71"/>
<path d="M38.831 81.1519C38.831 81.1519 40.5584 81.655 40.6664 83.4519C40.7743 85.2488 40.6664 84.7816 40.6664 84.7816L29.942 84.8176C29.942 84.8176 29.3662 83.8472 30.5897 83.4519C31.8133 83.0566 34.2245 82.9847 35.1962 81.8347C36.1679 80.6488 38.831 81.1519 38.831 81.1519Z" fill="#B3AC9C"/>
<path d="M39.3347 77.5938V82.2297C39.3347 82.2297 37.6073 84.1344 35.1961 81.8344C35.1961 81.8344 35.9159 80.3969 35.592 78.061L39.3347 77.5938Z" fill="#FFB48F"/>
<path d="M30.8057 73.6765C32.1372 77.5218 31.4175 78.1687 34.6564 78.5999C37.8953 78.9952 39.4068 78.528 39.4068 78.528C39.4068 78.528 40.7743 78.8515 41.4941 78.1687C41.89 77.8093 42.0699 77.1624 41.782 76.0124C40.9543 72.7421 39.4068 60.5592 39.4068 60.5592L43.3655 60.667L55.1695 60.9904C55.1695 60.9904 74.2432 63.0029 75.2148 51.1794C75.2148 51.1435 75.2148 51.1076 75.2148 51.0716C64.9223 50.0294 44.0852 45.8247 44.0852 45.8247C44.0852 45.8247 42.3578 45.9685 40.0186 46.3997C35.6281 47.2263 29.1142 48.9872 28.3945 52.4732C27.2788 57.7201 29.4741 69.8311 30.8057 73.6765Z" fill="#FCD673"/>
<path d="M40.0546 46.3279C41.746 46.7233 43.7973 47.1904 44.769 47.3701C46.5324 47.6936 50.3831 50.1733 57.9766 52.9405C64.1665 55.2046 72.4078 52.2577 75.2148 51.1077C75.2148 51.0717 75.2148 51.0358 75.2148 50.9999C64.9223 49.9577 44.0852 45.7529 44.0852 45.7529C44.0852 45.7529 42.3938 45.9326 40.0546 46.3279Z" fill="#C99A3F"/>
<path d="M61.6472 50.7125C61.6472 50.7125 61.8271 53.5515 52.8661 53.8031C43.9051 54.0547 33.4686 53.264 33.3966 55.6359C33.3246 58.0078 34.1163 62.4282 34.5842 65.9141C35.052 69.4001 36.8874 78.7798 36.8874 78.7798" stroke="white" stroke-width="1.2771" stroke-miterlimit="10"/>
<path d="M43.4014 60.344C43.4014 60.344 37.7513 59.9846 37.0675 59.5174C36.3837 59.0502 34.9802 58.8346 36.2038 61.8893C37.4274 64.944 41.0262 75.9769 41.0262 76.5519C41.0262 76.8394 41.2421 77.5222 41.494 78.1691C41.8899 77.8097 42.0698 77.1629 41.7819 76.0128C40.9542 72.7425 39.4067 60.5596 39.4067 60.5596" fill="#C99A3F"/>
<path d="M75.2147 51.0001C75.2147 51.0001 53.5499 51.9704 44.0851 45.7531L44.6969 44.8906L75.7905 47.9813L75.2147 51.0001Z" fill="white"/>
<path d="M48.6557 18.0452C48.6557 18.0452 53.3342 9.2405 61.2155 15.6015C69.0969 21.9625 60.7837 22.25 60.7837 22.25C60.7837 22.25 78.8497 37.236 75.5747 49.3111C75.5747 49.3111 51.6787 50.1376 44.733 44.8907C44.733 44.8907 46.0646 24.4062 43.4015 21.3875L48.6557 18.0452Z" fill="#FCD673"/>
<path d="M58.8762 24.5859C58.8762 24.5859 64.2025 36.0141 60.0998 43.4533C55.9972 50.8924 44.7689 44.0642 44.7689 44.0642L44.8409 42.3392C44.8409 42.3392 56.8249 46.1486 58.0485 41.2251C60.3158 36.4454 58.8762 24.5859 58.8762 24.5859Z" fill="#C99A3F"/>
<path d="M49.6631 23.1122C49.6631 23.1122 46.6761 27.9997 48.1516 34.9357L45.5245 35.1514C45.5245 35.1514 46.0643 33.031 46.4601 32.9951C46.892 32.9232 45.7044 25.3044 49.6631 23.1122Z" fill="#C99A3F"/>
<path d="M59.6681 21.6028C59.6681 21.6028 56.933 19.9856 55.2775 19.9497C53.6221 19.9137 49.8793 18.6918 49.6634 18.2965C49.4475 17.9012 51.4628 20.345 55.0976 20.7403C55.0976 20.7403 59.2722 24.2262 62.3672 23.7231C62.3672 23.6872 60.8557 22.2497 59.6681 21.6028Z" fill="#ACA28F"/>
<path d="M41.7817 39.8952C41.7817 39.8952 39.8744 39.6796 38.9747 39.8952C38.075 40.1108 36.0597 41.2968 33.8284 39.7874C31.5971 38.278 30.0856 38.1342 30.1216 39.1046C30.1576 40.0749 30.3376 41.0452 30.3376 41.0452C30.3376 41.0452 28.5382 40.614 28.8621 38.1342C29.2219 35.6545 31.7771 36.3374 32.7488 36.517C33.6844 36.6967 41.3499 36.8045 41.3499 36.8045L41.7817 39.8952Z" fill="#FFB48F"/>
<path d="M40.99 36.8045H42.1776C42.1776 36.8045 41.7818 35.2233 42.5735 35.1514C43.3653 35.0436 45.5605 35.1514 45.5605 35.1514L45.9204 42.4108C45.9204 42.4108 43.4732 42.6624 42.7535 41.0093L40.99 40.3264V36.8045Z" fill="#FCD673"/>
<path d="M59.164 89.4892L86.5149 89.022V88.0517C86.5149 87.5845 86.119 87.2251 85.6872 87.2251H60.2077C59.6319 87.2251 59.164 87.6923 59.164 88.2673V89.4892Z" fill="#FCD673"/>
<path d="M40.2704 17.3624C40.2704 17.3624 43.4733 20.0218 43.3654 21.3874C43.3654 21.3874 43.6173 21.3874 44.481 20.7046C45.4167 19.914 47.2161 19.4827 49.1594 18.1171C49.1594 18.1171 46.3524 16.0686 46.1004 13.9483C46.1004 13.8405 46.0645 13.7686 46.0285 13.6967C45.3447 12.2952 40.2704 17.3624 40.2704 17.3624Z" fill="#FFB48F"/>
<path d="M40.2702 17.3624C40.2702 17.3624 43.4732 20.0218 43.3652 21.3874C43.3652 21.3874 43.3652 21.3874 44.4808 20.7046C44.4808 20.7046 45.4525 15.4577 46.0283 13.6967C45.3445 12.2952 40.2702 17.3624 40.2702 17.3624Z" fill="#9C705F"/>
<path d="M35.1602 6.61715C35.1602 6.61715 34.5844 9.95935 35.0162 11.5047C35.4121 13.05 34.4044 13.6609 34.4044 13.6609C34.4044 13.6609 34.8723 14.1641 35.808 13.8406C35.808 13.8406 36.3118 14.4516 36.0599 14.8469C35.808 15.2422 36.9236 15.1703 37.5354 14.8828C38.1472 14.5953 38.2911 15.0625 38.0032 15.35C37.7153 15.6375 36.5637 15.9969 36.7436 16.2844C36.9596 16.5719 37.3195 16.3203 37.2835 16.5719C37.2475 16.8235 36.8156 17.9735 37.8233 17.9735C38.831 17.9735 44.0852 16.0688 44.5531 15.7453C45.0209 15.4219 46.0286 15.0984 46.1005 13.9125C46.1725 12.7266 46.0286 6.00621 42.2858 5.50308C38.615 4.96401 35.1602 6.61715 35.1602 6.61715Z" fill="#FFB48F"/>
<path d="M37.6792 10.031C37.6792 10.031 36.2397 9.38413 35.9158 10.4263" stroke="#5E2E1E" stroke-width="0.6465" stroke-miterlimit="10" stroke-linecap="round"/>
<path d="M36.3114 11.2298C36.2276 10.9857 36.2817 10.7461 36.4321 10.6946C36.5825 10.6432 36.7724 10.7993 36.8561 11.0434C36.9399 11.2875 36.8859 11.5271 36.7354 11.5786C36.585 11.63 36.3952 11.4739 36.3114 11.2298Z" fill="#5E2E1E"/>
<path d="M47.5761 1.8012C47.5761 1.8012 48.0439 3.4184 47.2522 3.9934C47.2522 3.9934 49.8073 5.35904 48.6917 7.58718C47.5761 9.77938 46.9283 11.9356 48.0439 12.7622C49.1235 13.5888 45.9206 15.1341 44.805 14.8107C43.6894 14.4872 43.5094 12.295 43.7613 12.0075C44.0132 11.72 45.0929 9.995 43.2215 8.91687C41.3501 7.87468 40.4864 10.2466 40.6664 11.181C40.8463 12.1153 39.3348 11.6122 39.3348 11.6122C39.3348 11.6122 39.4068 8.26999 38.1112 7.8028C36.7797 7.33561 32.4971 7.40749 33.1089 4.13715C33.1089 4.13715 35.5201 5.25122 35.736 3.84965C35.952 2.44808 37.5354 2.34026 37.5354 2.34026C37.5354 2.34026 38.2552 -0.570691 40.9543 1.33401C40.9543 1.33401 42.6097 -0.75038 44.0492 0.291814C45.4528 1.29807 46.7483 2.98714 47.5761 1.8012Z" fill="#5E2E1E"/>
<path d="M100.823 37.0415L103.782 38.0086L103.565 54.7915H100.823V37.0415Z" fill="#BB6C6C"/>
<path d="M79.129 37.915L100.823 37.0415V54.7915H79.129V37.915Z" fill="#E19898"/>
<path d="M94.9067 37.0415V54.7915" stroke="#851416" stroke-width="2.5542" stroke-miterlimit="10"/>
<path d="M85.0457 37.5348V54.7917" stroke="#851416" stroke-width="2.5542" stroke-miterlimit="10"/>
</svg>
