<svg width="22" height="21" viewBox="0 0 22 21" fill="none" xmlns="http://www.w3.org/2000/svg">
<path d="M5.17855 20.3335V6.83953H0.604809L0.604809 20.3335H5.17855ZM2.89227 4.99606C4.48721 4.99606 5.47999 3.95988 5.47999 2.665C5.45027 1.34092 4.48727 0.333496 2.92254 0.333496C1.35804 0.333496 0.334961 1.34094 0.334961 2.665C0.334961 3.95994 1.32749 4.99606 2.86241 4.99606H2.89213H2.89227ZM7.71009 20.3335H12.2838V12.7978C12.2838 12.3945 12.3135 11.9916 12.4343 11.7033C12.765 10.8976 13.5175 10.063 14.781 10.063C16.436 10.063 17.0981 11.3004 17.0981 13.1144V20.3334H21.6716V12.5961C21.6716 8.45127 19.4152 6.52274 16.4059 6.52274C13.9386 6.52274 12.8552 7.87518 12.2534 8.79631H12.2839V6.83925H7.7102C7.77022 8.10545 7.7102 20.3332 7.7102 20.3332L7.71009 20.3335Z" fill="white"/>
</svg>
