<svg width="18" height="18" viewBox="0 0 18 18" fill="none" xmlns="http://www.w3.org/2000/svg">
<path d="M9 2.25C8.11358 2.25 7.23583 2.42459 6.41689 2.76381C5.59794 3.10303 4.85382 3.60023 4.22703 4.22703C3.60023 4.85382 3.10303 5.59794 2.76381 6.41689C2.42459 7.23583 2.25 8.11358 2.25 9C2.25 9.88642 2.42459 10.7642 2.76381 11.5831C3.10303 12.4021 3.60023 13.1462 4.22703 13.773C4.85382 14.3998 5.59794 14.897 6.41689 15.2362C7.23583 15.5754 8.11358 15.75 9 15.75C10.7902 15.75 12.5071 15.0388 13.773 13.773C15.0388 12.5071 15.75 10.7902 15.75 9C15.75 7.20979 15.0388 5.4929 13.773 4.22703C12.5071 2.96116 10.7902 2.25 9 2.25ZM9.84375 6.1875C9.84375 6.41113 9.75491 6.6256 9.59679 6.78372C9.43866 6.94185 9.22419 7.03069 9.00056 7.03069C8.77694 7.03069 8.56247 6.94185 8.40434 6.78372C8.24621 6.6256 8.15737 6.41113 8.15737 6.1875C8.15737 5.96402 8.24615 5.7497 8.40417 5.59167C8.5622 5.43365 8.77652 5.34487 9 5.34487C9.22348 5.34487 9.4378 5.43365 9.59583 5.59167C9.75385 5.7497 9.84262 5.96402 9.84262 6.1875H9.84375ZM9 7.875C9.14918 7.875 9.29226 7.93426 9.39775 8.03975C9.50324 8.14524 9.5625 8.28832 9.5625 8.4375V11.8125C9.5625 11.9617 9.50324 12.1048 9.39775 12.2102C9.29226 12.3157 9.14918 12.375 9 12.375C8.85082 12.375 8.70774 12.3157 8.60225 12.2102C8.49676 12.1048 8.4375 11.9617 8.4375 11.8125V8.4375C8.4375 8.28832 8.49676 8.14524 8.60225 8.03975C8.70774 7.93426 8.85082 7.875 9 7.875Z" fill="#6A2A41"/>
</svg>
