<svg width="22" height="22" viewBox="0 0 22 22" fill="none" xmlns="http://www.w3.org/2000/svg">
<path d="M11.006 5.60927C7.97748 5.60927 5.53462 8.01396 5.53462 10.9952C5.53462 13.9765 7.97748 16.3811 11.006 16.3811C14.0346 16.3811 16.4775 13.9765 16.4775 10.9952C16.4775 8.01396 14.0346 5.60927 11.006 5.60927ZM11.006 14.4968C9.0489 14.4968 7.44891 12.9265 7.44891 10.9952C7.44891 9.06396 9.04414 7.49365 11.006 7.49365C12.9679 7.49365 14.5632 9.06396 14.5632 10.9952C14.5632 12.9265 12.9632 14.4968 11.006 14.4968ZM17.9775 5.38896C17.9775 6.0874 17.406 6.64521 16.7013 6.64521C15.9918 6.64521 15.4251 6.08271 15.4251 5.38896C15.4251 4.69521 15.9965 4.13271 16.7013 4.13271C17.406 4.13271 17.9775 4.69521 17.9775 5.38896ZM21.6013 6.66396C21.5203 4.98115 21.1298 3.49053 19.8775 2.2624C18.6298 1.03428 17.1156 0.649902 15.406 0.565527C13.6441 0.46709 8.36319 0.46709 6.60129 0.565527C4.89653 0.645215 3.38224 1.02959 2.12986 2.25771C0.877483 3.48584 0.491769 4.97646 0.406055 6.65927C0.306055 8.39365 0.306055 13.5921 0.406055 15.3265C0.487007 17.0093 0.877483 18.4999 2.12986 19.728C3.38224 20.9561 4.89177 21.3405 6.60129 21.4249C8.36319 21.5233 13.6441 21.5233 15.406 21.4249C17.1156 21.3452 18.6298 20.9608 19.8775 19.728C21.1251 18.4999 21.5156 17.0093 21.6013 15.3265C21.7013 13.5921 21.7013 8.39834 21.6013 6.66396ZM19.3251 17.1874C18.9537 18.1061 18.2346 18.814 17.2965 19.1843C15.8918 19.7327 12.5584 19.6061 11.006 19.6061C9.45367 19.6061 6.11557 19.728 4.71557 19.1843C3.78224 18.8186 3.0632 18.1108 2.68701 17.1874C2.12986 15.8046 2.25843 12.5233 2.25843 10.9952C2.25843 9.46709 2.13462 6.18115 2.68701 4.80302C3.05843 3.88428 3.77748 3.17646 4.71557 2.80615C6.12034 2.25771 9.45367 2.38428 11.006 2.38428C12.5584 2.38428 15.8965 2.2624 17.2965 2.80615C18.2299 3.17178 18.9489 3.87959 19.3251 4.80302C19.8822 6.18584 19.7537 9.46709 19.7537 10.9952C19.7537 12.5233 19.8822 15.8093 19.3251 17.1874Z" fill="white"/>
</svg>
