<svg width="181" height="180" viewBox="0 0 181 180" fill="none" xmlns="http://www.w3.org/2000/svg">
<circle cx="90" cy="90" r="90" fill="#6A2A41"/>
<circle cx="135" cy="33" r="3" fill="#F5F079"/>
<circle cx="125.5" cy="49.5" r="1.5" fill="#F57980"/>
<circle cx="48" cy="67" r="3" fill="#6FF141"/>
<circle cx="53" cy="28" r="4" fill="#61B3FF"/>
<path d="M35.6367 44.118C35.7511 43.7661 36.2489 43.7661 36.3633 44.118L36.8123 45.5C36.8634 45.6574 37.0101 45.7639 37.1756 45.7639H38.6287C38.9987 45.7639 39.1525 46.2374 38.8532 46.4549L37.6776 47.309C37.5437 47.4063 37.4877 47.5787 37.5388 47.7361L37.9879 49.118C38.1022 49.4699 37.6994 49.7626 37.4001 49.5451L36.2245 48.691C36.0906 48.5937 35.9094 48.5937 35.7755 48.691L34.5999 49.5451C34.3006 49.7626 33.8978 49.4699 34.0121 49.118L34.4612 47.7361C34.5123 47.5787 34.4563 47.4063 34.3224 47.309L33.1468 46.4549C32.8475 46.2374 33.0013 45.7639 33.3713 45.7639H34.8244C34.9899 45.7639 35.1366 45.6574 35.1877 45.5L35.6367 44.118Z" fill="#A479FF"/>
<path d="M116.637 17.118C116.751 16.7661 117.249 16.7661 117.363 17.118L118.037 19.191C118.088 19.3484 118.235 19.4549 118.4 19.4549H120.58C120.95 19.4549 121.104 19.9284 120.804 20.1459L119.041 21.4271C118.907 21.5243 118.851 21.6967 118.902 21.8541L119.576 23.9271C119.69 24.279 119.287 24.5716 118.988 24.3541L117.225 23.0729C117.091 22.9757 116.909 22.9757 116.775 23.0729L115.012 24.3541C114.713 24.5716 114.31 24.279 114.424 23.9271L115.098 21.8541C115.149 21.6967 115.093 21.5243 114.959 21.4271L113.196 20.1459C112.896 19.9284 113.05 19.4549 113.42 19.4549H115.6C115.765 19.4549 115.912 19.3484 115.963 19.191L116.637 17.118Z" fill="#FFB979"/>
<g clip-path="url(#clip0_1803_19550)">
<path d="M113.68 105.11L113.58 105.2V105.23C115.25 104.61 121.22 102.09 120.79 98.04C120.79 98.04 121.62 92.36 113.59 94.45L113.69 99.51V105.12L113.68 105.11Z" fill="#F8BC92"/>
<path d="M108.98 117.25L103.79 124.08L103.62 120.53L103.1 121.01L103.02 120.6L102.64 120.95L101.42 118.51L95.77 119.45L99.74 115.15L97.53 110.72L102.61 109.21L106.93 74.9399L113.2 73.4599L113.28 77.8899C114.49 77.3099 119.43 74.5899 117.8 69.9499C117.8 69.9499 116.73 67.0999 110.31 69.2399L108.6 69.5999L63.31 95.8499C63.31 95.8499 64.59 89.9999 63.17 86.5799C63.17 86.5799 69.45 76.5899 65.59 67.4699C65.59 67.4699 63.45 63.4799 59.46 64.6899C59.46 64.6899 64.79 65.7599 61.46 72.4599C61.46 72.4599 59.89 75.9299 56.75 75.1699C56.75 75.1699 55.79 76.3499 55.72 76.9199C55.72 76.9199 50.37 82.4799 50.23 85.4799C50.23 85.4799 41.78 113.12 43.06 125.1C43.06 125.1 44.2 145.78 43.63 146.5C43.63 146.5 39.58 168.39 31.73 178.52L71.95 185.94C71.95 185.94 75 172.04 76.57 170.04C76.57 170.04 90.98 154.21 93.83 149.5L107.25 129.58L107.38 129.38L116.22 121.32C116.22 121.32 121 119.97 119.71 114.05C119.71 114.05 118.2 109.32 113.57 111.49V116.51L108.97 117.28L108.98 117.25Z" fill="#F8BC92"/>
<path d="M59.45 64.6699C59.45 64.6699 57.16 65.4299 56.76 74.7399C56.84 72.9999 57.3 66.2199 59.45 64.6699Z" fill="#F8BC92"/>
<path d="M123.14 82.0699C123.14 82.0699 121.95 78.0799 113.32 80.3699L113.55 92.5099C117.53 90.9999 124.76 87.4599 123.14 82.0699Z" fill="#F8BC92"/>
<path d="M113.32 80.36L113.27 77.88L113.19 73.45L106.92 74.93L102.6 109.2L97.52 110.71L99.73 115.14L101.41 118.5L102.63 120.94L103.01 120.59L103.59 120.07L103.61 120.53L103.78 124.08L108.97 117.25L106.18 117.71L111.69 112.7C94.54 120.95 111.36 106.6 111.36 106.6L106.2 108.14L113.57 100.16V105.21L113.67 105.12V99.51L113.57 94.45L113.53 92.51L113.3 80.37L113.32 80.36Z" fill="#F8BC92"/>
<path d="M101.42 118.51L99.74 115.15L95.77 119.45L101.42 118.51Z" fill="#F8BC92"/>
<path d="M113.58 100.15L106.21 108.13L111.37 106.59C111.37 106.59 94.5499 120.94 111.7 112.69L106.19 117.7L108.98 117.24L113.58 116.47V100.14V100.15Z" fill="#F8BC92"/>
<path d="M61.45 72.4399C64.78 65.7399 59.45 64.6699 59.45 64.6699C57.3 66.2199 56.84 72.9999 56.76 74.7399C56.75 74.9999 56.74 75.1499 56.74 75.1499C59.88 75.9099 61.45 72.4399 61.45 72.4399Z" fill="#F8D9C2"/>
<path d="M116.6 116.37C116.6 116.37 118.03 116.56 118.03 115.13C118.03 115.13 118.46 112.23 114.94 112.28C114.94 112.28 118.27 113.52 116.6 116.37Z" fill="#F8D9C2"/>
<path d="M68.97 41.29H69.65V39.22H68.97V41.29Z" fill="#090909"/>
<path d="M62.9401 53.15C62.7001 53.06 62.6201 53.22 62.6201 53.22V56.6C62.7501 56.75 62.8601 56.71 62.9401 56.67V53.15Z" fill="#323432"/>
<path d="M62.5601 59.9201V66.4001C62.5601 66.4001 62.7101 66.5501 62.9201 66.4501V59.8601C62.8401 59.8101 62.7001 59.7601 62.5601 59.9201Z" fill="#323432"/>
<path d="M65.51 42.89C65.51 43.51 65.01 44.02 64.38 44.02C63.75 44.02 63.25 43.52 63.25 42.89C63.25 42.26 63.75 41.76 64.38 41.76C65.01 41.76 65.51 42.26 65.51 42.89Z" fill="#040404"/>
<path d="M113.31 39.29V132.73C113.31 136.21 110.49 139.02 107.02 139.02H70.3798C66.8998 139.02 64.0898 136.2 64.0898 132.73V43.07C64.0898 43.07 64.1598 43.07 64.1998 43.07C64.2298 43.07 64.2598 43.07 64.2898 43.07H64.3098C64.3098 43.07 64.3698 43.05 64.3998 43.05C64.4198 43.05 64.4398 43.04 64.4598 43.03H64.4698C64.4698 43.03 64.4998 43.01 64.5198 43H64.5398C64.5398 43 64.5598 42.97 64.5798 42.97L64.5998 42.95L64.6298 42.93L64.6498 42.91L64.6798 42.88L64.6998 42.86L64.7198 42.83L64.7398 42.81C64.7398 42.81 64.7598 42.79 64.7598 42.78V42.76C64.7598 42.76 64.7898 42.73 64.7898 42.72V42.7C64.7898 42.7 64.8098 42.67 64.8098 42.66V42.64L64.8298 42.6V42.53L64.8498 42.5C64.8498 42.5 64.8498 42.45 64.8498 42.43C64.8498 42.19 64.7198 41.98 64.5298 41.87C64.4298 41.81 64.3198 41.78 64.1998 41.77H64.1898C64.1898 41.77 64.1498 41.77 64.1298 41.77H64.0898V39.29C64.0898 35.82 66.9098 33 70.3798 33H107.01C110.48 33 113.3 35.82 113.3 39.29H113.31Z" fill="#FEFFFF"/>
<path d="M112.09 131.37C112.09 135.99 110.8 137.78 106.56 137.78H72.5001C68.2601 137.78 65.7601 137.22 65.7601 132.6V41.73C65.7601 37.11 67.1401 35.36 71.3801 35.36H106.99C111.23 35.36 112.09 38 112.09 42.61V131.37ZM64.8501 43.05V43.08C64.8501 43.08 64.8501 43.11 64.8401 43.12V43.15C64.8401 43.15 64.8301 43.18 64.8201 43.19V43.21C64.8201 43.21 64.8001 43.24 64.7901 43.25V43.27C64.7901 43.27 64.7701 43.3 64.7601 43.31V43.33L64.7201 43.36L64.7001 43.38L64.6801 43.41L64.6601 43.43L64.6301 43.46L64.6101 43.48L64.5801 43.5L64.5601 43.52C64.5601 43.52 64.5401 43.54 64.5201 43.54H64.5001C64.5001 43.54 64.4701 43.57 64.4501 43.57H64.4401C64.4401 43.57 64.4001 43.59 64.3801 43.6C64.3501 43.6 64.3201 43.62 64.2901 43.62H64.2701C64.2701 43.62 64.2101 43.62 64.1801 43.62C63.8201 43.62 63.5201 43.33 63.5201 42.96C63.5201 42.94 63.5201 42.91 63.5201 42.89C63.5201 42.89 63.5201 42.84 63.5201 42.82C63.5201 42.82 63.5201 42.77 63.5401 42.75C63.5401 42.75 63.5501 42.71 63.5601 42.69C63.6101 42.59 63.6801 42.5 63.7601 42.43C63.7901 42.4 63.8301 42.38 63.8701 42.36H63.8901L63.9201 42.34H63.9501L63.9801 42.32H64.0401L64.0801 42.3H64.1001C64.1001 42.3 64.1401 42.3 64.1601 42.3C64.5201 42.3 64.8201 42.6 64.8201 42.96C64.8201 42.98 64.8201 43.01 64.8201 43.03L64.8501 43.05ZM106.9 32.5H71.3001C66.5501 32.5 62.9601 35.52 62.9601 40.41V45.53L62.9401 53.15V56.67V59.86V66.45H62.9301L62.8201 132.23C62.8201 137.11 65.8301 140.79 70.5801 140.79L107.15 140.74C111.9 140.74 114.85 137.03 114.85 132.15V40.76C114.85 35.88 111.67 32.51 106.92 32.51L106.9 32.5Z" fill="#040404"/>
<path d="M112.09 131.37C112.09 135.99 110.8 137.78 106.56 137.78H72.5C68.26 137.78 65.76 137.22 65.76 132.61V41.73C65.76 37.11 67.1401 35.36 71.3801 35.36H106.99C111.23 35.36 112.09 38 112.09 42.61V131.37ZM106.91 32.51H71.3C66.8 32.51 63.3401 35.23 62.9901 39.67C62.9801 39.81 62.9701 39.95 62.9701 40.09C62.9701 40.2 62.9701 40.31 62.9701 40.42V43.03C63.1901 43.03 63.38 42.99 63.55 42.95V42.93C63.55 42.93 63.55 42.88 63.55 42.86C63.55 42.86 63.56 42.81 63.57 42.79C63.57 42.79 63.58 42.75 63.59 42.73C63.64 42.63 63.7101 42.54 63.7901 42.48C63.8201 42.45 63.8601 42.43 63.9001 42.41H63.92L63.9501 42.39H63.98L64.01 42.37H64.07L64.09 42.35H64.1301C64.1301 42.35 64.17 42.35 64.19 42.35H64.2001C64.3201 42.35 64.43 42.39 64.53 42.45C64.72 42.56 64.85 42.77 64.85 43.01C64.85 43.03 64.85 43.06 64.85 43.08V43.15L64.8301 43.18V43.22L64.8101 43.24C64.8101 43.24 64.8001 43.27 64.7901 43.28V43.3C64.7901 43.3 64.77 43.33 64.76 43.34V43.36C64.76 43.36 64.73 43.38 64.73 43.39L64.71 43.41L64.69 43.44L64.67 43.46L64.64 43.49L64.62 43.51L64.59 43.53L64.57 43.55C64.57 43.55 64.55 43.57 64.53 43.57H64.51C64.51 43.57 64.48 43.6 64.46 43.61H64.4501C64.4501 43.61 64.41 43.63 64.39 43.64C64.36 43.64 64.33 43.66 64.3 43.66H64.28C64.28 43.66 64.22 43.67 64.19 43.67C64.15 43.67 64.1201 43.67 64.0801 43.67C63.8401 43.63 63.65 43.47 63.57 43.25C63.39 43.29 63.1801 43.31 62.9501 43.32V45.57L62.93 53.19V56.71V59.9L62.91 66.49L62.8 132.27C62.8 137.15 65.8101 140.83 70.5601 140.83L107.13 140.78C111.88 140.78 114.83 137.07 114.83 132.19V40.76C114.83 35.88 111.65 32.51 106.9 32.51H106.91Z" fill="#040404"/>
<path d="M63.3799 95.46C63.4599 95.05 63.5799 94.34 63.6799 93.46V93.44C63.6799 93.44 63.6799 93.42 63.6799 93.41V93.38C63.7999 92.33 63.8799 91.06 63.8099 89.8C63.8499 91.18 63.7299 93.03 63.3799 95.46Z" fill="#F8BC92"/>
<path d="M59.45 64.6701C59.45 64.6701 64.78 65.7401 61.45 72.4401C61.45 72.4401 60.78 73.9101 59.45 74.7301V91.0801L62.95 86.3801C62.95 86.3801 63.17 86.6601 63.4 87.2501C63.4 87.2301 63.39 87.2101 63.38 87.1901C63.33 87.0201 63.2699 86.8501 63.2099 86.7001C63.1899 86.6501 63.1599 86.6101 63.1399 86.5801C63.1399 86.5801 65.22 82.6101 66.18 79.1101C66.35 78.4001 66.4999 77.6501 66.6199 76.8801V76.8501C66.7499 75.7101 68.03 63.1901 59.45 64.6801V64.6701Z" fill="#F8BC92"/>
<path d="M59.45 64.6699C59.38 64.6899 57.18 65.5699 56.77 74.5899V74.6799C56.86 72.8399 57.33 66.1999 59.45 64.6699Z" fill="#F8BC92"/>
<path d="M61.45 72.4399C64.78 65.7399 59.45 64.6699 59.45 64.6699C57.33 66.1999 56.85 72.8399 56.76 74.6799C56.76 74.8299 56.75 74.9499 56.74 75.0299C56.74 75.0499 56.74 75.0799 56.74 75.0999C56.74 75.1399 56.74 75.1599 56.74 75.1599C57.83 75.4199 58.74 75.1799 59.45 74.7399C60.78 73.9199 61.45 72.4499 61.45 72.4499V72.4399Z" fill="#F8D9C2"/>
<path d="M59.4501 91.0801L56.5001 95.0501L48.0601 136.34L64.0901 147.88L64.7301 143.96C65.9601 114.26 64.2701 109.6 63.6601 101.14C63.4301 97.9901 63.2701 96.0301 63.2701 96.0301C63.2901 95.9601 63.3201 95.8801 63.3301 95.8101C63.3501 95.6901 63.3601 95.5701 63.3801 95.4501C63.7201 93.0101 63.8501 91.1701 63.8101 89.7901C63.7801 88.6401 63.6301 87.8101 63.4001 87.2401C63.1601 86.6401 62.9501 86.3701 62.9501 86.3701L59.4501 91.0701V91.0801Z" fill="#F8BC92"/>
<path d="M87.4099 150.53C87.4099 150.53 87.4999 150.48 87.5399 150.46C87.4899 150.48 87.4499 150.5 87.4099 150.53Z" fill="#F8BC92"/>
<path d="M103.015 127.34C103.038 127.317 103.055 127.3 103.071 127.284C103.087 127.268 103.104 127.252 103.122 127.235C103.136 127.219 103.138 127.217 103.141 127.215C103.192 127.163 103.251 127.12 103.317 127.087C103.381 127.054 103.45 127.031 103.522 127.019C103.588 127.008 103.654 127.002 103.72 127.001C103.752 127.001 103.779 127 103.805 127C103.833 127 103.856 127 103.905 127H105.021C105.071 127 105.094 127 105.121 127C105.148 127 105.175 127.001 105.206 127.001C105.272 127.002 105.339 127.008 105.406 127.019C105.477 127.031 105.546 127.054 105.61 127.087C105.675 127.12 105.735 127.163 105.786 127.215C105.837 127.266 105.88 127.326 105.914 127.391C105.946 127.456 105.969 127.524 105.981 127.597C105.992 127.662 105.998 127.729 105.999 127.793C105.999 127.803 105.999 127.812 105.999 127.823C105.999 127.834 106 127.843 106 127.863C106 127.871 106 127.871 106 127.881V129.012L106 129.114C106 129.125 106 129.125 106 129.135C105.999 129.168 105.999 129.182 105.999 129.199C105.998 129.266 105.992 129.333 105.981 129.4C105.969 129.472 105.946 129.541 105.913 129.607C105.879 129.672 105.836 129.732 105.784 129.784C105.732 129.836 105.672 129.88 105.607 129.913C105.542 129.946 105.472 129.969 105.4 129.981C105.333 129.992 105.266 129.998 105.2 129.999C105.165 130 105.139 130 105.113 130H103.872L103.806 130C103.778 130 103.749 130 103.721 129.999C103.655 129.998 103.588 129.992 103.521 129.981C103.45 129.969 103.381 129.946 103.316 129.913C103.252 129.88 103.192 129.837 103.144 129.788C103.14 129.784 103.136 129.781 103.128 129.773C103.107 129.752 103.093 129.738 103.072 129.717C103.056 129.701 103.043 129.689 103.015 129.66L102.635 129.28C102.623 129.269 102.616 129.262 102.605 129.251C102.591 129.238 102.584 129.23 102.566 129.213L102.221 128.866C102.216 128.861 102.211 128.856 102.205 128.851C102.201 128.846 102.197 128.843 102.189 128.834C102.177 128.822 102.168 128.813 102.162 128.807C102.133 128.778 102.106 128.748 102.08 128.716C102.056 128.691 102.036 128.661 102.023 128.629L102.019 128.619C101.994 128.542 101.994 128.459 102.019 128.381L102.022 128.372C102.036 128.339 102.056 128.31 102.08 128.284C102.105 128.253 102.133 128.223 102.16 128.196C102.171 128.184 102.18 128.175 102.19 128.164C102.194 128.161 102.194 128.161 102.2 128.155C102.208 128.147 102.214 128.14 102.222 128.133L102.566 127.787C102.571 127.783 102.574 127.779 102.582 127.772C102.591 127.763 102.595 127.759 102.6 127.754C102.61 127.744 102.62 127.735 102.632 127.723C102.633 127.722 103.015 127.34 103.015 127.34Z" fill="black"/>
<g filter="url(#filter0_d_1803_19550)">
<path fill-rule="evenodd" clip-rule="evenodd" d="M83 127.5C83 126.119 84.1193 125 85.5 125H92.5C93.8807 125 95 126.119 95 127.5C95 128.881 93.8807 130 92.5 130H85.5C84.1193 130 83 128.881 83 127.5Z" fill="#FCFCFE"/>
<path fill-rule="evenodd" clip-rule="evenodd" d="M83 127.5C83 126.119 84.1193 125 85.5 125H92.5C93.8807 125 95 126.119 95 127.5C95 128.881 93.8807 130 92.5 130H85.5C84.1193 130 83 128.881 83 127.5Z" stroke="#979797" stroke-width="0.1"/>
</g>
<path d="M89.5008 129.048C89.1674 129.048 88.9234 128.921 88.7688 128.668C88.6168 128.415 88.5408 128.06 88.5408 127.604C88.5408 127.148 88.6168 126.793 88.7688 126.54C88.9234 126.287 89.1674 126.16 89.5008 126.16C89.8341 126.16 90.0768 126.287 90.2288 126.54C90.3834 126.793 90.4608 127.148 90.4608 127.604C90.4608 128.06 90.3834 128.415 90.2288 128.668C90.0768 128.921 89.8341 129.048 89.5008 129.048ZM89.5008 128.756C89.6101 128.756 89.7034 128.733 89.7808 128.688C89.8581 128.643 89.9208 128.579 89.9688 128.496C90.0168 128.413 90.0514 128.316 90.0728 128.204C90.0968 128.092 90.1088 127.968 90.1088 127.832V127.376C90.1088 127.24 90.0968 127.116 90.0728 127.004C90.0514 126.892 90.0168 126.795 89.9688 126.712C89.9208 126.629 89.8581 126.565 89.7808 126.52C89.7034 126.475 89.6101 126.452 89.5008 126.452C89.3914 126.452 89.2981 126.475 89.2208 126.52C89.1434 126.565 89.0808 126.629 89.0328 126.712C88.9848 126.795 88.9488 126.892 88.9248 127.004C88.9034 127.116 88.8928 127.24 88.8928 127.376V127.832C88.8928 127.968 88.9034 128.092 88.9248 128.204C88.9488 128.316 88.9848 128.413 89.0328 128.496C89.0808 128.579 89.1434 128.643 89.2208 128.688C89.2981 128.733 89.3914 128.756 89.5008 128.756Z" fill="black"/>
<g filter="url(#filter1_d_1803_19550)">
<path fill-rule="evenodd" clip-rule="evenodd" d="M96 118C96 116.343 97.3431 115 99 115H105C106.657 115 108 116.343 108 118C108 119.657 106.657 121 105 121H99C97.3431 121 96 119.657 96 118Z" fill="#FCFCFE"/>
<path fill-rule="evenodd" clip-rule="evenodd" d="M96 118C96 116.343 97.3431 115 99 115H105C106.657 115 108 116.343 108 118C108 119.657 106.657 121 105 121H99C97.3431 121 96 119.657 96 118Z" stroke="#979797" stroke-width="0.1"/>
</g>
<path d="M103.433 117.232C103.433 117.44 103.402 117.636 103.341 117.82C103.279 118.001 103.199 118.168 103.101 118.32C103.005 118.469 102.898 118.603 102.781 118.72C102.663 118.835 102.549 118.928 102.437 119H102.005C102.154 118.891 102.287 118.784 102.405 118.68C102.522 118.576 102.625 118.468 102.713 118.356C102.801 118.241 102.875 118.12 102.937 117.992C102.998 117.861 103.047 117.715 103.085 117.552L103.065 117.544C102.998 117.659 102.911 117.755 102.805 117.832C102.701 117.907 102.563 117.944 102.393 117.944C102.273 117.944 102.162 117.924 102.061 117.884C101.959 117.844 101.873 117.787 101.801 117.712C101.729 117.637 101.671 117.548 101.629 117.444C101.589 117.337 101.569 117.217 101.569 117.084C101.569 116.948 101.59 116.824 101.633 116.712C101.678 116.597 101.741 116.5 101.821 116.42C101.903 116.337 102.001 116.273 102.113 116.228C102.227 116.183 102.355 116.16 102.497 116.16C102.641 116.16 102.77 116.185 102.885 116.236C103.002 116.284 103.101 116.355 103.181 116.448C103.263 116.539 103.326 116.651 103.369 116.784C103.411 116.917 103.433 117.067 103.433 117.232ZM102.501 117.66C102.685 117.66 102.827 117.609 102.929 117.508C103.033 117.407 103.085 117.261 103.085 117.072V117.04C103.085 116.851 103.033 116.705 102.929 116.604C102.827 116.503 102.685 116.452 102.501 116.452C102.317 116.452 102.173 116.503 102.069 116.604C101.967 116.705 101.917 116.851 101.917 117.04V117.072C101.917 117.261 101.967 117.407 102.069 117.508C102.173 117.609 102.317 117.66 102.501 117.66Z" fill="black"/>
<g filter="url(#filter2_d_1803_19550)">
<path fill-rule="evenodd" clip-rule="evenodd" d="M83 118C83 116.343 84.3431 115 86 115H92C93.6569 115 95 116.343 95 118C95 119.657 93.6569 121 92 121H86C84.3431 121 83 119.657 83 118Z" fill="#FCFCFE"/>
<path fill-rule="evenodd" clip-rule="evenodd" d="M83 118C83 116.343 84.3431 115 86 115H92C93.6569 115 95 116.343 95 118C95 119.657 93.6569 121 92 121H86C84.3431 121 83 119.657 83 118Z" stroke="#979797" stroke-width="0.1"/>
</g>
<path d="M89.5008 119.048C89.3408 119.048 89.2008 119.028 89.0808 118.988C88.9608 118.945 88.8594 118.888 88.7768 118.816C88.6968 118.744 88.6354 118.659 88.5928 118.56C88.5528 118.461 88.5328 118.355 88.5328 118.24C88.5328 118.048 88.5848 117.896 88.6888 117.784C88.7928 117.672 88.9288 117.593 89.0968 117.548V117.516C88.9501 117.465 88.8328 117.384 88.7448 117.272C88.6594 117.157 88.6168 117.02 88.6168 116.86C88.6168 116.647 88.6941 116.477 88.8488 116.352C89.0034 116.224 89.2208 116.16 89.5008 116.16C89.7808 116.16 89.9981 116.224 90.1528 116.352C90.3074 116.477 90.3848 116.647 90.3848 116.86C90.3848 117.02 90.3408 117.157 90.2528 117.272C90.1674 117.384 90.0514 117.465 89.9048 117.516V117.548C90.0728 117.593 90.2088 117.672 90.3128 117.784C90.4168 117.896 90.4688 118.048 90.4688 118.24C90.4688 118.355 90.4474 118.461 90.4048 118.56C90.3648 118.659 90.3034 118.744 90.2208 118.816C90.1408 118.888 90.0408 118.945 89.9208 118.988C89.8008 119.028 89.6608 119.048 89.5008 119.048ZM89.5008 118.756C89.6954 118.756 89.8461 118.713 89.9528 118.628C90.0594 118.54 90.1128 118.416 90.1128 118.256V118.172C90.1128 118.012 90.0594 117.889 89.9528 117.804C89.8461 117.716 89.6954 117.672 89.5008 117.672C89.3061 117.672 89.1554 117.716 89.0488 117.804C88.9421 117.889 88.8888 118.012 88.8888 118.172V118.256C88.8888 118.416 88.9421 118.54 89.0488 118.628C89.1554 118.713 89.3061 118.756 89.5008 118.756ZM89.5008 117.392C89.6768 117.392 89.8101 117.355 89.9008 117.28C89.9914 117.205 90.0368 117.096 90.0368 116.952V116.892C90.0368 116.748 89.9914 116.639 89.9008 116.564C89.8101 116.489 89.6768 116.452 89.5008 116.452C89.3248 116.452 89.1914 116.489 89.1008 116.564C89.0101 116.639 88.9648 116.748 88.9648 116.892V116.952C88.9648 117.096 89.0101 117.205 89.1008 117.28C89.1914 117.355 89.3248 117.392 89.5008 117.392Z" fill="black"/>
<g filter="url(#filter3_d_1803_19550)">
<path fill-rule="evenodd" clip-rule="evenodd" d="M70 118C70 116.343 71.3431 115 73 115H79C80.6569 115 82 116.343 82 118C82 119.657 80.6569 121 79 121H73C71.3431 121 70 119.657 70 118Z" fill="#FCFCFE"/>
<path fill-rule="evenodd" clip-rule="evenodd" d="M70 118C70 116.343 71.3431 115 73 115H79C80.6569 115 82 116.343 82 118C82 119.657 80.6569 121 79 121H73C71.3431 121 70 119.657 70 118Z" stroke="#979797" stroke-width="0.1"/>
</g>
<path d="M75.0008 119L76.0688 116.496H74.8768V117.016H74.5768V116.208H76.4088V116.504L75.3608 119H75.0008Z" fill="black"/>
<g filter="url(#filter4_d_1803_19550)">
<path fill-rule="evenodd" clip-rule="evenodd" d="M96 108.5C96 107.119 97.1193 106 98.5 106H105.5C106.881 106 108 107.119 108 108.5C108 109.881 106.881 111 105.5 111H98.5C97.1193 111 96 109.881 96 108.5Z" fill="#FCFCFE"/>
<path fill-rule="evenodd" clip-rule="evenodd" d="M96 108.5C96 107.119 97.1193 106 98.5 106H105.5C106.881 106 108 107.119 108 108.5C108 109.881 106.881 111 105.5 111H98.5C97.1193 111 96 109.881 96 108.5Z" stroke="#979797" stroke-width="0.1"/>
</g>
<path d="M102.505 110.048C102.361 110.048 102.23 110.024 102.113 109.976C101.998 109.925 101.899 109.855 101.817 109.764C101.737 109.671 101.675 109.557 101.633 109.424C101.59 109.291 101.569 109.141 101.569 108.976C101.569 108.768 101.599 108.573 101.661 108.392C101.722 108.208 101.801 108.041 101.897 107.892C101.995 107.74 102.103 107.607 102.221 107.492C102.338 107.375 102.453 107.28 102.565 107.208H102.997C102.847 107.317 102.714 107.424 102.597 107.528C102.479 107.632 102.377 107.741 102.289 107.856C102.201 107.968 102.126 108.089 102.065 108.22C102.003 108.348 101.954 108.493 101.917 108.656L101.937 108.664C102.003 108.549 102.089 108.455 102.193 108.38C102.299 108.303 102.438 108.264 102.609 108.264C102.729 108.264 102.839 108.284 102.941 108.324C103.042 108.364 103.129 108.421 103.201 108.496C103.273 108.571 103.329 108.661 103.369 108.768C103.411 108.875 103.433 108.993 103.433 109.124C103.433 109.26 103.41 109.385 103.365 109.5C103.322 109.612 103.259 109.709 103.177 109.792C103.097 109.872 102.999 109.935 102.885 109.98C102.77 110.025 102.643 110.048 102.505 110.048ZM102.501 109.756C102.685 109.756 102.827 109.705 102.929 109.604C103.033 109.503 103.085 109.357 103.085 109.168V109.136C103.085 108.947 103.033 108.801 102.929 108.7C102.827 108.599 102.685 108.548 102.501 108.548C102.317 108.548 102.173 108.599 102.069 108.7C101.967 108.801 101.917 108.947 101.917 109.136V109.168C101.917 109.357 101.967 109.503 102.069 109.604C102.173 109.705 102.317 109.756 102.501 109.756Z" fill="black"/>
<g filter="url(#filter5_d_1803_19550)">
<path fill-rule="evenodd" clip-rule="evenodd" d="M83 108.5C83 107.119 84.1193 106 85.5 106H92.5C93.8807 106 95 107.119 95 108.5C95 109.881 93.8807 111 92.5 111H85.5C84.1193 111 83 109.881 83 108.5Z" fill="#FCFCFE"/>
<path fill-rule="evenodd" clip-rule="evenodd" d="M83 108.5C83 107.119 84.1193 106 85.5 106H92.5C93.8807 106 95 107.119 95 108.5C95 109.881 93.8807 111 92.5 111H85.5C84.1193 111 83 109.881 83 108.5Z" stroke="#979797" stroke-width="0.1"/>
</g>
<path d="M90.2928 107.504H89.0688L88.9888 108.568H89.0168C89.0834 108.475 89.1581 108.4 89.2408 108.344C89.3261 108.288 89.4421 108.26 89.5888 108.26C89.7088 108.26 89.8194 108.28 89.9208 108.32C90.0221 108.36 90.1101 108.417 90.1848 108.492C90.2594 108.564 90.3168 108.653 90.3568 108.76C90.3994 108.867 90.4208 108.988 90.4208 109.124C90.4208 109.26 90.3994 109.385 90.3568 109.5C90.3141 109.612 90.2514 109.709 90.1688 109.792C90.0888 109.872 89.9901 109.935 89.8728 109.98C89.7581 110.025 89.6274 110.048 89.4808 110.048C89.3634 110.048 89.2594 110.035 89.1688 110.008C89.0808 109.981 89.0021 109.945 88.9328 109.9C88.8634 109.855 88.8021 109.804 88.7488 109.748C88.6981 109.692 88.6514 109.633 88.6088 109.572L88.8608 109.38C88.8954 109.436 88.9314 109.487 88.9688 109.532C89.0088 109.577 89.0514 109.616 89.0968 109.648C89.1448 109.68 89.1994 109.705 89.2608 109.724C89.3221 109.74 89.3954 109.748 89.4808 109.748C89.6728 109.748 89.8181 109.697 89.9168 109.596C90.0154 109.495 90.0648 109.352 90.0648 109.168V109.128C90.0648 108.944 90.0154 108.801 89.9168 108.7C89.8181 108.599 89.6728 108.548 89.4808 108.548C89.3528 108.548 89.2514 108.572 89.1768 108.62C89.1048 108.665 89.0394 108.72 88.9808 108.784L88.6968 108.744L88.7968 107.208H90.2928V107.504Z" fill="black"/>
<g filter="url(#filter6_d_1803_19550)">
<path fill-rule="evenodd" clip-rule="evenodd" d="M70 108.5C70 107.119 71.1193 106 72.5 106H79.5C80.8807 106 82 107.119 82 108.5C82 109.881 80.8807 111 79.5 111H72.5C71.1193 111 70 109.881 70 108.5Z" fill="#FCFCFE"/>
<path fill-rule="evenodd" clip-rule="evenodd" d="M70 108.5C70 107.119 71.1193 106 72.5 106H79.5C80.8807 106 82 107.119 82 108.5C82 109.881 80.8807 111 79.5 111H72.5C71.1193 111 70 109.881 70 108.5Z" stroke="#979797" stroke-width="0.1"/>
</g>
<path d="M75.8008 110V109.452H74.4528V109.156L75.6208 107.208H76.1208V109.172H76.5248V109.452H76.1208V110H75.8008ZM74.7688 109.172H75.8008V107.468H75.7808L74.7688 109.172Z" fill="black"/>
<g filter="url(#filter7_d_1803_19550)">
<path fill-rule="evenodd" clip-rule="evenodd" d="M96 99C96 97.3431 97.3431 96 99 96H105C106.657 96 108 97.3431 108 99C108 100.657 106.657 102 105 102H99C97.3431 102 96 100.657 96 99Z" fill="#FCFCFE"/>
<path fill-rule="evenodd" clip-rule="evenodd" d="M96 99C96 97.3431 97.3431 96 99 96H105C106.657 96 108 97.3431 108 99C108 100.657 106.657 102 105 102H99C97.3431 102 96 100.657 96 99Z" stroke="#979797" stroke-width="0.1"/>
</g>
<path d="M102.345 98.392C102.534 98.392 102.675 98.3493 102.769 98.264C102.865 98.176 102.913 98.064 102.913 97.928V97.9C102.913 97.7533 102.866 97.644 102.773 97.572C102.682 97.4973 102.562 97.46 102.413 97.46C102.269 97.46 102.151 97.492 102.061 97.556C101.97 97.6173 101.895 97.7013 101.837 97.808L101.589 97.616C101.623 97.56 101.665 97.5053 101.713 97.452C101.763 97.396 101.822 97.3467 101.889 97.304C101.955 97.2613 102.033 97.2267 102.121 97.2C102.209 97.1733 102.309 97.16 102.421 97.16C102.538 97.16 102.649 97.176 102.753 97.208C102.857 97.2373 102.946 97.2827 103.021 97.344C103.098 97.4027 103.158 97.476 103.201 97.564C103.246 97.652 103.269 97.752 103.269 97.864C103.269 97.9547 103.254 98.036 103.225 98.108C103.198 98.18 103.161 98.2427 103.113 98.296C103.065 98.3493 103.007 98.3947 102.941 98.432C102.877 98.4693 102.807 98.4973 102.733 98.516V98.532C102.807 98.548 102.879 98.5747 102.949 98.612C103.021 98.6467 103.083 98.6933 103.137 98.752C103.193 98.808 103.237 98.8773 103.269 98.96C103.303 99.04 103.321 99.132 103.321 99.236C103.321 99.356 103.298 99.4667 103.253 99.568C103.207 99.6667 103.143 99.752 103.061 99.824C102.978 99.8933 102.878 99.948 102.761 99.988C102.643 100.028 102.514 100.048 102.373 100.048C102.253 100.048 102.146 100.035 102.053 100.008C101.959 99.9813 101.877 99.9453 101.805 99.9C101.733 99.8547 101.669 99.804 101.613 99.748C101.559 99.692 101.511 99.6333 101.469 99.572L101.721 99.38C101.755 99.436 101.793 99.4867 101.833 99.532C101.875 99.5773 101.922 99.616 101.973 99.648C102.023 99.68 102.081 99.7053 102.145 99.724C102.209 99.74 102.283 99.748 102.369 99.748C102.566 99.748 102.715 99.704 102.817 99.616C102.918 99.5253 102.969 99.3973 102.969 99.232V99.2C102.969 99.0347 102.918 98.908 102.817 98.82C102.715 98.7293 102.566 98.684 102.369 98.684H102.041V98.392H102.345Z" fill="black"/>
<g filter="url(#filter8_d_1803_19550)">
<path fill-rule="evenodd" clip-rule="evenodd" d="M83 99C83 97.3431 84.3431 96 86 96H92C93.6569 96 95 97.3431 95 99C95 100.657 93.6569 102 92 102H86C84.3431 102 83 100.657 83 99Z" fill="#FCFCFE"/>
<path fill-rule="evenodd" clip-rule="evenodd" d="M83 99C83 97.3431 84.3431 96 86 96H92C93.6569 96 95 97.3431 95 99C95 100.657 93.6569 102 92 102H86C84.3431 102 83 100.657 83 99Z" stroke="#979797" stroke-width="0.1"/>
</g>
<path d="M90.4328 100H88.6008V99.656L89.5128 98.816C89.6434 98.696 89.7528 98.5693 89.8408 98.436C89.9288 98.3 89.9728 98.164 89.9728 98.028V97.98C89.9728 97.8253 89.9301 97.7 89.8448 97.604C89.7594 97.508 89.6301 97.46 89.4568 97.46C89.3714 97.46 89.2968 97.472 89.2328 97.496C89.1688 97.52 89.1128 97.5533 89.0648 97.596C89.0194 97.6387 88.9808 97.6893 88.9488 97.748C88.9194 97.804 88.8954 97.8653 88.8768 97.932L88.5768 97.816C88.6034 97.7333 88.6394 97.6533 88.6848 97.576C88.7328 97.496 88.7914 97.4253 88.8608 97.364C88.9328 97.3027 89.0181 97.2533 89.1168 97.216C89.2181 97.1787 89.3368 97.16 89.4728 97.16C89.6088 97.16 89.7301 97.18 89.8368 97.22C89.9434 97.26 90.0328 97.316 90.1048 97.388C90.1768 97.46 90.2314 97.5453 90.2688 97.644C90.3088 97.7427 90.3288 97.852 90.3288 97.972C90.3288 98.0813 90.3128 98.1827 90.2808 98.276C90.2514 98.3693 90.2101 98.4587 90.1568 98.544C90.1034 98.6267 90.0381 98.708 89.9608 98.788C89.8861 98.868 89.8048 98.948 89.7168 99.028L88.9648 99.704H90.4328V100Z" fill="black"/>
<g filter="url(#filter9_d_1803_19550)">
<path fill-rule="evenodd" clip-rule="evenodd" d="M70 99C70 97.3431 71.3431 96 73 96H79C80.6569 96 82 97.3431 82 99C82 100.657 80.6569 102 79 102H73C71.3431 102 70 100.657 70 99Z" fill="#FCFCFE"/>
<path fill-rule="evenodd" clip-rule="evenodd" d="M70 99C70 97.3431 71.3431 96 73 96H79C80.6569 96 82 97.3431 82 99C82 100.657 80.6569 102 79 102H73C71.3431 102 70 100.657 70 99Z" stroke="#979797" stroke-width="0.1"/>
</g>
<path d="M74.6528 100V99.704H75.4328V97.456H75.4048L74.7008 98.112L74.5048 97.9L75.2448 97.208H75.7688V99.704H76.4888V100H74.6528Z" fill="black"/>
<path d="M87.2812 150.6C87.2812 150.6 87.3513 150.56 87.3913 150.54C87.3513 150.56 87.3112 150.58 87.2812 150.6Z" fill="#F8BC92"/>
<path d="M147.051 166.49L148.301 145.18C144.641 139.97 137.861 141.9 137.861 141.9C137.491 136.86 132.421 135.31 132.421 135.31C127.421 133.67 124.801 138.08 124.801 138.08C122.131 131.43 116.641 133.33 116.641 133.33C109.511 136.21 112.671 143.34 112.671 143.34C107.681 133.11 101.491 122.69 98.7712 118.22L98.5912 118.31L90.9712 122.37C94.1412 132.97 106.411 158.54 106.411 158.54C94.5812 149.61 89.5812 149.49 87.5512 150.45L85.5912 152.9C84.4612 157.34 95.1912 164.51 95.1912 164.51C96.4112 166.52 103.801 176.5 103.801 176.5C125.171 204.74 166.351 179.42 166.351 179.42L147.041 166.48L147.051 166.49Z" fill="#F8BC92"/>
<path d="M166.361 179.43C166.361 179.43 155.311 154.21 148.291 145.18L147.041 166.49L166.351 179.43H166.361Z" fill="#F8BC92"/>
<path d="M87.5516 150.45H87.5416C87.5416 150.45 87.4516 150.5 87.4116 150.52H87.4016C87.4016 150.52 87.3216 150.57 87.2916 150.59C85.9016 151.41 85.6016 152.9 85.6016 152.9L87.5616 150.44L87.5516 150.45Z" fill="#F8BC92"/>
<path d="M98.7683 118.22C98.5683 117.83 98.3583 117.49 98.1383 117.19C98.0483 117.06 97.9583 116.95 97.8683 116.84C97.5283 116.43 97.1783 116.12 96.8283 115.88C95.0983 114.7 93.3583 115.32 92.9383 115.5C92.8983 115.52 92.8683 115.53 92.8583 115.54H92.8283L92.8083 115.57C90.8883 116.48 90.3083 117.88 90.2383 119.09V119.37C90.2383 120.57 90.6783 121.52 90.6783 121.52L90.9783 122.4L91.6583 122.04L98.4983 118.4L98.6083 118.34L98.7883 118.25L98.7683 118.22Z" fill="#F8BC92"/>
<path d="M89.9012 151.15C87.1812 150.35 85.4812 153.47 85.4812 153.47C84.9412 157.14 93.6112 163.42 93.6112 163.42C95.9512 162.27 96.4012 159.21 96.4012 159.21C96.6012 154.73 89.9112 151.15 89.9112 151.15H89.9012Z" fill="#F8D9C2"/>
<path d="M98.4814 118.37C98.4114 118.17 98.3414 117.98 98.2714 117.8L92.9414 123.72C96.3314 127.34 98.6514 123.12 98.6514 123.12C99.3714 121.76 99.0014 119.86 98.4814 118.37Z" fill="#F8D9C2"/>
<path d="M95.9413 115.76C94.2213 115.31 92.5413 116.44 92.5413 116.44C91.9413 116.85 91.5013 117.28 91.2013 117.71C90.9313 118.1 90.7713 118.5 90.6913 118.89C90.5613 119.53 90.6613 120.16 90.8613 120.74C91.4113 122.31 92.7813 123.55 92.9313 123.7H92.9413L98.2713 117.79C97.6113 116.55 96.7713 115.97 95.9413 115.75V115.76Z" fill="#F8D9C2"/>
<path d="M95.6406 125.2C95.6406 125.2 99.3106 125.16 99.0506 121.42C98.8006 117.68 95.6406 125.2 95.6406 125.2Z" fill="#F8D9C2"/>
<rect x="69.25" y="65.25" width="37.5" height="6.35246" rx="3.17623" fill="#F1ECEE" stroke="#6A2A41" stroke-width="0.5"/>
<path opacity="0.3" d="M72.004 69.748V68.956H71.268V68.6H72.004V67.808H72.396V68.6H73.132V68.956H72.396V69.748H72.004ZM75.5744 68.248C75.5744 68.4507 75.5438 68.6413 75.4824 68.82C75.4211 68.9987 75.3424 69.1627 75.2464 69.312C75.1504 69.4613 75.0424 69.5947 74.9224 69.712C74.8051 69.8293 74.6891 69.9253 74.5744 70H73.9744C74.1318 69.8853 74.2731 69.7747 74.3984 69.668C74.5238 69.5613 74.6331 69.452 74.7264 69.34C74.8198 69.228 74.8971 69.1093 74.9584 68.984C75.0224 68.8587 75.0718 68.7213 75.1064 68.572L75.0784 68.564C75.0491 68.62 75.0144 68.6733 74.9744 68.724C74.9371 68.772 74.8918 68.8147 74.8384 68.852C74.7878 68.8893 74.7291 68.9187 74.6624 68.94C74.5958 68.9613 74.5184 68.972 74.4304 68.972C74.3131 68.972 74.2038 68.952 74.1024 68.912C74.0038 68.872 73.9171 68.8147 73.8424 68.74C73.7704 68.6627 73.7131 68.572 73.6704 68.468C73.6304 68.3613 73.6104 68.2413 73.6104 68.108C73.6104 67.9693 73.6331 67.8413 73.6784 67.724C73.7264 67.6067 73.7931 67.5067 73.8784 67.424C73.9638 67.3413 74.0664 67.2773 74.1864 67.232C74.3064 67.184 74.4411 67.16 74.5904 67.16C74.7451 67.16 74.8824 67.1853 75.0024 67.236C75.1251 67.2867 75.2278 67.36 75.3104 67.456C75.3958 67.5493 75.4611 67.6627 75.5064 67.796C75.5518 67.9293 75.5744 68.08 75.5744 68.248ZM74.5904 68.608C74.7531 68.608 74.8798 68.5653 74.9704 68.48C75.0611 68.392 75.1064 68.264 75.1064 68.096V68.04C75.1064 67.872 75.0611 67.7453 74.9704 67.66C74.8798 67.572 74.7531 67.528 74.5904 67.528C74.4278 67.528 74.3011 67.572 74.2104 67.66C74.1198 67.7453 74.0744 67.872 74.0744 68.04V68.096C74.0744 68.264 74.1198 68.392 74.2104 68.48C74.3011 68.5653 74.4278 68.608 74.5904 68.608ZM76.1489 70V69.624H76.9329V67.536H76.9009L76.2529 68.228L75.9769 67.98L76.6889 67.208H77.3769V69.624H78.0569V70H76.1489ZM81.3166 68.248C81.3166 68.4507 81.286 68.6413 81.2246 68.82C81.1633 68.9987 81.0846 69.1627 80.9886 69.312C80.8926 69.4613 80.7846 69.5947 80.6646 69.712C80.5473 69.8293 80.4313 69.9253 80.3166 70H79.7166C79.874 69.8853 80.0153 69.7747 80.1406 69.668C80.266 69.5613 80.3753 69.452 80.4686 69.34C80.562 69.228 80.6393 69.1093 80.7006 68.984C80.7646 68.8587 80.814 68.7213 80.8486 68.572L80.8206 68.564C80.7913 68.62 80.7566 68.6733 80.7166 68.724C80.6793 68.772 80.634 68.8147 80.5806 68.852C80.53 68.8893 80.4713 68.9187 80.4046 68.94C80.338 68.9613 80.2606 68.972 80.1726 68.972C80.0553 68.972 79.946 68.952 79.8446 68.912C79.746 68.872 79.6593 68.8147 79.5846 68.74C79.5126 68.6627 79.4553 68.572 79.4126 68.468C79.3726 68.3613 79.3526 68.2413 79.3526 68.108C79.3526 67.9693 79.3753 67.8413 79.4206 67.724C79.4686 67.6067 79.5353 67.5067 79.6206 67.424C79.706 67.3413 79.8086 67.2773 79.9286 67.232C80.0486 67.184 80.1833 67.16 80.3326 67.16C80.4873 67.16 80.6246 67.1853 80.7446 67.236C80.8673 67.2867 80.97 67.36 81.0526 67.456C81.138 67.5493 81.2033 67.6627 81.2486 67.796C81.294 67.9293 81.3166 68.08 81.3166 68.248ZM80.3326 68.608C80.4953 68.608 80.622 68.5653 80.7126 68.48C80.8033 68.392 80.8486 68.264 80.8486 68.096V68.04C80.8486 67.872 80.8033 67.7453 80.7126 67.66C80.622 67.572 80.4953 67.528 80.3326 67.528C80.17 67.528 80.0433 67.572 79.9526 67.66C79.862 67.7453 79.8166 67.872 79.8166 68.04V68.096C79.8166 68.264 79.862 68.392 79.9526 68.48C80.0433 68.5653 80.17 68.608 80.3326 68.608Z" fill="#6A2A41"/>
<path d="M69.258 59V56.906H70.599V57.206H69.597V57.788H70.506V58.088H69.597V58.7H70.599V59H69.258ZM71.0123 59V57.44H71.3393V57.698H71.3543C71.3883 57.614 71.4393 57.544 71.5073 57.488C71.5773 57.432 71.6723 57.404 71.7923 57.404C71.9523 57.404 72.0763 57.457 72.1643 57.563C72.2543 57.667 72.2993 57.816 72.2993 58.01V59H71.9723V58.052C71.9723 57.808 71.8743 57.686 71.6783 57.686C71.6363 57.686 71.5943 57.692 71.5523 57.704C71.5123 57.714 71.4763 57.73 71.4443 57.752C71.4123 57.774 71.3863 57.802 71.3663 57.836C71.3483 57.87 71.3393 57.91 71.3393 57.956V59H71.0123ZM73.1846 59C73.0706 59 72.9846 58.971 72.9266 58.913C72.8686 58.853 72.8396 58.769 72.8396 58.661V57.707H72.5966V57.44H72.7286C72.7826 57.44 72.8196 57.428 72.8396 57.404C72.8616 57.38 72.8726 57.341 72.8726 57.287V57.014H73.1666V57.44H73.4936V57.707H73.1666V58.733H73.4696V59H73.1846ZM74.4485 59.036C74.3365 59.036 74.2365 59.017 74.1485 58.979C74.0605 58.941 73.9855 58.887 73.9235 58.817C73.8615 58.745 73.8135 58.659 73.7795 58.559C73.7475 58.457 73.7315 58.344 73.7315 58.22C73.7315 58.096 73.7475 57.984 73.7795 57.884C73.8135 57.782 73.8615 57.696 73.9235 57.626C73.9855 57.554 74.0605 57.499 74.1485 57.461C74.2365 57.423 74.3365 57.404 74.4485 57.404C74.5625 57.404 74.6625 57.424 74.7485 57.464C74.8365 57.504 74.9095 57.56 74.9675 57.632C75.0255 57.702 75.0685 57.784 75.0965 57.878C75.1265 57.972 75.1415 58.073 75.1415 58.181V58.304H74.0705V58.355C74.0705 58.475 74.1055 58.574 74.1755 58.652C74.2475 58.728 74.3495 58.766 74.4815 58.766C74.5775 58.766 74.6585 58.745 74.7245 58.703C74.7905 58.661 74.8465 58.604 74.8925 58.532L75.0845 58.721C75.0265 58.817 74.9425 58.894 74.8325 58.952C74.7225 59.008 74.5945 59.036 74.4485 59.036ZM74.4485 57.659C74.3925 57.659 74.3405 57.669 74.2925 57.689C74.2465 57.709 74.2065 57.737 74.1725 57.773C74.1405 57.809 74.1155 57.852 74.0975 57.902C74.0795 57.952 74.0705 58.007 74.0705 58.067V58.088H74.7965V58.058C74.7965 57.938 74.7655 57.842 74.7035 57.77C74.6415 57.696 74.5565 57.659 74.4485 57.659ZM75.5035 59V57.44H75.8305V57.74H75.8455C75.8675 57.66 75.9135 57.59 75.9835 57.53C76.0535 57.47 76.1505 57.44 76.2745 57.44H76.3615V57.755H76.2325C76.1025 57.755 76.0025 57.776 75.9325 57.818C75.8645 57.86 75.8305 57.922 75.8305 58.004V59H75.5035ZM78.318 57.44H78.633L77.976 59.309C77.958 59.361 77.937 59.405 77.913 59.441C77.891 59.479 77.864 59.509 77.832 59.531C77.802 59.555 77.765 59.572 77.721 59.582C77.677 59.594 77.625 59.6 77.565 59.6H77.376V59.333H77.64L77.73 59.069L77.163 57.44H77.49L77.802 58.358L77.892 58.697H77.907L78.006 58.358L78.318 57.44ZM79.4964 59.036C79.3884 59.036 79.2894 59.017 79.1994 58.979C79.1114 58.941 79.0364 58.887 78.9744 58.817C78.9124 58.745 78.8644 58.659 78.8304 58.559C78.7964 58.457 78.7794 58.344 78.7794 58.22C78.7794 58.096 78.7964 57.984 78.8304 57.884C78.8644 57.782 78.9124 57.696 78.9744 57.626C79.0364 57.554 79.1114 57.499 79.1994 57.461C79.2894 57.423 79.3884 57.404 79.4964 57.404C79.6044 57.404 79.7024 57.423 79.7904 57.461C79.8804 57.499 79.9564 57.554 80.0184 57.626C80.0804 57.696 80.1284 57.782 80.1624 57.884C80.1964 57.984 80.2134 58.096 80.2134 58.22C80.2134 58.344 80.1964 58.457 80.1624 58.559C80.1284 58.659 80.0804 58.745 80.0184 58.817C79.9564 58.887 79.8804 58.941 79.7904 58.979C79.7024 59.017 79.6044 59.036 79.4964 59.036ZM79.4964 58.766C79.6084 58.766 79.6984 58.732 79.7664 58.664C79.8344 58.594 79.8684 58.49 79.8684 58.352V58.088C79.8684 57.95 79.8344 57.847 79.7664 57.779C79.6984 57.709 79.6084 57.674 79.4964 57.674C79.3844 57.674 79.2944 57.709 79.2264 57.779C79.1584 57.847 79.1244 57.95 79.1244 58.088V58.352C79.1244 58.49 79.1584 58.594 79.2264 58.664C79.2944 58.732 79.3844 58.766 79.4964 58.766ZM81.5228 58.742H81.5108C81.4968 58.78 81.4778 58.817 81.4538 58.853C81.4318 58.889 81.4028 58.921 81.3668 58.949C81.3328 58.975 81.2908 58.996 81.2408 59.012C81.1928 59.028 81.1368 59.036 81.0728 59.036C80.9108 59.036 80.7848 58.984 80.6948 58.88C80.6068 58.776 80.5628 58.627 80.5628 58.433V57.44H80.8898V58.391C80.8898 58.633 80.9898 58.754 81.1898 58.754C81.2318 58.754 81.2728 58.749 81.3128 58.739C81.3528 58.727 81.3878 58.71 81.4178 58.688C81.4498 58.666 81.4748 58.638 81.4928 58.604C81.5128 58.57 81.5228 58.53 81.5228 58.484V57.44H81.8498V59H81.5228V58.742ZM82.318 59V57.44H82.645V57.74H82.66C82.682 57.66 82.728 57.59 82.798 57.53C82.868 57.47 82.965 57.44 83.089 57.44H83.176V57.755H83.047C82.917 57.755 82.817 57.776 82.747 57.818C82.679 57.86 82.645 57.922 82.645 58.004V59H82.318ZM84.1994 59V56.906H85.0994C85.2934 56.906 85.4434 56.963 85.5494 57.077C85.6554 57.191 85.7084 57.344 85.7084 57.536C85.7084 57.728 85.6554 57.881 85.5494 57.995C85.4434 58.109 85.2934 58.166 85.0994 58.166H84.5384V59H84.1994ZM84.5384 57.869H85.0784C85.1644 57.869 85.2314 57.847 85.2794 57.803C85.3274 57.757 85.3514 57.692 85.3514 57.608V57.464C85.3514 57.38 85.3274 57.316 85.2794 57.272C85.2314 57.226 85.1644 57.203 85.0784 57.203H84.5384V57.869ZM86.0563 56.78H86.3833V57.698H86.3983C86.4323 57.614 86.4833 57.544 86.5513 57.488C86.6213 57.432 86.7163 57.404 86.8363 57.404C86.9963 57.404 87.1203 57.457 87.2083 57.563C87.2983 57.667 87.3433 57.816 87.3433 58.01V59H87.0163V58.049C87.0163 57.807 86.9183 57.686 86.7223 57.686C86.6803 57.686 86.6383 57.692 86.5963 57.704C86.5563 57.714 86.5203 57.73 86.4883 57.752C86.4563 57.774 86.4303 57.802 86.4103 57.836C86.3923 57.87 86.3833 57.909 86.3833 57.953V59H86.0563V56.78ZM88.4085 59.036C88.3005 59.036 88.2015 59.017 88.1115 58.979C88.0235 58.941 87.9485 58.887 87.8865 58.817C87.8245 58.745 87.7765 58.659 87.7425 58.559C87.7085 58.457 87.6915 58.344 87.6915 58.22C87.6915 58.096 87.7085 57.984 87.7425 57.884C87.7765 57.782 87.8245 57.696 87.8865 57.626C87.9485 57.554 88.0235 57.499 88.1115 57.461C88.2015 57.423 88.3005 57.404 88.4085 57.404C88.5165 57.404 88.6145 57.423 88.7025 57.461C88.7925 57.499 88.8685 57.554 88.9305 57.626C88.9925 57.696 89.0405 57.782 89.0745 57.884C89.1085 57.984 89.1255 58.096 89.1255 58.22C89.1255 58.344 89.1085 58.457 89.0745 58.559C89.0405 58.659 88.9925 58.745 88.9305 58.817C88.8685 58.887 88.7925 58.941 88.7025 58.979C88.6145 59.017 88.5165 59.036 88.4085 59.036ZM88.4085 58.766C88.5205 58.766 88.6105 58.732 88.6785 58.664C88.7465 58.594 88.7805 58.49 88.7805 58.352V58.088C88.7805 57.95 88.7465 57.847 88.6785 57.779C88.6105 57.709 88.5205 57.674 88.4085 57.674C88.2965 57.674 88.2065 57.709 88.1385 57.779C88.0705 57.847 88.0365 57.95 88.0365 58.088V58.352C88.0365 58.49 88.0705 58.594 88.1385 58.664C88.2065 58.732 88.2965 58.766 88.4085 58.766ZM89.4899 59V57.44H89.8169V57.698H89.8319C89.8659 57.614 89.9169 57.544 89.9849 57.488C90.0549 57.432 90.1499 57.404 90.2699 57.404C90.4299 57.404 90.5539 57.457 90.6419 57.563C90.7319 57.667 90.7769 57.816 90.7769 58.01V59H90.4499V58.052C90.4499 57.808 90.3519 57.686 90.1559 57.686C90.1139 57.686 90.0719 57.692 90.0299 57.704C89.9899 57.714 89.9539 57.73 89.9219 57.752C89.8899 57.774 89.8639 57.802 89.8439 57.836C89.8259 57.87 89.8169 57.91 89.8169 57.956V59H89.4899ZM91.8421 59.036C91.7301 59.036 91.6301 59.017 91.5421 58.979C91.4541 58.941 91.3791 58.887 91.3171 58.817C91.2551 58.745 91.2071 58.659 91.1731 58.559C91.1411 58.457 91.1251 58.344 91.1251 58.22C91.1251 58.096 91.1411 57.984 91.1731 57.884C91.2071 57.782 91.2551 57.696 91.3171 57.626C91.3791 57.554 91.4541 57.499 91.5421 57.461C91.6301 57.423 91.7301 57.404 91.8421 57.404C91.9561 57.404 92.0561 57.424 92.1421 57.464C92.2301 57.504 92.3031 57.56 92.3611 57.632C92.4191 57.702 92.4621 57.784 92.4901 57.878C92.5201 57.972 92.5351 58.073 92.5351 58.181V58.304H91.4641V58.355C91.4641 58.475 91.4991 58.574 91.5691 58.652C91.6411 58.728 91.7431 58.766 91.8751 58.766C91.9711 58.766 92.0521 58.745 92.1181 58.703C92.1841 58.661 92.2401 58.604 92.2861 58.532L92.4781 58.721C92.4201 58.817 92.3361 58.894 92.2261 58.952C92.1161 59.008 91.9881 59.036 91.8421 59.036ZM91.8421 57.659C91.7861 57.659 91.7341 57.669 91.6861 57.689C91.6401 57.709 91.6001 57.737 91.5661 57.773C91.5341 57.809 91.5091 57.852 91.4911 57.902C91.4731 57.952 91.4641 58.007 91.4641 58.067V58.088H92.1901V58.058C92.1901 57.938 92.1591 57.842 92.0971 57.77C92.0351 57.696 91.9501 57.659 91.8421 57.659ZM94.1941 57.842L93.9631 57.398H93.9541V59H93.6301V56.906H94.0081L94.6921 58.064L94.9231 58.508H94.9321V56.906H95.2561V59H94.8781L94.1941 57.842ZM96.6927 58.742H96.6807C96.6667 58.78 96.6477 58.817 96.6237 58.853C96.6017 58.889 96.5727 58.921 96.5367 58.949C96.5027 58.975 96.4607 58.996 96.4107 59.012C96.3627 59.028 96.3067 59.036 96.2427 59.036C96.0807 59.036 95.9547 58.984 95.8647 58.88C95.7767 58.776 95.7327 58.627 95.7327 58.433V57.44H96.0597V58.391C96.0597 58.633 96.1597 58.754 96.3597 58.754C96.4017 58.754 96.4427 58.749 96.4827 58.739C96.5227 58.727 96.5577 58.71 96.5877 58.688C96.6197 58.666 96.6447 58.638 96.6627 58.604C96.6827 58.57 96.6927 58.53 96.6927 58.484V57.44H97.0197V59H96.6927V58.742ZM97.4879 59V57.44H97.8149V57.698H97.8299C97.8459 57.658 97.8649 57.62 97.8869 57.584C97.9109 57.548 97.9389 57.517 97.9709 57.491C98.0049 57.463 98.0439 57.442 98.0879 57.428C98.1339 57.412 98.1869 57.404 98.2469 57.404C98.3529 57.404 98.4469 57.43 98.5289 57.482C98.6109 57.534 98.6709 57.614 98.7089 57.722H98.7179C98.7459 57.634 98.7999 57.559 98.8799 57.497C98.9599 57.435 99.0629 57.404 99.1889 57.404C99.3449 57.404 99.4659 57.457 99.5519 57.563C99.6379 57.667 99.6809 57.816 99.6809 58.01V59H99.3539V58.049C99.3539 57.929 99.3309 57.839 99.2849 57.779C99.2389 57.717 99.1659 57.686 99.0659 57.686C99.0239 57.686 98.9839 57.692 98.9459 57.704C98.9079 57.714 98.8739 57.73 98.8439 57.752C98.8159 57.774 98.7929 57.802 98.7749 57.836C98.7569 57.87 98.7479 57.909 98.7479 57.953V59H98.4209V58.049C98.4209 57.807 98.3259 57.686 98.1359 57.686C98.0959 57.686 98.0559 57.692 98.0159 57.704C97.9779 57.714 97.9439 57.73 97.9139 57.752C97.8839 57.774 97.8599 57.802 97.8419 57.836C97.8239 57.87 97.8149 57.909 97.8149 57.953V59H97.4879ZM100.133 56.78H100.46V57.698H100.475C100.509 57.604 100.564 57.532 100.64 57.482C100.718 57.43 100.809 57.404 100.913 57.404C101.111 57.404 101.264 57.476 101.372 57.62C101.48 57.762 101.534 57.962 101.534 58.22C101.534 58.478 101.48 58.679 101.372 58.823C101.264 58.965 101.111 59.036 100.913 59.036C100.809 59.036 100.718 59.01 100.64 58.958C100.564 58.906 100.509 58.834 100.475 58.742H100.46V59H100.133V56.78ZM100.814 58.754C100.928 58.754 101.019 58.718 101.087 58.646C101.155 58.572 101.189 58.475 101.189 58.355V58.085C101.189 57.965 101.155 57.869 101.087 57.797C101.019 57.723 100.928 57.686 100.814 57.686C100.714 57.686 100.63 57.711 100.562 57.761C100.494 57.809 100.46 57.873 100.46 57.953V58.487C100.46 58.567 100.494 58.632 100.562 58.682C100.63 58.73 100.714 58.754 100.814 58.754ZM102.521 59.036C102.409 59.036 102.309 59.017 102.221 58.979C102.133 58.941 102.058 58.887 101.996 58.817C101.934 58.745 101.886 58.659 101.852 58.559C101.82 58.457 101.804 58.344 101.804 58.22C101.804 58.096 101.82 57.984 101.852 57.884C101.886 57.782 101.934 57.696 101.996 57.626C102.058 57.554 102.133 57.499 102.221 57.461C102.309 57.423 102.409 57.404 102.521 57.404C102.635 57.404 102.735 57.424 102.821 57.464C102.909 57.504 102.982 57.56 103.04 57.632C103.098 57.702 103.141 57.784 103.169 57.878C103.199 57.972 103.214 58.073 103.214 58.181V58.304H102.143V58.355C102.143 58.475 102.178 58.574 102.248 58.652C102.32 58.728 102.422 58.766 102.554 58.766C102.65 58.766 102.731 58.745 102.797 58.703C102.863 58.661 102.919 58.604 102.965 58.532L103.157 58.721C103.099 58.817 103.015 58.894 102.905 58.952C102.795 59.008 102.667 59.036 102.521 59.036ZM102.521 57.659C102.465 57.659 102.413 57.669 102.365 57.689C102.319 57.709 102.279 57.737 102.245 57.773C102.213 57.809 102.188 57.852 102.17 57.902C102.152 57.952 102.143 58.007 102.143 58.067V58.088H102.869V58.058C102.869 57.938 102.838 57.842 102.776 57.77C102.714 57.696 102.629 57.659 102.521 57.659ZM103.576 59V57.44H103.903V57.74H103.918C103.94 57.66 103.986 57.59 104.056 57.53C104.126 57.47 104.223 57.44 104.347 57.44H104.434V57.755H104.305C104.175 57.755 104.075 57.776 104.005 57.818C103.937 57.86 103.903 57.922 103.903 58.004V59H103.576Z" fill="#6A2A41"/>
<line x1="82.1" y1="66" x2="82.1" y2="71" stroke="#6A2A41" stroke-width="0.2"/>
</g>
<defs>
<filter id="filter0_d_1803_19550" x="82.95" y="124.95" width="12.1001" height="5.6001" filterUnits="userSpaceOnUse" color-interpolation-filters="sRGB">
<feFlood flood-opacity="0" result="BackgroundImageFix"/>
<feColorMatrix in="SourceAlpha" type="matrix" values="0 0 0 0 0 0 0 0 0 0 0 0 0 0 0 0 0 0 127 0" result="hardAlpha"/>
<feOffset dy="0.5"/>
<feColorMatrix type="matrix" values="0 0 0 0 0.537255 0 0 0 0 0.541176 0 0 0 0 0.552941 0 0 0 1 0"/>
<feBlend mode="normal" in2="BackgroundImageFix" result="effect1_dropShadow_1803_19550"/>
<feBlend mode="normal" in="SourceGraphic" in2="effect1_dropShadow_1803_19550" result="shape"/>
</filter>
<filter id="filter1_d_1803_19550" x="95.95" y="114.95" width="12.1001" height="6.6001" filterUnits="userSpaceOnUse" color-interpolation-filters="sRGB">
<feFlood flood-opacity="0" result="BackgroundImageFix"/>
<feColorMatrix in="SourceAlpha" type="matrix" values="0 0 0 0 0 0 0 0 0 0 0 0 0 0 0 0 0 0 127 0" result="hardAlpha"/>
<feOffset dy="0.5"/>
<feColorMatrix type="matrix" values="0 0 0 0 0.537255 0 0 0 0 0.541176 0 0 0 0 0.552941 0 0 0 1 0"/>
<feBlend mode="normal" in2="BackgroundImageFix" result="effect1_dropShadow_1803_19550"/>
<feBlend mode="normal" in="SourceGraphic" in2="effect1_dropShadow_1803_19550" result="shape"/>
</filter>
<filter id="filter2_d_1803_19550" x="82.95" y="114.95" width="12.1001" height="6.6001" filterUnits="userSpaceOnUse" color-interpolation-filters="sRGB">
<feFlood flood-opacity="0" result="BackgroundImageFix"/>
<feColorMatrix in="SourceAlpha" type="matrix" values="0 0 0 0 0 0 0 0 0 0 0 0 0 0 0 0 0 0 127 0" result="hardAlpha"/>
<feOffset dy="0.5"/>
<feColorMatrix type="matrix" values="0 0 0 0 0.537255 0 0 0 0 0.541176 0 0 0 0 0.552941 0 0 0 1 0"/>
<feBlend mode="normal" in2="BackgroundImageFix" result="effect1_dropShadow_1803_19550"/>
<feBlend mode="normal" in="SourceGraphic" in2="effect1_dropShadow_1803_19550" result="shape"/>
</filter>
<filter id="filter3_d_1803_19550" x="69.95" y="114.95" width="12.1001" height="6.6001" filterUnits="userSpaceOnUse" color-interpolation-filters="sRGB">
<feFlood flood-opacity="0" result="BackgroundImageFix"/>
<feColorMatrix in="SourceAlpha" type="matrix" values="0 0 0 0 0 0 0 0 0 0 0 0 0 0 0 0 0 0 127 0" result="hardAlpha"/>
<feOffset dy="0.5"/>
<feColorMatrix type="matrix" values="0 0 0 0 0.537255 0 0 0 0 0.541176 0 0 0 0 0.552941 0 0 0 1 0"/>
<feBlend mode="normal" in2="BackgroundImageFix" result="effect1_dropShadow_1803_19550"/>
<feBlend mode="normal" in="SourceGraphic" in2="effect1_dropShadow_1803_19550" result="shape"/>
</filter>
<filter id="filter4_d_1803_19550" x="95.95" y="105.95" width="12.1001" height="5.6001" filterUnits="userSpaceOnUse" color-interpolation-filters="sRGB">
<feFlood flood-opacity="0" result="BackgroundImageFix"/>
<feColorMatrix in="SourceAlpha" type="matrix" values="0 0 0 0 0 0 0 0 0 0 0 0 0 0 0 0 0 0 127 0" result="hardAlpha"/>
<feOffset dy="0.5"/>
<feColorMatrix type="matrix" values="0 0 0 0 0.537255 0 0 0 0 0.541176 0 0 0 0 0.552941 0 0 0 1 0"/>
<feBlend mode="normal" in2="BackgroundImageFix" result="effect1_dropShadow_1803_19550"/>
<feBlend mode="normal" in="SourceGraphic" in2="effect1_dropShadow_1803_19550" result="shape"/>
</filter>
<filter id="filter5_d_1803_19550" x="82.95" y="105.95" width="12.1001" height="5.6001" filterUnits="userSpaceOnUse" color-interpolation-filters="sRGB">
<feFlood flood-opacity="0" result="BackgroundImageFix"/>
<feColorMatrix in="SourceAlpha" type="matrix" values="0 0 0 0 0 0 0 0 0 0 0 0 0 0 0 0 0 0 127 0" result="hardAlpha"/>
<feOffset dy="0.5"/>
<feColorMatrix type="matrix" values="0 0 0 0 0.537255 0 0 0 0 0.541176 0 0 0 0 0.552941 0 0 0 1 0"/>
<feBlend mode="normal" in2="BackgroundImageFix" result="effect1_dropShadow_1803_19550"/>
<feBlend mode="normal" in="SourceGraphic" in2="effect1_dropShadow_1803_19550" result="shape"/>
</filter>
<filter id="filter6_d_1803_19550" x="69.95" y="105.95" width="12.1001" height="5.6001" filterUnits="userSpaceOnUse" color-interpolation-filters="sRGB">
<feFlood flood-opacity="0" result="BackgroundImageFix"/>
<feColorMatrix in="SourceAlpha" type="matrix" values="0 0 0 0 0 0 0 0 0 0 0 0 0 0 0 0 0 0 127 0" result="hardAlpha"/>
<feOffset dy="0.5"/>
<feColorMatrix type="matrix" values="0 0 0 0 0.537255 0 0 0 0 0.541176 0 0 0 0 0.552941 0 0 0 1 0"/>
<feBlend mode="normal" in2="BackgroundImageFix" result="effect1_dropShadow_1803_19550"/>
<feBlend mode="normal" in="SourceGraphic" in2="effect1_dropShadow_1803_19550" result="shape"/>
</filter>
<filter id="filter7_d_1803_19550" x="95.95" y="95.95" width="12.1001" height="6.6001" filterUnits="userSpaceOnUse" color-interpolation-filters="sRGB">
<feFlood flood-opacity="0" result="BackgroundImageFix"/>
<feColorMatrix in="SourceAlpha" type="matrix" values="0 0 0 0 0 0 0 0 0 0 0 0 0 0 0 0 0 0 127 0" result="hardAlpha"/>
<feOffset dy="0.5"/>
<feColorMatrix type="matrix" values="0 0 0 0 0.537255 0 0 0 0 0.541176 0 0 0 0 0.552941 0 0 0 1 0"/>
<feBlend mode="normal" in2="BackgroundImageFix" result="effect1_dropShadow_1803_19550"/>
<feBlend mode="normal" in="SourceGraphic" in2="effect1_dropShadow_1803_19550" result="shape"/>
</filter>
<filter id="filter8_d_1803_19550" x="82.95" y="95.95" width="12.1001" height="6.6001" filterUnits="userSpaceOnUse" color-interpolation-filters="sRGB">
<feFlood flood-opacity="0" result="BackgroundImageFix"/>
<feColorMatrix in="SourceAlpha" type="matrix" values="0 0 0 0 0 0 0 0 0 0 0 0 0 0 0 0 0 0 127 0" result="hardAlpha"/>
<feOffset dy="0.5"/>
<feColorMatrix type="matrix" values="0 0 0 0 0.537255 0 0 0 0 0.541176 0 0 0 0 0.552941 0 0 0 1 0"/>
<feBlend mode="normal" in2="BackgroundImageFix" result="effect1_dropShadow_1803_19550"/>
<feBlend mode="normal" in="SourceGraphic" in2="effect1_dropShadow_1803_19550" result="shape"/>
</filter>
<filter id="filter9_d_1803_19550" x="69.95" y="95.95" width="12.1001" height="6.6001" filterUnits="userSpaceOnUse" color-interpolation-filters="sRGB">
<feFlood flood-opacity="0" result="BackgroundImageFix"/>
<feColorMatrix in="SourceAlpha" type="matrix" values="0 0 0 0 0 0 0 0 0 0 0 0 0 0 0 0 0 0 127 0" result="hardAlpha"/>
<feOffset dy="0.5"/>
<feColorMatrix type="matrix" values="0 0 0 0 0.537255 0 0 0 0 0.541176 0 0 0 0 0.552941 0 0 0 1 0"/>
<feBlend mode="normal" in2="BackgroundImageFix" result="effect1_dropShadow_1803_19550"/>
<feBlend mode="normal" in="SourceGraphic" in2="effect1_dropShadow_1803_19550" result="shape"/>
</filter>
<clipPath id="clip0_1803_19550">
<rect width="170.53" height="170.53" fill="white" transform="translate(10 8)"/>
</clipPath>
</defs>
</svg>
