<svg width="129" height="126" viewBox="0 0 129 126" fill="none" xmlns="http://www.w3.org/2000/svg">
<g clip-path="url(#clip0_4075_8645)">
<path d="M81.8944 28.3369H47.1345C46.3424 28.3379 45.583 28.6532 45.0229 29.2136C44.4628 29.7741 44.1477 30.534 44.1468 31.3266V108.63L43.7484 108.751L35.2212 111.364C34.8171 111.488 34.3806 111.446 34.0075 111.247C33.6345 111.049 33.3553 110.71 33.2314 110.306L7.86702 27.4021C7.74358 26.9978 7.78565 26.5609 7.98398 26.1875C8.18231 25.8141 8.52067 25.5349 8.92471 25.411L22.065 21.3849L60.1593 9.71716L73.2996 5.69105C73.4995 5.62947 73.7097 5.60795 73.918 5.62773C74.1263 5.6475 74.3286 5.70818 74.5135 5.8063C74.6983 5.90442 74.862 6.03804 74.9951 6.19953C75.1283 6.36102 75.2283 6.5472 75.2895 6.74741L81.773 27.9383L81.8944 28.3369Z" fill="#F2F2F2"/>
<path d="M89.4795 27.9385L81.6654 2.39858C81.5354 1.97303 81.3229 1.5773 81.0399 1.23398C80.757 0.890656 80.4093 0.606484 80.0166 0.397696C79.6239 0.188908 79.1939 0.0595946 78.7512 0.0171513C78.3086 -0.025292 77.8619 0.019966 77.4367 0.150334L58.9622 5.80881L20.8699 17.4785L2.39544 23.139C1.53721 23.4027 0.818606 23.9964 0.397356 24.7897C-0.0238945 25.583 -0.113374 26.5112 0.148562 27.3704L26.8554 114.655C27.0682 115.349 27.4976 115.956 28.0805 116.387C28.6634 116.819 29.3691 117.052 30.0942 117.053C30.4298 117.053 30.7635 117.003 31.0841 116.903L43.7484 113.025L44.1468 112.901V112.485L43.7484 112.606L30.9667 116.523C30.2091 116.754 29.3909 116.675 28.6915 116.303C27.9921 115.931 27.4686 115.297 27.2359 114.54L0.531081 27.2528C0.41577 26.8775 0.375581 26.4831 0.412814 26.0922C0.450047 25.7013 0.563967 25.3216 0.748059 24.9749C0.93215 24.6281 1.1828 24.3211 1.48564 24.0714C1.78848 23.8217 2.13757 23.6342 2.51292 23.5197L20.9874 17.8592L59.0798 6.19149L77.5543 0.531025C77.839 0.444084 78.1349 0.399755 78.4326 0.399478C79.0714 0.400913 79.693 0.606993 80.2063 0.987533C80.7196 1.36807 81.0976 1.90308 81.285 2.51418L89.0632 27.9385L89.1867 28.3371H89.601L89.4795 27.9385Z" fill="#3F3D56"/>
<path d="M24.4363 25.4762C24.0524 25.4759 23.6787 25.3525 23.37 25.1241C23.0613 24.8958 22.8339 24.5744 22.7211 24.2072L20.1555 15.8218C20.0865 15.5965 20.0626 15.3599 20.0851 15.1254C20.1075 14.8909 20.176 14.6631 20.2864 14.4551C20.3968 14.2471 20.5472 14.0628 20.7288 13.9129C20.9104 13.763 21.1197 13.6504 21.3449 13.5815L56.3894 2.84576C56.8441 2.70694 57.3351 2.75429 57.7549 2.9774C58.1747 3.20051 58.4888 3.58115 58.6284 4.03579L61.194 12.4213C61.3327 12.8762 61.2853 13.3676 61.0623 13.7876C60.8394 14.2076 60.459 14.522 60.0047 14.6617L24.9601 25.3974C24.7904 25.4496 24.6138 25.4761 24.4363 25.4762Z" fill="#C95F84"/>
<path d="M37.8759 8.96004C40.0761 8.96004 41.8596 7.17534 41.8596 4.97379C41.8596 2.77225 40.0761 0.987549 37.8759 0.987549C35.6758 0.987549 33.8922 2.77225 33.8922 4.97379C33.8922 7.17534 35.6758 8.96004 37.8759 8.96004Z" fill="#C95F84"/>
<path d="M37.8759 7.49789C39.2691 7.49789 40.3985 6.36776 40.3985 4.97368C40.3985 3.57959 39.2691 2.44946 37.8759 2.44946C36.4827 2.44946 35.3533 3.57959 35.3533 4.97368C35.3533 6.36776 36.4827 7.49789 37.8759 7.49789Z" fill="white"/>
<path d="M120.037 116.034H52.7119C52.263 116.034 51.8327 115.855 51.5153 115.538C51.1979 115.22 51.0193 114.789 51.0188 114.34V33.6187C51.0193 33.1696 51.1978 32.7389 51.5152 32.4213C51.8326 32.1037 52.263 31.9251 52.7119 31.9246H120.037C120.486 31.9251 120.916 32.1037 121.233 32.4213C121.551 32.7389 121.729 33.1696 121.73 33.6187V114.34C121.729 114.789 121.551 115.22 121.233 115.538C120.916 115.855 120.486 116.034 120.037 116.034Z" fill="#E6E6E6"/>
<path d="M89.0632 27.9385H47.1346C46.2369 27.9397 45.3764 28.2971 44.7416 28.9323C44.1068 29.5675 43.7497 30.4285 43.7484 31.3268V112.606L44.1468 112.485V31.3268C44.1477 30.5342 44.4628 29.7743 45.023 29.2138C45.5831 28.6534 46.3425 28.3381 47.1346 28.3371H89.1867L89.0632 27.9385ZM125.614 27.9385H47.1346C46.2369 27.9397 45.3764 28.2971 44.7416 28.9323C44.1068 29.5675 43.7497 30.4285 43.7484 31.3268V122.612C43.7497 123.51 44.1068 124.371 44.7416 125.006C45.3764 125.641 46.2369 125.999 47.1346 126H125.614C126.511 125.999 127.372 125.641 128.007 125.006C128.642 124.371 128.999 123.51 129 122.612V31.3268C128.999 30.4285 128.642 29.5675 128.007 28.9323C127.372 28.2971 126.511 27.9397 125.614 27.9385ZM128.602 122.612C128.601 123.404 128.286 124.164 127.725 124.725C127.165 125.285 126.406 125.601 125.614 125.601H47.1346C46.3425 125.601 45.5831 125.285 45.023 124.725C44.4628 124.164 44.1477 123.404 44.1468 122.612V31.3268C44.1477 30.5342 44.4628 29.7743 45.023 29.2138C45.5831 28.6534 46.3425 28.3381 47.1346 28.3371H125.614C126.406 28.3381 127.165 28.6534 127.725 29.2138C128.286 29.7743 128.601 30.5342 128.602 31.3268V122.612Z" fill="#3F3D56"/>
<path d="M104.699 36.7082H68.0491C67.5739 36.7077 67.1182 36.5185 66.7821 36.1822C66.446 35.8459 66.257 35.39 66.2565 34.9144V26.1446C66.257 25.6691 66.4461 25.2131 66.7821 24.8768C67.1182 24.5405 67.5739 24.3514 68.0491 24.3508H104.699C105.175 24.3514 105.63 24.5405 105.966 24.8768C106.302 25.2131 106.491 25.6691 106.492 26.1446V34.9144C106.491 35.39 106.302 35.8459 105.966 36.1822C105.63 36.5185 105.175 36.7077 104.699 36.7082Z" fill="#C95F84"/>
<path d="M86.3742 24.9486C88.5744 24.9486 90.3579 23.1639 90.3579 20.9623C90.3579 18.7608 88.5744 16.9761 86.3742 16.9761C84.1741 16.9761 82.3905 18.7608 82.3905 20.9623C82.3905 23.1639 84.1741 24.9486 86.3742 24.9486Z" fill="#C95F84"/>
<path d="M86.3742 23.3904C87.7143 23.3904 88.8007 22.3034 88.8007 20.9624C88.8007 19.6215 87.7143 18.5344 86.3742 18.5344C85.0341 18.5344 83.9478 19.6215 83.9478 20.9624C83.9478 22.3034 85.0341 23.3904 86.3742 23.3904Z" fill="white"/>
<path d="M63 49H109" stroke="#DDDDDD" stroke-width="3" stroke-linecap="round"/>
<path d="M63 62H109" stroke="#DDDDDD" stroke-width="3" stroke-linecap="round"/>
<path d="M63 76H109" stroke="#DDDDDD" stroke-width="3" stroke-linecap="round"/>
<path d="M63 90H86" stroke="#DDDDDD" stroke-width="3" stroke-linecap="round"/>
</g>
<defs>
<clipPath id="clip0_4075_8645">
<rect width="129" height="126" fill="white"/>
</clipPath>
</defs>
</svg>
