<svg width="104" height="132" viewBox="0 0 104 132" fill="none" xmlns="http://www.w3.org/2000/svg">
<g clip-path="url(#clip0_1933_9573)">
<path d="M10.4033 32.7007L10.168 42.8831L91.5006 44.6857L92.1512 33.8015L10.4033 32.7007Z" fill="#C4C4C4"/>
<path d="M94.0617 41.9543L103.938 123.104C104.513 127.817 100.81 131.972 96.0343 131.972L7.97411 132C3.2676 132 -0.414549 127.968 0.0422594 123.311L8.14715 40.8811L94.0617 41.9543Z" fill="#C4C4C4"/>
<path d="M8.14453 40.8811L17.5922 35.7417L10.4009 32.7007L92.1488 33.8015L85.975 37.331L94.0591 41.9543L8.14453 40.8811Z" fill="#DADADA"/>
<path d="M75.649 20.0759C74.4585 12.4666 70.8525 6.13009 65.7584 2.71073C63.1075 0.921921 60.0483 0.0412792 57.0652 -9.36212e-07C53.0923 -0.0481611 49.2441 1.4104 46.6624 4.27937C43.5063 7.7813 42.122 13.0445 42.4335 20.3717C42.475 21.4932 42.5511 22.6077 42.6273 23.7361C42.8418 27.0041 43.0425 30.1276 42.648 33.1273L45.5965 33.1617C45.9772 29.9418 45.7696 26.6876 45.555 23.5159C45.4927 22.4151 45.4166 21.3212 45.3612 20.2272C45.0843 13.76 46.2056 9.2261 48.8011 6.35025C52.3379 2.42864 59.2385 1.93328 64.1734 5.24945C68.5754 8.21474 71.7107 13.7944 72.7697 20.5575C73.3234 24.142 73.3649 28.4901 72.9358 33.4988L75.8635 33.5332C76.2442 29.0818 76.3549 24.5754 75.6559 20.0621L75.649 20.0759Z" fill="#C4C4C4"/>
<path d="M65.1372 28.0705C63.9468 20.4612 60.3408 14.1247 55.2467 10.7053C52.5958 8.9165 49.5366 8.02898 46.5535 7.99458C42.5806 7.94642 38.7323 9.40498 36.1507 12.2739C32.9946 15.7759 31.6103 21.0391 31.9218 28.3663C31.9633 29.4878 32.0394 30.6023 32.1156 31.7306C32.3301 34.9986 32.5308 38.1222 32.1363 41.1219L35.0848 41.1563C35.4655 37.9364 35.2578 34.6822 35.0433 31.5105C34.981 30.4097 34.9048 29.3158 34.8495 28.2218C34.5726 21.7546 35.6939 17.2207 38.2894 14.3448C41.8262 10.4232 48.7268 9.92786 53.6617 13.244C58.0636 16.2093 61.199 21.789 62.258 28.5521C62.9155 32.8108 62.7909 37.1727 62.4241 41.4934L65.3518 41.5278C65.7325 37.0764 65.8432 32.57 65.1442 28.0567L65.1372 28.0705Z" fill="#C4C4C4"/>
</g>
<defs>
<clipPath id="clip0_1933_9573">
<rect width="104" height="132" fill="white"/>
</clipPath>
</defs>
</svg>
