<svg width="24" height="20" viewBox="0 0 24 20" fill="none" xmlns="http://www.w3.org/2000/svg">
<path d="M24.001 2.93937C23.1023 3.31867 22.149 3.56764 21.1729 3.678C22.1896 3.09746 22.9703 2.17815 23.3379 1.0828C22.3714 1.62921 21.3139 2.01419 20.2112 2.22111C19.313 1.30948 18.0334 0.739746 16.6171 0.739746C13.8978 0.739746 11.6931 2.84006 11.6931 5.43052C11.6931 5.79823 11.7367 6.1562 11.8206 6.49961C7.72841 6.30393 4.10029 4.43646 1.6717 1.59841C1.24795 2.29122 1.00513 3.0971 1.00513 3.95666C1.00513 5.58414 1.87448 7.01987 3.1956 7.86112C2.41368 7.83779 1.64896 7.63659 0.965289 7.27433C0.965008 7.29397 0.965008 7.31362 0.965008 7.33336C0.965008 9.60614 2.66226 11.5021 4.91469 11.933C4.18962 12.1209 3.42907 12.1484 2.69113 12.0134C3.31766 13.8771 5.13613 15.2332 7.2907 15.2712C5.60554 16.5292 3.48238 17.2792 1.17557 17.2792C0.77807 17.2792 0.386195 17.257 0.000976562 17.2136C2.18001 18.5446 4.76816 19.3212 7.54879 19.3212C16.6057 19.3212 21.5582 12.1733 21.5582 5.97454C21.5582 5.77108 21.5535 5.56878 21.544 5.36765C22.5079 4.70376 23.34 3.88147 24.001 2.93937Z" fill="white"/>
</svg>
